<svg xmlns="http://www.w3.org/2000/svg" xmlns:xlink="http://www.w3.org/1999/xlink" height="446.9" preserveAspectRatio="xMidYMid meet" version="1.0" viewBox="0.0 0.0 488.2 446.9" width="488.2" zoomAndPan="magnify"><g><g id="change1_1"><path d="M441.3,136.8c0,1.8-155.5,158.5-159.4,158C278,294.3,62.6,154.9,62.6,154.9c-7.9-7.9-7.5-20.6-6.7-26.6 c0.3-2.2,1.4-4.1,3.1-5.5C79.1,106.9,214.1,0,217.9,0c4.1,0,219.8,109.2,219.8,110.8c0,1.5-7.9,8.4-7.9,8.4s1.1,0.8,1.3,2.8 c0,0.3,0,0.6,0,0.9c0,0.1,0,0.3,0,0.4c-0.2,2.9-0.2,6.2-0.2,7.4c0,0.3,0,0.5,0,0.5S441.3,135,441.3,136.8z" fill="#8B81EC"/></g><g id="change2_1"><path d="M431.1,122l0,1.3l-0.2,7.4l-0.3,8.9c0,0-139.1,141.1-146.6,142.5c-4.1,0.8-5.6-4.2-6-8.8 c-0.4-4.2,1.1-8.4,4.2-11.3l147.8-142.8C429.8,119.2,430.9,119.9,431.1,122z" fill="#FCF1D0"/></g><g id="change3_1"><path d="M435.9,111.7c0.5-0.5,1.2,0.3,0.7,0.7c-38.9,38.3-78.1,76.5-117.1,114.7c-0.5,0.5-1.2-0.3-0.7-0.7 C357.8,188.2,397,150.1,435.9,111.7L435.9,111.7z M430,139.2c-21,22-42.2,43.6-63.8,65c-0.5,0.5,0.2,1.2,0.7,0.7 c21.6-21.4,42.9-43,63.8-65C431.2,139.4,430.5,138.7,430,139.2L430,139.2z M428.8,123.2c-29.4,26.2-54.4,56.9-84,82.9 c-0.5,0.4,0.2,1.1,0.7,0.7c29.6-26,54.6-56.7,84-82.9C430,123.5,429.3,122.8,428.8,123.2L428.8,123.2z M429.5,128.2 c-27.6,27.7-55.5,55.2-81.6,84.3c-0.4,0.5,0.3,1.2,0.7,0.7c26.1-29.2,54.1-56.6,81.6-84.3C430.7,128.4,430,127.7,429.5,128.2 L429.5,128.2z M429.2,134.2c-24.9,25.1-49.2,50.7-73,76.9c-0.4,0.5,0.3,1.2,0.7,0.7c23.8-26.1,48.1-51.8,73-76.9 C430.4,134.5,429.7,133.8,429.2,134.2L429.2,134.2z M59,127.7c29.6,18.7,59.6,36.9,89.9,54.6c8.7,5.1,17.4,10.1,26.2,15.1 c0.6,0.3,1.1-0.5,0.5-0.9c-30.5-17.3-60.6-35.2-90.5-53.6c-8.6-5.3-17.1-10.6-25.6-16C58.9,126.5,58.4,127.3,59,127.7L59,127.7z" fill="#281C22"/></g><g id="change4_1"><path d="M261.4,56.5c0-0.4-0.2-0.8-0.8-1.1C245,47.6,230,38.6,214,31.4c-0.5-0.2-1.1-0.2-1.5,0.1 c-0.2,0.1-0.4,0.2-0.6,0.3c-27.2,22.5-54.7,44.4-82,66.8c-4,3.2-8,6.4-11.8,9.9c-0.9,0.8-0.4,1.9,0.4,2.3c0.1,0.1,0.2,0.3,0.4,0.4 c15.3,9.2,30.9,17.9,46.7,26.1c0.4,0.3,1,0.4,1.6,0c13.3-9.3,25.7-20.2,38-30.7c14.1-12,28-24.2,41.8-36.5 c4.6-4.1,9.2-8.2,13.9-12.3C261.4,57.4,261.5,56.9,261.4,56.5z M184.9,119.9c-6,4.9-12.1,9.9-18.5,14.4c-15.1-7.9-30-16.2-44.6-25 c8.6-7.6,17.8-14.7,26.7-21.9c15.1-12.3,30.2-24.5,45.2-36.7c6.6-5.4,13.2-10.8,19.8-16.2c15,6.8,29.2,15.2,43.8,22.6 C233.3,78.2,209.6,99.6,184.9,119.9z" fill="#F7D821"/></g></g><g><g id="change5_1"><path d="M283.9,211.6c0,0,204.3,19.7,204.3,22.3c0,2.7-76.3,212-79.4,212.5c-3.1,0.5-192.5-43.4-192.5-43.4 s-7.7,7-22,3.9c-14.3-3.1-11.9-15.7-11.9-15.7S0,330.9,0,329.3s142-165.7,142-165.7S275.6,205,283.9,211.6z" fill="#3DC491"/></g><g id="change2_2"><path d="M400.3,205.8c43.6,18.4,76.7,19.1,76.7,19.1v14.3c-2.3,1.4-72.6,193.4-78.1,192.7 c-5.4-0.7-180.8-35.8-180.8-35.8s-4.1-15.3-11.2-16c-7.1-0.7-18.4,7.8-18.4,7.8c-1-1.4-172.3-63.7-172.3-63.7 c0-1.4-7.1-31.5-7.1-31.5c3.1-1.5,122.8-140.4,122.8-140.4s0.7,4.4,62,11.2s93.3,38.4,93.3,38.4 C300.4,195.5,356.8,187.4,400.3,205.8z" fill="#FCF1D0"/></g><g id="change3_2"><path d="M287.2,204.8c-27,53.6-56.1,106.2-81,160.8c-0.1,0.3-0.3,0.3-0.5,0.2c-0.1,0-0.2,0-0.3-0.1 c-26.5-24.6-64.6-27.5-98.3-34.8c-32.7-7.1-65.2-17-93.3-35.6c-0.5-0.4,0-1.2,0.5-0.9c29.5,19.5,63.8,29.4,98.2,36.6 c32.2,6.7,67.8,10.4,93.1,33.5c24.9-54.4,53.9-106.8,80.7-160.2C286.7,203.7,287.5,204.2,287.2,204.8z M397.5,405.3 c24.6-57.5,49.3-114.9,73.9-172.4c0.3-0.6-0.6-1.1-0.9-0.5c-24.6,57.5-49.3,114.9-73.9,172.4c-0.1,0.2,0,0.4,0.1,0.6 c-32.2-3.5-64.3-9.7-95.1-19.9c-30.5-10-61.2-25.7-94.2-19c-0.6,0.1-0.4,1.1,0.3,1c34.5-7,66.7,10.6,98.6,20.6 c29.3,9.2,59.7,14.9,90.3,18.3c0.7,6.4,1.3,12.8,2,19.2c0.1,0.6,1.1,0.6,1,0c-0.7-6.6-1.3-13.1-2-19.7c0-0.1-0.1-0.2-0.1-0.3 c0,0,0,0,0,0c0,0,0,0-0.1-0.1c0,0,0,0,0,0C397.4,405.5,397.5,405.4,397.5,405.3z M210.9,373.9c29-10.5,57.5,8.2,83.9,18 c26.1,9.7,53.3,16,81,18.9c0.6,0.1,0.6-0.9,0-1c-29.4-3.1-58.4-10-85.9-20.8c-25-9.8-51.8-25.9-79.3-16 C210.1,373.2,210.3,374.1,210.9,373.9L210.9,373.9z M214.4,378.7c14.1-3.7,28.4-0.5,41.7,4.5c13.1,4.9,25.8,10.9,39.1,15.4 c25.7,8.8,52.4,14.4,79.4,17.1c0.6,0.1,0.6-0.9,0-1c-28.8-2.9-57.2-9.2-84.4-18.9c-24.1-8.7-49.6-25-76.1-18.1 C213.5,377.9,213.8,378.9,214.4,378.7L214.4,378.7z M221.1,384c15.8-1.3,30.1,6,44.4,11.6c14.7,5.8,29.9,10.3,45.4,13.6 c0.6,0.1,0.9-0.8,0.3-1c-16.1-3.4-31.9-8.1-47.1-14.3c-13.8-5.6-27.6-12.2-42.9-11C220.5,383.1,220.5,384.1,221.1,384L221.1,384z M200.2,370.2c-15.9-19.6-41.8-24.1-65.4-27.3c-28.2-3.8-55.8-9.9-82.6-19.5c-0.6-0.2-0.9,0.7-0.3,1c25.6,9.2,51.9,15.4,78.8,19 c24.7,3.3,52.1,6.9,68.8,27.6C199.9,371.4,200.6,370.7,200.2,370.2L200.2,370.2z M194.6,373.3c-15.6-16-37.9-20.4-59.2-23.5 c-25.1-3.6-48.9-9.5-72.6-18.5c-0.6-0.2-0.9,0.7-0.3,1c22.4,8.5,45.1,14.5,68.9,17.9c22.3,3.2,46.1,6.9,62.5,23.7 C194.3,374.4,195,373.7,194.6,373.3L194.6,373.3z M190.3,377.8c-9.4-9.5-22.2-13.7-34.7-17.2c-16-4.5-32.3-7.7-48.7-10.9 c-0.6-0.1-0.9,0.8-0.3,1c15.1,3,30.1,5.9,45,9.9c13.6,3.6,27.8,7.7,38,18C190,379,190.7,378.3,190.3,377.8L190.3,377.8z" fill="#281C22"/></g></g></svg>