<svg width="350" height="300" xmlns="http://www.w3.org/2000/svg" preserveAspectRatio="xMidYMid meet">
 <!-- Created with Method Draw - http://github.com/duopixel/Method-Draw/ -->
 <g id="Layer_1">
  <title>Layer 1</title>
  <defs>
   <clipPath id="svg_10">
    <path d="m3630.99517,667.63108l500.14844,0l0,500l-500.14844,0l0,-500zm0,0" id="svg_16"/>
   </clipPath>
  </defs>
  <defs>
   <clipPath id="svg_11">
    <path id="svg_33" d="m3075.25315,2902.11579l500.14844,0l0,500l-500.14844,0l0,-500zm0,0"/>
   </clipPath>
  </defs>
  <g stroke="null" id="svg_57">
   <g stroke="null" transform="matrix(0.3312896761959908,0,0,0.3312896761959908,-838.1466987561538,-841.7838082428258) " id="svg_51">
    <g stroke="null" id="svg_15">
     <path stroke="null" id="svg_52" fill=" white" d="m3482.77659,3244.97126c-2.79688,1.09766 -6.07813,0.9375 -8.88672,-0.83203l-212.30859,-133.82813c-3.4336,-2.16406 -5.19922,-6.20312 -4.46094,-10.1914l31.17969,-168.17188c0.66015,-3.57422 3.12109,-6.26172 6.19531,-7.4414c0.80078,-0.3086 1.48437,0.65234 0.96094,1.32812c-0.92188,1.19141 -1.58985,2.62109 -1.88672,4.23047l-31.17578,168.17187c-0.73829,3.98829 1.02734,8.02735 4.45703,10.19141l212.3125,133.82813c1.10937,0.69921 2.28906,1.14062 3.48828,1.35546c0.71875,0.13282 0.80859,1.09375 0.125,1.35938zm62.85547,-236.94141l-238.82032,-100.98828c-11.30078,-4.78125 -24.11328,2.1875 -26.24218,14.26953l-35.1836,199.59766l0.22266,0.14062l-0.41406,-0.05078l-161.23438,69.98047c-8.5039,3.69141 -10.24609,14.99219 -3.24609,21.07422l193.90625,168.5c15.24219,13.24219 37.5,14.53906 54.17578,3.14844l159.32031,-108.8125l-0.32422,-0.20703l0.51172,0.11718l77.94141,-220c6.58203,-18.58593 -2.45313,-39.08593 -20.61328,-46.76953"/>
    </g>
    <g stroke="null" id="svg_14">
     <path stroke="null" id="svg_53" fill=" rgb(161, 181, 204)" d="m3550.06956,3057.31501l-61.51172,181.61719c-1.11719,3.30859 -3.76953,5.5625 -6.82422,6.38281c0.35547,-0.09375 0.70312,-0.21094 1.04297,-0.34375c0.68359,-0.26563 0.59375,-1.22656 -0.125,-1.35938c-1.19922,-0.21484 -2.37891,-0.65625 -3.48828,-1.35546l-212.3125,-133.82813c-3.42969,-2.16406 -5.19532,-6.20312 -4.45703,-10.19141l31.17578,-168.17187c0.29687,-1.60938 0.96484,-3.03906 1.88672,-4.23047c0.52343,-0.67187 -0.15625,-1.62891 -0.95313,-1.33203c2.33594,-0.89453 5.01953,-0.92578 7.54688,0.19141l235.50781,104.14062c10.91015,4.82813 16.33984,17.17969 12.51172,28.48047"/>
    </g>
    <g stroke="null" id="svg_13">
     <path stroke="null" id="svg_54" fill=" black" d="m3291.40549,2907.26813c0.01563,-0.00781 0.02735,-0.01171 0.04297,-0.01953c-0.01562,0.00782 -0.04297,0.01953 -0.04297,0.01953zm260.10157,98.44141l-238.83594,-100.95312c-4.89063,-2.06641 -10.0625,-1.92969 -14.53125,-0.13672c0,0 -0.14063,0.05468 -0.14063,0.05468c-0.0039,0.00391 -2.72265,1.07032 -4.66796,1.83594c4.20703,-1.40234 8.94531,-1.36719 13.4414,0.53516l238.83594,100.94922c18.16406,7.67968 27.20312,28.17968 20.62109,46.76953l-77.90625,220.00781l-0.51172,-0.11328l0.32422,0.20312l-159.30468,108.83985c-16.67188,11.39062 -38.92969,10.10156 -54.17188,-3.14063l-193.9375,-168.46875c-2.48828,-2.16015 -3.85156,-4.98437 -4.21875,-7.88672c-0.00781,0 -0.01172,0 -0.01562,0l-0.10157,7.6875c-0.07812,3.53907 1.31641,7.13672 4.33594,9.76172l193.9375,168.46875c15.24219,13.24219 37.50391,14.53125 54.17188,3.14063l162.02734,-112.55469l81.26562,-228.23437c6.58204,-18.58985 -2.45703,-39.08594 -20.61718,-46.76563zm-257.04688,-81.19922c-3.07422,1.17969 -5.53515,3.8711 -6.19531,7.44531l-31.15234,168.17579c-0.73829,3.98828 1.03125,8.02734 4.46093,10.1875l212.33203,133.79296c2.8086,1.77344 6.08985,1.9336 8.88672,0.83594c0.6836,-0.26953 0.59375,-1.22656 -0.1289,-1.35937c-1.19532,-0.21485 -2.37891,-0.66016 -3.48828,-1.35938l-212.32813,-133.79297c-3.43359,-2.16406 -5.19922,-6.19922 -4.46094,-10.1875l31.14844,-168.17578c0.29688,-1.61328 0.96484,-3.04297 1.88672,-4.23437c0.52344,-0.67578 -0.16016,-1.63672 -0.96094,-1.32813zm2.41016,341.21094l30.10547,22.68359c12.42968,-7.59765 32.6875,-20.17968 49.94531,-30.92968l-161.11328,-113.375l-64.85156,28.10156l127.63281,95.55859l-11.46094,5.94141l36.69531,28.01953l11.53125,-6.43359c0.09375,0.07031 3.0586,-1.67579 7.875,-4.60157l-23.95703,-17.83593l-8.0625,4.35937l-5.82422,-4.35937l11.48438,-7.12891zm86.07031,-4.07422l-61.46094,38.22656l51.08594,38.2461l62.17969,-40.64453c-10.09766,-6.92188 -39.14453,-27.05079 -51.80469,-35.82813zm56.82031,32.54688l8.53516,-5.58204l-52.1875,-35.15234l-8.01172,4.98047l51.66406,35.75391zm-96.98437,-76.66797l-7.6836,4.71093l46.97266,32.03125c2.76953,-1.72656 5.42969,-3.38281 7.91797,-4.9375l-47.20703,-31.80468zm-7.41797,-4.9961l-45.10547,-30.38672l-7.07031,4.69141l43.96094,29.98047l8.21484,-4.28516zm-51.83984,-34.92187l-56.77344,-38.25l-8.0586,3.49219l56.80469,38.73828c0.14844,0.10156 4.21875,-1.98828 8.02735,-3.98047zm-97.63282,41.39844l36.15235,28.28906c1.72265,1.34765 1.47265,4.03125 -0.47266,5.03515l-37.53516,19.42579c-3.63281,1.88281 -8.05468,1.29296 -11.0664,-1.47657l-29.36328,-26.97265c-1.54297,-1.41407 -1.19922,-3.92969 0.66015,-4.88282l38.40235,-19.72656c1.03906,-0.53515 2.30078,-0.41797 3.22265,0.3086"/>
    </g>
    <g stroke="null" id="svg_12">
     <path stroke="null" id="svg_55" fill=" rgb(253, 222, 189)" d="m3359.55393,3156.05329l167.52735,-54.14844l8.17187,-23.14453l-196.41406,65.33985l20.71484,11.95312zm-84.20312,-50.72266l237.01172,-79.14843c0,0 38.92578,12.60547 27.77343,35.3164l-219.69922,69.84375l-45.08593,-26.01172"/>
    </g>
    <g stroke="null" id="svg_9" clip-path="url(#svg_11)">
     <path stroke="null" id="svg_56" fill=" rgb(10, 101, 255)" d="m3160.71018,3178.10407c0.00391,0.00391 0.00391,0.00391 0.00781,0.00391l-0.00781,-0.00391zm3.92578,-10.60937l6.91407,5.21093c-4.22657,1.95313 -9.6836,4.4375 -11.28907,5.0625l-7.08984,-5.30468l11.46484,-4.96875zm57.96485,-17.2461l-10.40235,4.52735l-6.95703,-4.87891l10.4375,-4.51953l6.92188,4.87109zm143.6914,112.51953l-21.10937,-14.79687l8.17187,-5.71094l21.53907,15.15625c-2.97657,1.85156 -5.83594,3.63281 -8.60157,5.35156zm-39.2539,24.28516l-29.72266,-22.39453l11.88281,-6.77734l29.94532,21.72265c-4.6875,2.89844 -8.73829,5.39063 -12.10547,7.44922zm-27.86328,-12.87891l9.71093,7.23047c-1.68359,1.11328 -3.55468,2.35157 -5.41797,3.57813l-10.1875,-7.6211l5.89454,-3.1875zm16.3125,19.8086l-10.10547,-7.5625c1.59375,-1.0586 3.39062,-2.25 5.41015,-3.59375l10.4336,7.76562c-3.53125,2.13282 -5.07032,3.02344 -5.73828,3.39063zm-20.78907,-0.63672c1.5625,-0.91797 4.17188,-2.61719 8.69922,-5.61328l9.90625,7.41406l-9.38672,5.23828l-9.21875,-7.03906zm-4.16015,-15.24219l10.9375,8.19141c-3.86719,2.53906 -7.36719,4.80859 -8.67578,5.59765l-11.95704,-9.1289l8.32813,-5.67969l1.36719,1.01953zm-12.05469,-9.02344l6.23047,4.66407l2.5625,1.91797l-8.3086,5.67187l-9.7539,-7.44922l9.26953,-4.80469zm-108.26563,-83.85546c0,0 0.00391,0 0.00391,0l-0.00391,0zm10.5586,-5.56641c-4.71875,2.3125 -9.53516,4.60937 -11.01953,5.22266l-7.40235,-5.54297c1.91797,-0.79688 5.25391,-2.32813 11.22657,-5.10547l7.19531,5.42578zm15.91797,-3.40234l-10.60157,4.60156l-19.09375,-14.38672l10.14844,-4.39844l19.54688,14.1836zm8.18359,-10.78907l-12.28516,5.04297l-13.05468,-9.47265l12.04297,-5.21875c1.48437,1.0664 6.26171,4.53515 13.29687,9.64843zm8.875,-6.86718l-9.10156,3.92968c-1.98047,-1.43359 -3.76563,-2.73437 -5.3086,-3.85547l-5.14062,-3.72656c-0.08594,-0.0625 -0.14844,-0.10937 -0.23047,-0.16797l8.85938,-3.83593l10.92187,7.65625zm7.70313,2.66406l-7.10547,-4.98047l10.39453,-4.52734l6.49609,4.57421c-4.17969,2.16797 -8.40625,4.3125 -9.78515,4.9336zm11.30859,7.92187l-9.18359,-6.43359c1.73437,-0.82031 4.66406,-2.33203 9.72656,-4.97266l9.04297,6.36328l-9.58594,5.04297zm9.33984,6.54688l-7.27734,-5.09766l9.57812,-5.04297l7.70313,5.42188l-10.11719,4.46094l0.11328,0.25781zm10.97657,7.6914l-9.10157,-6.375l10.26953,-4.53125l8.46094,5.95704l-9.6289,4.94921zm10.08203,7.06641l-8.00782,-5.61328l9.625,-4.94922l7.92579,5.57813l-9.54297,4.98437zm10.97265,7.69141l-8.90625,-6.24219l9.53907,-4.98047l9.10156,6.40234l-9.73438,4.82032zm11.3125,7.92578l-9.22265,-6.46094l9.73047,-4.81641l8.63281,6.07422l-9.14063,5.20313zm10.94532,7.67187l-8.91797,-6.25l9.13672,-5.19922l8.48437,5.96875l-8.70312,5.48047zm10.91015,7.64844l-8.92187,-6.25391l8.69922,-5.47656l9.63671,6.77735l-9.41406,4.95312zm11.06641,7.75391l-9.00391,-6.3086l9.41016,-4.94531l8.71484,6.13281l-9.12109,5.1211zm12.90234,9.04297l-10.86719,-7.61719l9.1211,-5.11719l10.08594,7.09766l-8.33985,5.63672zm1.96485,1.375l8.33203,-5.63282l9.83593,6.92188l-8.17578,5.71484l-9.99218,-7.0039zm3.73437,19.21093c-3.23828,-2.35156 -6.84766,-4.98047 -10.75,-7.82422l10.95703,-5.88671l9.7461,6.82812l-9.95313,6.88281zm1.91797,1.39844l9.99219,-6.91016l15.34375,10.75391c-3.81641,2.375 -7.42969,4.61719 -10.82032,6.72266c-1.70312,-1.23828 -6.92968,-5.04297 -14.51562,-10.56641zm-12.36719,-6.23047c12.36328,9 21.51563,15.66016 24.82813,18.07422c-3.64453,2.25391 -7.03125,4.35547 -10.14844,6.28125l-24.97266,-18.12109c2.19922,-1.39844 6.89063,-4.21485 10.29297,-6.23438zm-22.14062,-2.36328l10.88281,-5.83203c3.23828,2.35937 6.34375,4.61719 9.28516,6.76172c-3.28125,1.94922 -8.29297,4.95312 -10.25782,6.26172l-9.91015,-7.19141zm-9.01563,11.57422l-10.20703,-7.69141l11.15234,-6.96875l10.89454,7.90625l-11.83985,6.75391zm-9.32422,-4.22266l8.84766,6.66797l-9.44531,5.85938l-8.72657,-6.53516l9.32422,-5.99219zm-11.35156,-8.55078l9.44141,7.11328l-9.32813,5.9961l-9.64062,-7.21875l9.52734,-5.89063zm-11.53516,-8.6914l9.61719,7.24609l-9.53906,5.89062l-10.07813,-7.54687l10,-5.58984zm-60.28906,-45.42579l35.33985,26.62891l22.99218,17.32422l-10.00781,5.59766l-58.64844,-43.91016c1.76953,-0.89453 4.83985,-2.59375 10.32422,-5.64063zm3.78906,-12.82031l-10.5664,4.91016l-7.94141,-5.98438l10.65625,-4.62109l7.85156,5.69531zm6.38282,-12.07812c0.57031,0.41406 1.15234,0.83593 1.74218,1.26562l-12.22656,5.07031l-7.82812,-5.67968l12.28125,-5.04297c1.8789,1.36719 3.89453,2.83203 6.03125,4.38672zm21.30078,12.71875c-2.48047,-1.80469 -4.90235,-3.5625 -7.23828,-5.26172l9.51172,-4.23828l7.86718,5.51172l-10.14062,3.98828zm26.82422,38.90625l5.99218,4.34765c0,0 0,0 0,0.00391l3.45704,2.50781l-10.04297,7.08594l-9.45703,-7.125l10.05078,-6.82031zm-10.09766,-7.32422l3.76563,2.73047c0,0.0039 0.0039,0.0039 0.00781,0.00781l4.39453,3.19141l-10.01172,6.78906l-8.32422,-6.26953c1.71485,-1.00391 4.71875,-2.9375 10.16797,-6.44922zm-11.66406,-8.46094l9.71875,7.05078c-3.70313,2.37891 -8.51563,5.44531 -10.14063,6.41406l-9.66015,-7.27734l10.08203,-6.1875zm-10,-7.25781l8.03906,5.83203l-10.04297,6.16406l-8.4414,-6.35937l10.44531,-5.63672zm-11.32031,-8.21094l9.30859,6.75l-10.40234,5.61328l-9.41797,-7.09375l10.51172,-5.26953zm50.38671,33.78516c0,0.0039 0.00391,0.0039 0.00391,0.0039l-0.00391,-0.0039zm33.48829,10.53906l-11.42188,5.47266l-8.47266,-6.14454l11.16016,-5.68359c2.95703,2.15234 5.875,4.27734 8.73438,6.35547zm-10.76954,-7.83594l-11.16015,5.6836l-10.06641,-7.30079c1.77735,-0.96484 4.875,-2.82421 10.47656,-6.20703c3.61719,2.63282 7.21094,5.2461 10.75,7.82422zm-12.71875,-9.2539c-3.87109,2.32421 -8.92578,5.32421 -10.52343,6.17578l-10.21875,-7.41407c1.8789,-0.89453 5.17578,-2.61718 11.14062,-5.75c3.20313,2.32813 6.41016,4.66407 9.60156,6.98829zm-11.62109,-8.46094c-4.16016,2.17969 -9.5625,4.96875 -11.19141,5.71875l-8.33203,-6.04297l11.15625,-5.76172c2.76953,2.01563 5.5625,4.04688 8.36719,6.08594zm-10.39453,-7.5625l-11.15625,5.76562l-9.01953,-6.54687l10.97656,-5.91406c3.01953,2.19921 6.09375,4.4375 9.19922,6.69531zm-11.21094,-8.15625l-10.98047,5.91797l-8.55859,-6.21485l11.58203,-5.49218c2.59766,1.89062 5.25391,3.82031 7.95703,5.78906zm-10.01953,-7.29297l-11.58594,5.49609l-8.16797,-5.92187l11.73829,-5.40235c2.58593,1.88282 5.26562,3.82813 8.01562,5.82813zm-10.09375,-7.33984l-11.73828,5.40625l-8.71094,-6.32032l12.22266,-5.07031c2.60547,1.89453 5.35937,3.89453 8.22656,5.98438zm-27.01172,9.72265l10.61328,-4.92969l7.3086,5.30079l-10.46485,5.25l-7.45703,-5.6211zm64.33594,48.47266l10.07422,-7.11719l10.73828,7.78906l-11.76953,6.14063l-9.04297,-6.8125zm11.02344,8.30469l11.8125,-6.16407l9.0664,6.58203l-11.11328,6.94141l-9.76562,-7.35937zm19.12109,-3.625l11.41797,-5.47266c3.16406,2.30469 6.25391,4.55078 9.23828,6.72266l-10.88672,5.83593l-9.76953,-7.08593zm42.52734,0.58984l-10.91406,5.86719c-3.13281,-2.28125 -6.4375,-4.6875 -9.8789,-7.19141l10.28515,-6.03906l10.50781,7.36328zm-12.52343,-8.77734l-10.2461,6.01562c-2.97265,-2.16797 -6.04297,-4.39844 -9.17968,-6.68359l9.91796,-5.9961l9.50782,6.66407zm-11.51563,-8.07032l-9.875,5.97266c-3.08984,-2.25 -6.24219,-4.54297 -9.43359,-6.86719l10.17187,-5.51172l9.13672,6.40625zm-11.1875,-7.83984l-10.1289,5.48437c-3.37891,-2.45703 -6.79688,-4.94531 -10.23047,-7.44531l10.40625,-5.01562l9.95312,6.97656zm-12.05469,-8.44922l-10.35937,4.99219c-1.42188,-1.03125 -2.83984,-2.06641 -4.26172,-3.09766c-1.81641,-1.32422 -3.63281,-2.64844 -5.44922,-3.96484l9.86328,-5.08203l10.20703,7.15234zm-12.28125,-8.60547l-9.8164,5.0586c-2.71485,-1.97657 -5.41406,-3.94141 -8.09375,-5.89063l9.84375,-4.82031l8.0664,5.65234zm-10.16015,-7.12109l-9.79688,4.79687c-3.02343,-2.19922 -6.01172,-4.37109 -8.94922,-6.50781l9.60157,-4.69922l9.14453,6.41016zm-11.24219,-7.87891l-9.55469,4.67578c-2.76172,-2.01172 -5.47656,-3.98437 -8.12109,-5.91015l10.19531,-4.00782l7.48047,5.24219zm-19.68359,-13.79687l-9.46485,4.21875c-2.55468,-1.85938 -5.01562,-3.65235 -7.34765,-5.34766c-0.53907,-0.39062 -1.05469,-0.76562 -1.58203,-1.14844c1.76171,-0.65625 4.69531,-1.83593 9.66796,-3.83593l8.72657,6.11328zm-12.54688,-11.52344c0.00391,0 0.00391,0 0.00391,0l0,0.00391l-0.00391,-0.00391zm1.62891,3.875c-3.6836,1.47656 -8.21094,3.26562 -9.65235,3.78906c-2.57031,-1.87109 -4.96484,-3.60937 -7.14843,-5.19922l9.15234,-3.95312l7.64844,5.36328zm-32.29688,22.08594l-10.64062,5.45703l-8.79297,-6.58594c1.88281,-0.82031 5.14453,-2.39453 10.95703,-5.25781l8.47656,6.38672zm-8.64453,6.94922l10.63281,-5.44922l7.65625,5.76562c-3.83203,2.11719 -8.77734,4.82422 -10.36718,5.61328l-7.92188,-5.92968zm-23.24219,-14.60157c0,0 0.00391,0 0.00391,0l9.49609,7.11328c0.00391,0 0.00391,0 0.00391,0l20.83594,15.60157c0,0 0,0 0.0039,0l86.77344,64.96875l-11.44531,5.93359l26.96484,20.58984c0.00391,0 0.00391,0 0.00391,0.00391l11.71094,8.94141l12.17578,-6.79297l-0.00781,-0.01172c1,-0.40625 3.03515,-1.64453 7.91406,-4.60547l1.42187,-0.86328l-25.86328,-19.26172l-8.05859,4.35938l-3.9375,-2.94922l9.4375,-5.85157l30.10156,22.67969l0.64844,-0.39844c10.2539,-6.26953 27.0625,-16.67968 49.95703,-30.9375l1.43359,-0.89453l-163.00781,-114.71093l-67.20312,29.12109l10.63671,7.96484zm263.32813,124.10157l-11.15625,-7.73829c4.92578,-3.19921 8.61719,-5.59765 10.02344,-6.51171c4.39062,3.03125 8.30078,5.72656 11.16015,7.69531l-10.02734,6.55469zm-61.14453,24.47265c1.51953,-0.89844 4.03906,-2.51172 8.41015,-5.3164c4.32813,-2.77344 9.71875,-6.25 15.3711,-9.90625c3.78125,2.79296 7.46875,5.52343 10.88672,8.05859l-23.61719,15.4375l-11.05078,-8.27344zm-27.90625,-34.85937l21.28906,16.77343l-9.39062,6.10157l-22.08594,-16.53516l10.1875,-6.33984zm71.03515,-15.54297l-9.99609,6.49219l-21.96875,-15.2461l10.1875,-6.33594c3.61328,2.50782 12.33594,8.55079 21.77734,15.08985zm-8.00781,7.875l10,-6.4961c4.35156,3.01172 8.78906,6.08204 12.89844,8.92188c-2.81641,1.83203 -6.23828,4.05859 -10.01953,6.51172l-12.87891,-8.9375zm1.50781,16.3164l-13.25,-8.6875l9.71485,-6.3125l12.8789,8.9375c-2.97656,1.9336 -6.1289,3.97657 -9.34375,6.0625zm-6.90234,7.14063c6.46094,-4.17969 12.90625,-8.36328 18.23438,-11.82031l11.16015,7.74218l-22.45703,14.67969c-1.83984,-1.36719 -5.85547,-4.34765 -10.87109,-8.05469c1.30468,-0.84375 2.61718,-1.6914 3.93359,-2.54687zm-18.32031,-8.05078l9.91797,-6.44531l13.25,8.6875c-3.57813,2.32031 -7.19922,4.66406 -10.70703,6.93359c-3.85157,-2.84766 -8.16016,-6.01953 -12.46094,-9.17578zm-3.94141,-0.11328l-12.09765,7.85937l-21.25,-16.74219l11.24218,-6.98828c2.27344,1.42188 11.32422,7.96875 22.10547,15.8711zm-9.02344,-24.01172l10.64844,-6.6211l22.01563,15.27735l-9.77735,6.34765l-22.88672,-15.0039zm20.83594,16.33984l-9.80078,6.36719c-9.36328,-6.86328 -18.33203,-13.375 -22.03906,-15.86328l8.91015,-5.53906l22.92969,15.03515zm-10.08594,26.42969l-11.96484,-9.42969l12.17188,-7.91015c4.04296,2.96875 8.28125,6.08984 12.45703,9.17187c-4.60938,2.97656 -8.95313,5.78125 -12.66407,8.16797zm-23.28515,-2.07813l9.33203,-6.0664l11.95703,9.42187c-4.51172,2.89453 -7.82812,5 -9.10547,5.76953l-12.18359,-9.125zm36.11328,-57.19921l-0.60156,-0.41797l-63.48047,39.48047l39.38281,29.48437c0.00391,0 0.00391,0 0.00781,0.00391l13.00782,9.73828l0.6289,0.47265l64.23438,-41.99218l-1.37891,-0.94532c-11.12109,-7.625 -45.10156,-31.17968 -51.80078,-35.82421zm21.08984,-0.14844l-5.93359,3.86328l-8.59766,-5.94922l5.94922,-3.69922l8.58203,5.78516zm35.10938,32.26953l-11.6211,-8.04297l6.5586,-3.98828l11.55469,7.78516l-6.49219,4.24609zm-20.16797,-22.20703l13.05859,8.79687l-6.52734,3.96875l-12.33984,-8.53906l5.80859,-4.22656zm-7.76172,2.875l-11.12109,-7.69531l5.96093,-3.88672l10.94532,7.375l-5.78516,4.20703zm27.89453,22.03125l10.58203,-6.91797l-54.1914,-36.50391l-10.07813,6.26953l53.6875,37.15235zm-88.51953,-70.98047l-5.88281,3.30078l-8.1836,-5.57812l5.58985,-3.42969l8.47656,5.70703zm30.87109,28.36719l-9.30468,-6.34766l5.98828,-3.45312l9.14844,6.16406l-5.83204,3.63672zm-16.54296,-18.71094l11.15625,7.51562l-5.97266,3.44532l-11.01953,-7.51172l5.83594,-3.44922zm-7.87891,2.05469l-10.26563,-7l5.89454,-3.30469l10.19531,6.86328l-5.82422,3.44141zm24.36719,19.32812l10.0039,-6.23828l-49.23828,-33.16797l-9.76953,5.98828l49.00391,33.41797zm-84.35547,-67.10156l-5.55469,3.07812l-6.9375,-4.73437l5.05469,-3.35547l7.4375,5.01172zm29.53906,27.00781l-10.52734,-7.17578l5.4414,-3.35937l11.03125,7.42968l-5.94531,3.10547zm-17.32422,-18.78125l10.19922,6.8711l-5.42969,3.35156l-10.48828,-7.15235l5.71875,-3.07031zm-7.80469,1.64453l-7.89062,-5.3789l5.56641,-3.08985l8.02734,5.41016l-5.70313,3.05859zm24.97657,19.7461l10.47265,-5.46875l-46.66406,-31.4336l-0.62109,-0.42187l-9.08203,6.02734l45.89453,31.29688zm-100.44532,-77.48828l7.79688,5.25c-2.98438,1.30468 -4.66016,2.05078 -5.60156,2.52343l-7.82422,-5.33593l5.6289,-2.4375zm34.89063,23.5039l7.86719,5.30078l-5.875,2.625l-7.07032,-4.82031l5.07813,-3.10547zm-8.60547,-5.79687l6.5625,4.42187l-5.06641,3.09375l-6.98437,-4.76172l5.48828,-2.7539zm-15.41406,-4.01563l-6.54297,-4.46484c1.55859,-0.6875 3.85937,-1.70313 5.66797,-2.49219l6.34375,4.27344l-5.46875,2.68359zm7.61328,-1.23828l5.66797,3.81641l-5.47266,2.74609l-5.67969,-3.87109l5.48438,-2.69141zm30.54297,27.26172l-9.96875,-6.80078l5.89062,-2.63281l9.75782,6.57421c-3.59375,1.86719 -5.07032,2.58204 -5.67969,2.85938zm-0.23828,2.38281c0.70312,0 2.30468,-0.8164 8.625,-4.1289l1.66406,-0.8711l-58.33203,-39.29687l-0.50781,-0.34375l-10.48829,4.54297l58.48829,39.88671c0.17968,0.1211 0.3164,0.21094 0.55078,0.21094zm-131.64844,58.11328c0.08203,-0.61718 0.44922,-1.13672 1.00781,-1.42187l6.08203,-3.125l18.33594,14.74609l-10.75781,4.3711l-14.07422,-12.92969c-0.46094,-0.42188 -0.67578,-1.01953 -0.59375,-1.64063zm39.41016,-21.14843c0.26953,-0.13672 0.5625,-0.20704 0.85937,-0.20704c0.41406,0 0.82422,0.13672 1.16016,0.39844l36.15234,28.29297c0.51563,0.40234 0.77344,1.00781 0.71484,1.66016c-0.0625,0.65234 -0.42968,1.19922 -1.01171,1.49609l-29.15235,15.08984l-38.85937,-31.25l30.13672,-15.48046zm0.33984,51.07031c-3.20313,1.65625 -7.13672,1.1289 -9.79297,-1.3086l-13.46484,-12.36718l10.92968,-4.44141l18.53516,14.90625l-6.20703,3.21094zm-11.30859,0.34375c2.04296,1.875 4.6914,2.85156 7.35937,2.85156c1.69922,0 3.41016,-0.39453 4.97656,-1.20703l37.53907,-19.42578c1.2539,-0.64844 2.07812,-1.875 2.21093,-3.27735c0.13282,-1.40625 -0.45312,-2.76562 -1.5664,-3.63671l-36.14844,-28.28907c-1.26172,-0.99218 -3.00391,-1.15625 -4.42969,-0.42187l-38.40234,19.72656c-1.19531,0.61328 -2.01953,1.77734 -2.19922,3.11719c-0.18359,1.33203 0.30078,2.67578 1.29687,3.58594l29.36329,26.97656zm398.8789,-218.96875l-81.17969,227.8789l-161.74218,112.32032c-16.24219,11.09375 -37.95703,9.83203 -52.8086,-3.07032l-193.90625,-168.5c-2.625,-2.27734 -4.02734,-5.43359 -3.95312,-8.89843l0.02734,-1.77344c0.67578,1.02344 1.4961,1.96875 2.45703,2.80469l193.90625,168.49609c8.51563,7.39844 19.17188,11.15625 29.875,11.15625c8.9336,0 17.89453,-2.61719 25.66797,-7.92578l158.86719,-108.50781l0.59766,0.3789l0.36328,-1.03515l0.89453,-0.60938l-0.55469,-0.35156l77.70313,-219.32813c6.77343,-19.11718 -2.55469,-40.27734 -21.23047,-48.17578l-238.82032,-100.98828c-1.60937,-0.68359 -3.27734,-1.13672 -4.96093,-1.38672c3.33984,-0.57031 6.78515,-0.1914 9.98437,1.16407l238.82031,100.98828c17.58594,7.4414 26.3711,27.36718 19.99219,45.36328zm-493.45312,148.65234c0.60156,-3.92187 3.13672,-7.20703 6.77734,-8.78515l160.6875,-69.74219l41.20313,26.09765c-0.46485,1.51563 0.0039,2.65625 0.03906,2.73829l0.13281,0.30859l19.23828,12.74609c0.28125,0.1875 0.60547,0.28516 0.92578,0.28516c0.25391,0 0.50782,-0.05859 0.7461,-0.17578c0.53906,-0.26953 0.90234,-0.8086 0.9414,-1.41406c0.01172,-0.17188 0.04297,-0.33204 0.07032,-0.49219l102.71875,65.07422c-0.94922,1.88672 -0.32422,3.42968 -0.28125,3.52343l0.13281,0.3086l19.23828,12.75c0.28125,0.1875 0.60547,0.28125 0.92578,0.28125c0.25391,0 0.50781,-0.0586 0.74219,-0.17578c0.54297,-0.26953 0.90234,-0.8086 0.94531,-1.41407c0.03516,-0.5039 0.14844,-0.9414 0.30859,-1.32421l52.95313,33.54296l-157.91406,107.85157c-16.2461,11.09765 -37.95703,9.83203 -52.8086,-3.07032l-193.90625,-168.49609c-2.99609,-2.60547 -4.42187,-6.49609 -3.8164,-10.41797zm337.66797,25.50391c0.21484,-0.13281 0.50781,-0.1211 0.73046,0.02344l17.14844,11.51953c-0.96875,0.71875 -2.09375,1.92968 -2.47656,3.8164l-17.87109,-11.83984c-0.06641,-0.57031 0.05078,-2.01563 2.46875,-3.51953zm-124.49219,-79.85547c0.21484,-0.13281 0.50781,-0.125 0.73047,0.02344l17.14843,11.51953c-0.96484,0.71875 -2.08984,1.92969 -2.47656,3.8164l-17.86328,-11.83593c-0.07031,-0.58985 0.05859,-2.03125 2.46094,-3.52344zm-9.13281,-224.93359c0.95312,-5.42188 4.27343,-10.03907 9.11328,-12.66797c0.35937,-0.19922 0.73047,-0.37891 1.10156,-0.55078l1.90234,-0.7461c4.08985,-1.34375 8.53125,-1.18359 12.58203,0.53125l238.82032,100.98828c17.58593,7.44141 26.37109,27.36719 19.99218,45.36719l-77.46875,218.67578l-53.07421,-33.5625c0.1289,-0.08594 0.2539,-0.16797 0.3789,-0.23828c0.50391,-0.28906 0.82031,-0.8125 0.83985,-1.39844c0.02343,-0.58984 -0.25782,-1.13672 -0.7461,-1.46484l-17.83594,-11.97656c-0.95703,-0.64453 -2.19921,-0.67188 -3.16406,-0.07032c-0.62109,0.38672 -1.13672,0.78516 -1.5625,1.17969l-103.15625,-65.23047c0.35938,-0.38672 0.76172,-0.67968 1.13281,-0.89453c0.50782,-0.29297 0.82032,-0.8125 0.83985,-1.39844c0.02344,-0.58984 -0.25781,-1.13671 -0.7461,-1.46484l-17.83593,-11.98047c-0.95703,-0.64062 -2.19532,-0.66797 -3.16016,-0.0664c-0.91797,0.5664 -1.60156,1.15625 -2.11328,1.73437l-40.89453,-25.91016l35.05469,-198.85546zm270.28906,83.20703l-238.81641,-100.99219c-4.94531,-2.08985 -10.41015,-2.14063 -15.38281,-0.14844l-4.71875,1.85547c-0.67969,0.22266 -1.34766,0.48828 -2.00391,0.78906l-0.00781,0c-0.44531,0.20313 -0.88672,0.41797 -1.31641,0.65235c-5.4414,2.95703 -9.17578,8.15234 -10.25,14.25l-35.08203,199.00781l-160.87109,69.82422c-4.34766,1.88672 -7.375,5.8125 -8.09766,10.49609c-0.19531,1.26953 -0.20703,2.53516 -0.05859,3.77344l-0.10156,7.60937c-0.08985,4.07032 1.63281,7.94532 4.72265,10.63282l193.90625,168.49609c8.51172,7.39453 19.17188,11.15625 29.8711,11.15625c8.93359,0 17.90234,-2.62109 25.67578,-7.93359l162.33984,-112.73047l81.42578,-228.5625c6.76953,-19.11719 -2.55468,-40.27735 -21.23437,-48.17578zm-293.74219,95.61328l31.17578,-168.17578c0.0625,-0.33203 0.14453,-0.66407 0.24219,-0.98047c0.04297,-0.13281 0.09766,-0.26172 0.14453,-0.39063c0.06641,-0.18359 0.125,-0.36718 0.19922,-0.54687c0.07422,-0.16797 0.16406,-0.32813 0.24609,-0.48828c0.06641,-0.13282 0.125,-0.26563 0.19922,-0.39063c0.10156,-0.17578 0.21485,-0.33594 0.32813,-0.5c0.07031,-0.10547 0.13281,-0.21875 0.21093,-0.32422c0.1211,-0.16015 0.25391,-0.30859 0.38282,-0.46093c0.08203,-0.09766 0.16015,-0.20313 0.24609,-0.29688c0.12891,-0.13672 0.26953,-0.26172 0.41016,-0.39453c0.10156,-0.09766 0.19922,-0.19922 0.30468,-0.28906c0.125,-0.10547 0.26172,-0.19922 0.39063,-0.30078c0.13672,-0.10157 0.26562,-0.21094 0.41016,-0.3086c0.09765,-0.0664 0.20703,-0.12109 0.3125,-0.1875c0.18359,-0.11328 0.37109,-0.23047 0.5664,-0.33203c0.00391,-0.00391 0.00781,-0.00391 0.01563,-0.00781c-0.76172,1.1875 -1.27735,2.49609 -1.53907,3.91015l-31.17578,168.17188c-0.82812,4.46875 1.1211,8.91797 4.96485,11.33984l212.30859,133.82813c0.76563,0.48437 1.57813,0.86719 2.42578,1.14453c-0.00781,0.00391 -0.01562,0.00391 -0.02344,0.00391c-0.40234,0.08593 -0.8125,0.13281 -1.21875,0.16406c-0.16015,0.01172 -0.32421,0.02734 -0.48437,0.02734c-0.125,0.00391 -0.24609,-0.00781 -0.36719,-0.01172c-0.1914,-0.0039 -0.38281,-0.01172 -0.57422,-0.02734c-0.11328,-0.01172 -0.22265,-0.02734 -0.33593,-0.04297c-0.19922,-0.02734 -0.39454,-0.0625 -0.59375,-0.10156c-0.10547,-0.02344 -0.21094,-0.04688 -0.31641,-0.07031c-0.20313,-0.05079 -0.40234,-0.10938 -0.59766,-0.17579c-0.10156,-0.03125 -0.19922,-0.0625 -0.29687,-0.09765c-0.20703,-0.07422 -0.41406,-0.16406 -0.61328,-0.25391c-0.08594,-0.03906 -0.17188,-0.07422 -0.25391,-0.11328c-0.28125,-0.13672 -0.55859,-0.28906 -0.82812,-0.46094l-212.3086,-133.82422c-3.0625,-1.92968 -4.61328,-5.47656 -3.95703,-9.03515zm43.375,-174.60938l235.50781,104.14063c10.45313,4.625 15.57032,16.27344 11.90235,27.09765l-61.50782,181.61719c-0.64843,1.91406 -1.91015,3.51172 -3.5664,4.57031c-0.26953,-0.3164 -0.64063,-0.55078 -1.08203,-0.63281c-1.10157,-0.19922 -2.14063,-0.60156 -3.09375,-1.20312l-212.3086,-133.82813c-3.0625,-1.92969 -4.61328,-5.47656 -3.95312,-9.03515l31.17578,-168.17188c0.25781,-1.38672 0.82031,-2.64844 1.67187,-3.75c0.33204,-0.42969 0.44141,-0.95312 0.37891,-1.45703c1.62891,-0.25 3.31641,-0.03906 4.875,0.65234zm171.69531,319.36719c1.79297,1.12891 3.80469,1.70703 5.84375,1.70703c0.00391,0 0.00782,-0.0039 0.01563,-0.0039c0.0039,0 0.0039,0.0039 0.00781,0.0039c1.24219,0 2.49219,-0.21484 3.70313,-0.64453c0.09765,-0.03516 0.1875,-0.08203 0.28515,-0.12109c0.01172,-0.00391 0.02735,-0.00782 0.03906,-0.01172c0.00782,-0.00391 0.01172,-0.00781 0.01954,-0.01172c3.03515,-1.19141 5.36328,-3.60938 6.41406,-6.71094l61.50781,-181.61719c4.04297,-11.92968 -1.59766,-24.76953 -13.11719,-29.86328l-235.51172,-104.14453c-3.10156,-1.37109 -6.60546,-1.25 -9.60546,0.33594c-0.02344,0.01172 -0.04688,0.02734 -0.07032,0.03906c-0.08984,0.05078 -0.17187,0.10547 -0.26172,0.16016c-0.29687,0.16797 -0.58593,0.34375 -0.86328,0.53515c-0.14453,0.10157 -0.28125,0.21485 -0.42187,0.32422c-0.20703,0.16016 -0.41016,0.32032 -0.60547,0.4961c-0.14844,0.1289 -0.28516,0.26953 -0.42188,0.40625c-0.17187,0.17187 -0.33984,0.34765 -0.5039,0.53125c-0.12891,0.14843 -0.25391,0.30078 -0.37891,0.45703c-0.14844,0.1914 -0.29297,0.38672 -0.42969,0.58984c-0.10937,0.16016 -0.21484,0.32031 -0.3164,0.48828c-0.13281,0.21875 -0.25391,0.44532 -0.3711,0.67188c-0.08203,0.16015 -0.17187,0.32422 -0.24609,0.49219c-0.11719,0.26171 -0.21875,0.53125 -0.31641,0.80468c-0.05078,0.14453 -0.11328,0.28907 -0.16015,0.4375c-0.13281,0.42578 -0.2461,0.86328 -0.33203,1.3086l-31.17578,168.17187c-0.82422,4.46875 1.12109,8.91797 4.96484,11.33985l212.30859,133.82812"/>
    </g>
   </g>
  </g>
  <g stroke="null" id="svg_50">
   <g stroke="null" transform="matrix(0.5715416662351195,0,0,0.5715416662351195,-903.3955381926174,-975.6758277419393) " id="svg_34">
    <g stroke="null" id="svg_32">
     <path stroke="null" id="svg_35" fill="#fff" d="m1723.53603,1804.78025l4.23047,72.17969c0,0 -5.11719,65.02734 -5.47657,69.18359c-0.36328,4.15235 -6.79687,73.71094 -6.79687,73.71094c0,0 -30.96094,6.5625 -29.83594,8.09766c1.12891,1.53515 -33.02344,15.21094 -33.02344,15.21094c0,0 -12.43359,-1.04297 -18.32422,-1.41797c-5.89062,-0.3711 -46.0039,-5.5625 -53.92968,17.8164c0,0 -3.66407,10.28125 4.77734,22.13282c8.44141,11.85156 14.22266,19.65234 41.25781,33.01562c27.03516,13.35938 62.23047,31.00391 72.01563,30.19922c9.78125,-0.80078 10.04297,-8.24609 10.04297,-8.24609l46.6914,4.16015l-2.73828,6.42188l-11.82812,2.38672l-8.71875,63.76953l9.28906,-5.35157l8.46875,-15.52734l18.94922,-43.01953l6.16797,-3.84375l3.3789,6.78125l62.42188,-7.53125l4.20703,-6.16406c0,0 -43.68359,-5.03516 -52.34375,-5.40625l13.38672,-7.67578c0,0 5.07812,3.94531 8.28906,2.39062c3.21484,-1.55078 14.10547,-11.53125 14.10547,-11.53125c0,0 57.89453,-51.44141 64.39453,-60.30469c6.5,-8.85937 28.51953,-33.28515 2.23438,-38.86718c0,0 -37.97266,11.1289 -52.91797,10.09765l-25.73438,16.15625l2.08594,-27.61719l-2.08594,3.86719c0,0 -5.66797,-9.69922 -13.51953,-4.84765c-7.85156,4.84765 -22.63672,13.13281 -22.63672,13.13281l-0.95703,-42.92188l-13.42187,-76.52343l3.66015,-27.66797c0,0 15.27344,7.01953 19.6211,7.87109c4.34765,0.85156 36.68359,-28.95312 37.23046,-31.03516c0.54297,-2.08203 5.70313,-38.22656 5.4336,-39.58593c-0.27344,-1.35938 -19.83985,-26.08594 -23.91406,-26.35938c-4.07422,-0.27344 -55.8086,0 -55.8086,0c0,0 -26.85937,13.23047 -28.32812,12.86328"/>
    </g>
    <g stroke="null" id="svg_31">
     <path stroke="null" id="svg_36" fill="#fff" d="m1913.12196,1998.50682c0.27344,-0.51954 36.08985,-0.89063 36.08985,-0.89063l9.57422,-7.91406l-8.64453,-25.08985c0,0 -0.65235,-3.23828 5.29687,-4.39453c5.95313,-1.15625 23.17578,-2.98828 31.19922,-1.15234c8.01953,1.83594 5.80078,5.75391 5.80078,5.75391l-0.16016,10.88281c0,0 0.4375,4.77734 0.91797,6.98828c0.48047,2.21484 0.55078,11.69141 0.55078,11.69141c0,0 1.76563,11.07812 -4.5625,16.19921c-6.33203,5.1211 -3.16015,9.35157 -3.16015,9.35157c0,0 -13.82031,3.52343 -14.48828,2.99609c-0.66797,-0.53125 -11.67969,-3.02734 -11.67969,-3.02734l-2.91797,-11.60157l-10.25781,0l-34.81641,5.40235l1.25781,-15.19531"/>
    </g>
    <g stroke="null" id="svg_30">
     <path stroke="null" id="svg_37" fill="#fff" d="m1777.34462,1946.14353c-0.36719,9.11719 -0.54687,18.23438 -0.57812,27.35938c-0.00391,1.73047 2.67968,1.73047 2.6875,0c0.02734,-9.125 0.21093,-18.24219 0.57421,-27.35938c0.07032,-1.73046 -2.61718,-1.72656 -2.68359,0"/>
    </g>
    <g stroke="null" id="svg_29">
     <path stroke="null" id="svg_38" fill="#fff" d="m1711.93446,1982.9365c0.81641,-1.52343 -1.5,-2.88281 -2.32031,-1.35547c-12.28906,22.92579 -26.69922,49.46875 -19.69531,76.22657c0.12891,0.48828 0.4375,0.76562 0.80469,0.88281c0.57031,-1.01563 1.14843,-1.6875 1.66015,-2.11719c-6.47265,-25.80469 7.71485,-51.55859 19.55078,-73.63672"/>
    </g>
    <g stroke="null" id="svg_28">
     <path stroke="null" id="svg_39" fill="#b09ab3" d="m1779.454,1973.50291c-0.00782,1.73047 -2.69141,1.73047 -2.6875,0c0.03125,-9.125 0.21093,-18.24219 0.57812,-27.35938c0.06641,-1.72656 2.75391,-1.73046 2.68359,0c-0.36328,9.11719 -0.54687,18.23438 -0.57421,27.35938zm94.47265,20.80859c-17.60937,-3.17187 -29.05469,-13.98828 -47.96094,-45.10156c-18.90234,-31.11719 -27.23828,-35.14453 -35.78125,-40.84766c-8.53906,-5.70312 -23.70703,-5.63281 -23.70703,-5.63281c0,0 -2.0664,12.67188 -3.76172,22.61719c-1.69531,9.94531 -4.14062,32.55859 -4.6289,41.48047c-0.48828,8.92187 2.68359,38.71484 3.3789,44.53125c0.69532,5.8164 3.53907,29.98047 3.53907,29.98047l-6.91797,7.8125c0,0 13.9375,-15.54688 21.93359,-19.89453c0,0 0.4336,-38.14844 1.72656,-44.94532c0,0 16.64063,26.84375 20.42188,30.1211c0,0 2.93359,-3.04688 7.10156,0.05078c4.17188,3.10156 4.74219,4.5039 4.74219,4.5039l-46.44922,32.82032c0,0 -10.00391,4.11718 -19.64062,1.45312l-46.7461,-20.33203c0,0 3.23047,-6.73437 5.54297,-7.81641c2.3125,-1.08203 7.15234,-0.07812 12.76172,1.98438c5.60937,2.0625 30.27734,13.54297 38.60547,22.05469c-6.76172,-9.46094 -30.32031,-18.90235 -30.32031,-18.90235c0,0 7.97656,-42.49609 10.98046,-63.42968c3.00391,-20.9336 1.07032,-55.69922 1.07032,-55.69922c-8.44532,2.71484 -29.90625,-7.01953 -29.90625,-7.01953c-14.63282,8.61718 -26.86719,27.20312 -39.80469,47.73437c-12.93359,20.53125 -22.15625,53.65234 -23.4375,60.30859c-1.27734,6.66016 -5.57813,30.375 10.74609,48.03516c16.32032,17.66406 29.88282,13.69922 29.88282,13.69922c0.18359,0.56641 0.48828,1 0.85937,1.35156c-0.72266,-1.23437 -0.51172,-3.83594 0.33984,-9.26953c0.54688,-3.48437 1.375,-5.75781 2.22657,-7.26953c-0.36719,-0.11719 -0.67578,-0.39453 -0.80469,-0.88281c-7.00391,-26.75782 7.40625,-53.30078 19.69531,-76.22657c0.82031,-1.52734 3.13672,-0.16796 2.32031,1.35547c-11.83593,22.07813 -26.02343,47.83203 -19.55078,73.63672c0.92188,-0.77344 1.61328,-0.8125 1.61328,-0.8125c0,0 8.4336,2.39453 12.64454,3.80078c4.21484,1.40625 8,0.81641 3.92578,8.16407c-4.07813,7.35156 -13.625,8.42578 -18.34375,8.55468c-0.76172,0.01953 -1.40625,0.02344 -1.96094,-0.02343c1.8125,0.39453 3.73437,0.02343 3.73437,0.02343l0,10.82813c8.01954,1.30469 71.45704,33.62109 71.45704,33.62109c0,0 15.47656,-21.67969 21.76953,-28.79687c6.29297,-7.11328 27.32422,-25.24219 27.32422,-25.24219l3.71484,-42.53516c28.92578,9.51172 57.42578,-1.98828 67.48437,-4.5039c10.0586,-2.51563 27.89454,-6.33203 27.89454,-6.33203l0.3789,-14.25391c-7.01172,-4.97656 -22.48437,-1.57813 -40.09375,-4.75391"/>
    </g>
    <g stroke="null" id="svg_27">
     <path stroke="null" id="svg_40" fill="#100f0d" d="m1684.67665,1875.71385c5.63281,13.58984 15.58985,25.05859 28.69922,31.92578c15.38672,8.0625 32.63281,5.0664 48.39844,-0.25391c0.35547,-0.12109 0.58984,-0.33984 0.74219,-0.59765c0.25781,-0.3711 0.33984,-0.86329 0.05859,-1.375c-7.60938,-13.89844 -10.51172,-31.10547 -10.59766,-47.17579c0.16797,-0.39062 0.19532,-0.82031 0.00391,-1.15234c0.00781,-1.99609 0.05078,-3.98047 0.13672,-5.92969c0.04297,-0.88281 -0.63672,-1.30468 -1.32031,-1.28906c0,-0.01953 0,-0.03125 0,-0.03125c-23.56641,-10.55469 -16.01954,-30.70703 -9.34375,-34.06641c3.84375,-1.92968 7.02343,1.83204 9.03515,5.375c0.46094,1.91797 0.77344,3.82422 1.03125,5.45704c0.05469,0.37109 0.23828,0.60937 0.46485,0.76562c0.16796,0.45313 0.5625,0.8125 1.19921,0.80469c19.32032,-0.2461 47.04688,-5.42969 57.84375,-22.78906c2.25782,8.90234 8.42579,15.46093 16.97266,19.16406c-2.89062,17.14844 -8.04687,36.71484 -22.97266,47.1875c-8.08593,5.67578 -18.54687,8.55078 -28.2539,5.93359c-1.76563,-0.47656 -3.39063,-1.05078 -4.91016,-1.71875c-0.22265,-0.1875 -0.49219,-0.30469 -0.76562,-0.33984c-5.26563,-2.48828 -9.19532,-6.23438 -12.78907,-11.54688c-0.96093,-1.42578 -3.28906,-0.08203 -2.3164,1.35547c3.78125,5.59375 7.6914,9.46094 13.32812,12.22266c-1.46093,3.43359 -2.28906,6.9414 -2.82422,10.50781c-0.23437,0.35938 -0.33203,0.81641 -0.17968,1.25781c-0.53907,4.13672 -0.74219,8.34766 -1.10938,12.61328c-0.14844,1.72266 2.53906,1.71094 2.6875,0c0.28125,-3.28125 0.44531,-6.55468 0.76172,-9.78515c14.85938,15.66406 40.875,16.22265 60.91797,14.71484c1.28906,-0.09375 1.61328,-1.63672 0.96094,-2.34375c-9.92188,-32.55469 12.64453,-63.05859 11.30468,-95.54687c-0.51562,-12.39453 -4.55468,-25.4336 -14.27343,-33.73047c-7.03125,-6 -19.88282,-10.23828 -28.82032,-6.16406c-3.40234,-3.23829 -7.20703,-6.00782 -11.57812,-7.94141c-7.03125,-3.11719 -15.20313,-3.625 -22.80469,-3.63672c-16.41406,-0.03516 -28.76172,5.63672 -39.23047,18.38672c-22.92187,27.91016 -25.11328,66.5 -40.82031,98.05859c-0.33203,0.67188 -0.08594,1.30469 0.36328,1.6836"/>
    </g>
    <g stroke="null" id="svg_26">
     <path stroke="null" id="svg_41" fill="#100f0d" d="m1816.85243,2044.76463c9.46485,-6.66406 17.84375,-12.14063 28.94922,-15.51563c1.64844,-0.5039 0.94531,-3.09765 -0.71484,-2.59375c-11.35547,3.45313 -19.88672,8.96094 -29.58985,15.78907c-1.40234,0.98828 -0.0625,3.3164 1.35547,2.32031"/>
    </g>
    <g stroke="null" id="svg_25">
     <path stroke="null" id="svg_42" fill="#100f0d" d="m1767.91103,2148.34275c-0.29688,0.1836 -0.47266,0.42578 -0.5625,0.6875c-0.01563,0.03907 -0.03907,0.07032 -0.05469,0.11328c-4.67969,12.57032 -9.95313,24.90235 -15.89844,36.92188c-2.7539,5.57031 -5.64453,11.07031 -8.66406,16.5c-0.53906,0.96875 -1.16797,2.21094 -1.87891,3.57422c-3.625,-3.28906 -1.96093,-10.07031 -1.30859,-14.08594c0.78516,-4.83594 1.60937,-9.66406 2.47266,-14.48047c1.73046,-9.64453 3.6289,-19.25 5.66406,-28.83203c0.01562,-0.08203 0.01953,-0.16016 0.02344,-0.23437c1.41796,-0.09375 2.84765,-0.07422 4.30078,0.0664c0.2539,0.02344 0.45703,-0.02734 0.63672,-0.10937c0.44531,-0.07813 0.86718,-0.34766 1.08203,-0.86328c7.96484,-19.42969 19.12109,-37.31641 32.83593,-52.99219c2.52344,9.07031 6.50782,17.625 12.13282,25.22656c1.3789,1.86328 3.05078,3.91016 4.94922,5.64844c-11.78516,7.82031 -23.72657,15.39062 -35.73047,22.85937zm26.78515,-13.66406c11.41016,0.74609 22.79297,1.78516 34.14063,3.19531c3.05469,0.38282 6.10547,0.78907 9.15234,1.21875c-19.12109,7.71094 -40.28125,10.56641 -60.59375,6.48438c5.74219,-3.60938 11.46094,-7.25 17.15625,-10.9375c0.05078,0.01172 0.08985,0.03906 0.14453,0.03906zm-84.14453,0.89844c0.65235,-1.46875 1.23828,-2.92188 1.78906,-4.22656c4.21094,-9.94922 7.04688,-20.33204 8.72266,-30.98829c14.38672,6.82422 28.54688,14.22266 42.77344,21.07032c-3.45703,5.82031 -6.61328,11.83203 -9.45703,18.01562c-14.67969,-0.5625 -29.25782,-2.0625 -43.82813,-3.87109zm181.00781,-118.57422c-1.72656,0.02734 -1.73046,2.71484 0,2.68359c4.22657,-0.07812 7.5586,-0.62109 10.99219,2.61719c5.37891,5.07031 2.89063,10.31641 0.21875,15.81641c-3.57031,7.35547 -8.3125,14.0625 -13.70312,20.1914c-10.30469,11.72266 -22.58594,21.49219 -34.10547,31.94922c-10.19141,9.78906 -20.9375,18.97656 -31.27735,28.60156c-2.92968,2.72657 -7.1289,8.05079 -11.38281,8.0625c-1.96875,0.00391 -3.79297,-0.80859 -5.45312,-2.02734c-0.17578,-0.28125 -0.4375,-0.49609 -0.74219,-0.58203c-2.82031,-2.33984 -5.125,-5.76953 -6.79297,-8.21484c-4.97266,-7.28516 -8.44141,-15.36329 -10.625,-23.88672c10.82422,-11.96094 23.16016,-22.57813 36.75781,-31.49219c1.44141,-0.94531 0.09766,-3.26953 -1.35547,-2.32031c-23.96093,15.70703 -44.0039,36.51562 -58.85156,60.73437c-39.10937,-18.8164 -77.60156,-41.60156 -121.67969,-45.74219c-1.71875,-0.16015 -1.70703,2.52735 0,2.6875c26.5625,2.4961 51.11329,11.91407 74.99219,23.10157c-1.30859,8.52343 -3.33203,16.89062 -6.26953,25.00781c-1.39453,3.85547 -2.90234,7.75391 -4.76953,11.42969c-0.13672,0.14453 -0.22266,0.33203 -0.27344,0.53125c-0.21094,0.41015 -0.40625,0.83203 -0.63281,1.23437c-1.09766,1.97656 -2.40625,4.1836 -4.44531,5.33985c-3.17578,1.80078 -7.46485,0.1875 -10.65625,-0.76954c-16.88282,-5.07812 -33.0625,-12.2539 -48.35547,-20.99609c-20.6875,-9.95312 -43.61328,-17.46484 -55.9375,-38.35547c-3.58985,-6.08984 -7.32031,-13.08984 -6.08594,-20.35937c1.54688,-9.15625 8.22656,-13.14453 16.4375,-15.8086c16.01563,-5.20312 32.62109,-4.72265 49.00391,-1.6875c1.6914,0.3125 2.41406,-2.27343 0.71484,-2.58984c-18.32031,-3.39453 -36.86719,-3.60156 -54.49609,3.12109c-12.10157,4.60938 -17.56641,16.82032 -12.67578,28.94141c4.86328,12.03906 12.75,22.24609 23.39453,29.69531c11.73437,8.20703 25.46093,13.1875 38.28906,19.35938l0.00391,0c9.34375,5.34375 18.98828,10.09375 28.95703,14.15234c4.59375,1.875 9.25,3.59766 13.95703,5.17188c4.53515,1.51953 9.82031,3.94531 14.70703,3.63281c4.82422,-0.30469 7.77344,-3.99219 9.91797,-8.1211c14.58984,1.82422 29.17969,3.35547 43.87109,3.96875c-0.55469,1.25391 -1.10156,2.51172 -1.63281,3.77735c-4.10938,-0.33203 -8.125,0.21094 -12.00781,1.63672c-0.51563,0.1875 -0.79297,0.58593 -0.87891,1.01562c-0.28516,0.14453 -0.53125,0.39063 -0.66406,0.76172c-7.90625,21.99609 -12.88672,44.80078 -14.92578,68.07813c-0.04688,0.54296 0.19922,0.89453 0.54687,1.08984c-0.0039,0.41406 0.1836,0.82422 0.64844,1.09766c12.24219,7.17578 20.41406,-14.8125 24.41797,-22.35938c8.01953,-15.11328 14.97265,-30.75 20.96094,-46.77344c1.29296,-0.80468 2.58203,-1.61328 3.87109,-2.41797c0.01562,0.04297 0.02734,0.08985 0.05469,0.13672c1.29687,2.5586 1.53515,5.73438 3.58593,7.8711c0.35157,0.37109 0.76563,0.46093 1.14454,0.3789c0.15234,0.07422 0.33203,0.125 0.53515,0.13282c26.53125,1.25781 53.02344,-0.73438 79.07422,-5.90235c3.375,-0.82812 8.51953,-2.35547 6.86328,-7.04687c-1.83984,-5.21485 -12.29297,-4.94141 -16.36719,-5.58985c-16.64062,-2.65234 -33.38281,-4.53125 -50.1875,-5.72265c2.53516,-1.65235 5.0625,-3.31641 7.58204,-4.99219c3.15625,2.20703 6.79687,3.25391 10.71875,1.29687c3.48437,-1.73828 6.21875,-5.16796 9.03515,-7.78906c3.34766,-3.11328 6.73828,-6.17969 10.13672,-9.24609c7.08984,-6.40235 14.24609,-12.73438 21.13672,-19.35156c15.14844,-13.75 31.92187,-26.5 43.21875,-43.84375c3.83203,-5.88282 10.54297,-15.44922 7.92969,-22.85547c-2.72266,-7.71485 -9.4961,-8.58594 -16.44532,-8.46094"/>
    </g>
    <g stroke="null" id="svg_24">
     <path stroke="null" id="svg_43" fill="#100f0d" d="m1962.2704,1902.82322c17.14453,7.28906 -11.70312,34.67188 8.3711,42.26172c1.61718,0.60938 2.3164,-1.98437 0.71484,-2.58984c-17.08984,-6.46094 11.14844,-33.96485 -7.72656,-41.98828c-1.57422,-0.67188 -2.94532,1.64062 -1.35938,2.3164"/>
    </g>
    <g stroke="null" id="svg_23">
     <path stroke="null" id="svg_44" fill="#100f0d" d="m1976.17665,1906.38572c13.58203,6.57422 -7.26562,26.67969 4.8086,36.28516c1.33984,1.0664 3.25,-0.82422 1.89843,-1.89844c-11.52734,-9.16797 10.55078,-29.00781 -5.35156,-36.70703c-1.55078,-0.75 -2.91406,1.56641 -1.35547,2.32031"/>
    </g>
    <g stroke="null" id="svg_22">
     <path stroke="null" id="svg_45" fill="#100f0d" d="m1955.05556,1947.79588c1.14062,1.30469 3.03125,-0.60156 1.89844,-1.89844c-3.3086,-3.79297 -5.19141,-8.39844 -5.19532,-13.46094c0,-4.23828 1.84766,-7.39453 3.33594,-11.23437c1.66797,-4.30469 2.25781,-8.98047 -1.74219,-12.13672c-1.34375,-1.05859 -3.2539,0.82812 -1.89843,1.89844c5.8125,4.58984 -2.34375,15.29687 -2.38282,21.47265c-0.03515,5.8125 2.21094,11.03516 5.98438,15.35938"/>
    </g>
    <g stroke="null" id="svg_21">
     <path stroke="null" id="svg_46" fill="#100f0d" d="m1757.13759,2050.10057c0.14844,0.14453 0.3125,0.24218 0.47266,0.30468c0.44921,0.25782 1.0039,0.24219 1.42578,-0.30468c7.48047,-9.66797 17.25,-16.98047 27.47265,-23.53516c4.51953,-2.89453 9.16016,-5.59375 13.71875,-8.42578c1.62891,-1.01172 4.33985,-3.46485 6.42969,-3.40625c2.07422,0.05859 5.19141,3.04297 6.40625,4.49219c1.11328,1.32421 3.00391,-0.58594 1.89844,-1.89844c-1.94531,-2.32031 -5.70703,-5.50391 -8.94141,-5.30078c-2.05469,0.1289 -4.20312,1.93359 -5.84765,2.96875c-3.0586,1.92187 -6.16407,3.75781 -9.24219,5.64453c-12.07031,7.39844 -24.03516,15.42578 -32.98047,26.55078c-10.04688,-9.32813 -22.33203,-15.62109 -35.13672,-20.36328c-3.89062,-1.44141 -8.90234,-3.64063 -13.0625,-4.01953c-4.36328,-0.39453 -7.01172,4.91406 -9.30469,7.85547c-1.05078,1.34375 0.83594,3.25781 1.89844,1.89453c2.86328,-3.66016 4.60547,-7.74219 9.63672,-6.28516c4.38281,1.26953 8.70703,2.55078 12.94141,4.25781c11.83203,4.77344 22.96875,10.64063 32.21484,19.57032"/>
    </g>
    <g stroke="null" id="svg_20">
     <path stroke="null" id="svg_47" fill="#100f0d" d="m1690.11025,2074.81541c-0.10938,0 -0.19532,0.03516 -0.29297,0.05469c-0.01953,0 -0.03907,-0.00782 -0.0625,-0.00391c-1.88672,0.25781 0.26172,-9.85156 0.44922,-10.82031c0.52343,-2.69922 1.99218,-9.1211 6.29687,-6.4961c0.13672,0.08594 0.27344,0.13282 0.40234,0.16407c2.71094,0.92187 5.42969,1.82422 8.14454,2.73047c0.65234,0.21875 2.07031,0.51953 3.125,0.89062c-5.04297,0.90625 -10.08594,1.01563 -15.1836,0.37109c-1.70703,-0.21875 -1.6914,2.46875 0,2.6836c5.64063,0.71484 11.19141,0.48828 16.76172,-0.61719c0.23047,-0.04687 0.41016,-0.13672 0.55469,-0.25c0.03906,0.16406 0.0625,0.32813 0.07031,0.49609c-0.12891,0.02344 -0.26172,0.0586 -0.39453,0.125c-5.36328,2.64454 -11.01563,4.19922 -16.97266,4.66407c-1.71484,0.13672 -1.72656,2.82422 0,2.6875c5.63282,-0.44141 11.01172,-1.77735 16.14844,-4.02344c-0.42578,0.64453 -0.88672,1.21484 -1.26172,1.65625c-4.72656,5.54687 -11.04687,5.875 -17.78515,5.6875zm7.57421,-19.67188c-5.78515,-3.35156 -9.17187,3.52344 -10.07031,8.1875c-0.64453,3.36329 -4.38281,14.6836 2.44922,14.16016c0.01563,0 0.03125,0.01172 0.04688,0.01172c8.97656,0.24609 17.51171,-1.32813 22.1289,-9.99219c1.38281,-2.59375 2.17188,-5.82031 -0.75781,-7.625c-3.85156,-2.37109 -9.48828,-3.30078 -13.79688,-4.74219"/>
    </g>
    <g stroke="null" id="svg_19">
     <path stroke="null" id="svg_48" fill="#100f0d" d="m1763.66493,1924.82322c1.45313,-0.92969 0.10938,-3.2539 -1.35156,-2.32031c-6.19531,3.95312 -14.85547,4.57812 -20.89453,0c-1.37891,-1.04297 -2.71484,1.28906 -1.35547,2.32031c6.74219,5.10938 16.69141,4.41016 23.60156,0"/>
    </g>
    <g stroke="null" id="svg_18">
     <path stroke="null" id="svg_49" fill="#100f0d" d="m1956.6454,1961.29978c6.86719,-2 14.5586,-1.53906 21.625,-1.33203c3.09375,-0.03515 6.69531,-0.28125 9.64453,0.79688c1.20703,0.4414 2.82422,0.92578 2.96094,2.34375c0.15625,1.59375 -3.70703,1.19922 -5.07812,1.30469c-7.00782,0.52734 -14.05079,0.69531 -21.07422,0.54687c-3.00782,-0.0625 -6.00782,-0.125 -8.99219,-0.5625c-0.32813,-0.04687 -3.29688,-0.24609 -3.63281,-0.65625c-1.17969,-1.45312 2.95703,-1.97656 4.54687,-2.44141zm34.82422,44.05469c-1.8125,2.89453 -5.44922,3.44531 -8.55469,3.8125c-5.72656,-7.76953 -3.49609,-17.7539 -1.10937,-26.39453c1.32031,-0.68359 2.6914,-1.21875 4.13281,-1.58984c4.85938,1.1289 7.00391,3.57422 6.43359,7.33593c0.41797,2.4336 0.01563,5.30469 0.02344,7.78516c0.00391,2.64844 0.52735,6.73047 -0.92578,9.05078zm1.46875,2.50781c3.46875,-4.10156 2.14063,-11.13671 2.12891,-16.00781c-0.00782,-3.42578 0.70703,-7.89844 -1.39453,-10.82031c0.42968,-5.60156 0.46093,-11.22266 0.86328,-16.82422c2.41015,-6.51953 -13.57422,-6.95703 -16.26563,-6.92578c-6.125,-0.18359 -12.28515,-0.32031 -18.35547,0.64453c-3.26953,0.51953 -9.03906,1.11719 -10.91406,4.51953c-0.25781,0.47266 -0.38672,0.89844 -0.41406,1.28516c-0.07813,0.17187 -0.1211,0.36719 -0.10938,0.59765c0.4961,9.61329 1.98047,19.01563 4.49219,28.3086c0.01563,0.07031 0.04297,0.125 0.06641,0.1875c-1.44532,1.11328 -2.85938,2.27734 -4.26172,3.45703c-11.49219,0.30859 -22.98828,0.61328 -34.48047,0.92187c-1.72656,0.04688 -1.73047,2.73047 0,2.6836c11.47656,-0.30469 22.95703,-0.61328 34.43359,-0.91797c0.41797,0.13281 0.89453,0.08203 1.3086,-0.26953c5.32031,-4.53906 10.99609,-8.53906 16.99218,-12.09375c-2.20312,5.57031 -6.42187,9.90625 -12.08203,12.3789c-0.61718,0.26954 -0.78125,0.78516 -0.66406,1.27344c0.00391,0.07031 -0.01953,0.13281 -0.00781,0.20703c0.3125,2.125 0.65625,4.23438 1.04297,6.33594c-14.13282,-0.02344 -28.21094,2.49609 -42.03125,5.22266c-1.69532,0.33203 -0.97657,2.92187 0.71093,2.58984c13.64454,-2.69141 27.4961,-5.16406 41.44141,-5.12891c0.15234,0 0.26953,-0.04296 0.39063,-0.07812c1.15234,5.62891 2.66796,11.16406 4.79687,16.54687c-0.01562,0.40625 0.1875,0.80079 0.69922,1.02344c8.96875,3.85156 17.77734,4.45313 26.83594,0.74219c0.2539,-0.01563 0.48047,-0.12891 0.66797,-0.30078c0.39062,-0.26953 0.50781,-0.66797 0.43359,-1.0586c1,-5.7539 1.92578,-11.53125 2.46875,-17.35156c0.42969,-0.33984 0.83984,-0.71094 1.20703,-1.14844"/>
    </g>
   </g>
  </g>
 </g>
</svg>