<svg id="Componente_46_1" data-name="Componente 46 – 1" xmlns="http://www.w3.org/2000/svg" width="860.987" height="616.27" viewBox="0 0 860.987 616.27">
  <g id="Grupo_2" data-name="Grupo 2" transform="translate(-444.818 106.565)">
    <g id="Bottom_Standing_Baggy_Pants" data-name="Bottom/Standing/Baggy Pants" transform="translate(524.154 382.918)">
      <path id="Leg" d="M0,0,21.243,53.6,35.491,98.906h5.626L19.336,0Z" transform="translate(50.262)" fill="#997659"/>
      <path id="Leg-2" data-name="Leg" d="M40.443,0c-.226,18.834-3.525,44.191-4.052,45.365S0,75.224,0,75.224l3.875,4.134S46.191,54.763,48.149,51.483,56.482,18.018,61.6,0Z" transform="translate(5.541)" fill="#b28b67"/>
      <g id="Right_Shoe" data-name="Right Shoe" transform="translate(0 71.083)">
        <path id="shoe" d="M1.936,2.36a.866.866,0,0,0-1.11.582L0,5.843A27.631,27.631,0,0,0,.39,9.249H24.8s.952-3.136-1.1-3.386S20.3,5.412,20.3,5.412L8.951.369A.433.433,0,0,0,8.374.6L7.645,2.363a9.833,9.833,0,0,1-3.084.883Z" transform="translate(82.443 22.853)" fill="#e4e4e4"/>
        <path id="shoe-2" data-name="shoe" d="M1.936,2.028a.866.866,0,0,0-1.11.582L0,5.511A27.631,27.631,0,0,0,.39,8.917H24.8s.952-3.136-1.1-3.386S20.3,5.08,20.3,5.08L8.951.038a.433.433,0,0,0-.576.23L7.645,2.031a9.833,9.833,0,0,1-3.084.883Z" transform="translate(6.73 0) rotate(49)" fill="#e4e4e4"/>
      </g>
      <path id="Pant" d="M17.034,94.239l26.75-2.894L23.959,0H0Z" transform="translate(47.511 0)" fill="#69a1ac"/>
      <path id="Pant-2" data-name="Pant" d="M0,68.555l17.546,20.7S45.268,59.077,49.87,49.872,58.144,0,58.144,0H31.171s-2.006,35.777-2.7,37.442S0,68.555,0,68.555Z" transform="translate(11.074)" fill="#89c5cc"/>
    </g>
    <path id="Arm" d="M1.464,0l23.47,9.146A54.652,54.652,0,0,1,39.7,10.931c1.049.542,2.484,1.825-1.084,2.493s-7.291,1.531-7.454,2.853,2.335,2.181,1.791,4.051q-.544,1.87-11.376-5.6L0,11.878Z" transform="matrix(0.999, 0.035, -0.035, 0.999, 611.185, 354.842)" fill="#b28b67"/>
    <path id="Coat_Back" data-name="Coat Back" d="M7.959,0C22.792,15.12,40.889,24.982,65.574,33.725l-5.489,10.5C34.613,41.937,21,40.107,10.328,24.962,7.65,21.161,2.866,8.08,0,1.287Z" transform="matrix(0.999, 0.035, -0.035, 0.999, 566.867, 325.591)" fill="#1b0ab1"/>
    <g id="Head" transform="translate(567.909 283.58)">
      <path id="Head-2" data-name="Head" d="M0,45,5.115,21.261C2.262,17.927.332,13.84.654,9.262,1.584-3.93,20.025-1.028,23.612,5.63s3.161,23.547-1.475,24.737c-1.849.475-5.788-.688-9.8-3.094L14.857,45Z" transform="translate(-0.152 -0.488)" fill="#b28b67"/>
    </g>
    <path id="Hair" d="M6.536,29.07C4.646,20.662-.737,14.932.085,11.174A6.4,6.4,0,0,1,4.468,6.5S6.309-.949,16.346.163,32.509,5.444,29.863,14.616c-2.432,0-5.368-.879-9.427.627-1.932.717-2.764,4.448-2.764,4.448H15.838s-2.671-4.427-5.267-3.254-1.18,5.7-1.18,5.7l-.9,6.932Z" transform="translate(565.3 279.365)" fill="#191847"/>
    <g id="Body_Pointing_Up" data-name="Body/Pointing Up" transform="translate(550.949 311.24)">
      <path id="Skin" d="M0,13.154,21.2,6.8A48.055,48.055,0,0,1,32.4.063c1.02-.192,2.708-.08.6,2.308s-4.221,4.995-3.619,6,2.8.246,3.432,1.833q.635,1.586-10.909,2.272L5.414,22.153Z" transform="translate(62.39 0)" fill="#b28b67"/>
      <path id="Shirt" d="M0,63.636H43.075S28.439,19.1,28.122,2.5c-.011-.564-1.055-1.558-1.517-1.428C21.538,2.5,15.76,0,15.76,0,5.548,16.388,2.017,36.565,0,63.636Z" transform="translate(5.634 11.847)" fill="#f2f2f2"/>
      <path id="Coat_Front" data-name="Coat Front" d="M.795,82.4C-2.852,57.933,6.735,24.016,15.623,6.909a3.03,3.03,0,0,1,2.764-1.885H25.06l.009.027c2.249.018,4.753.108,7.484.2,12.263.4,29.1.8,48-5.248l2.281,11.373C65.372,22.579,47.691,31.26,32.2,30.027c6.727,28.8,6.417,52.369-8.436,52.369Z" transform="translate(0 6.824)" fill="#1c03fc"/>
    </g>
  </g>
  <g id="Grupo_4" data-name="Grupo 4" transform="translate(-1565.277 -33.343)">
    <path id="path554" d="M209.744-280c4.545,2.623,4.568,6.877.056,9.5L84.08-197.435c-4.515,2.624-11.859,2.624-16.4,0L8.949-231.34c-4.544-2.624-4.568-6.878-.053-9.5L134.615-313.9c4.513-2.623,11.858-2.623,16.4,0L209.744-280" transform="translate(1559.928 565.943)" fill="#f0441d"/>
    <path id="path556" d="M213.087-258.372c0,.059-.006.116-.012.175s-.012.1-.019.152-.016.115-.027.173-.021.1-.032.154-.026.113-.041.169-.029.1-.045.152-.035.113-.055.168-.037.1-.057.15-.048.117-.074.175-.044.1-.069.148-.059.115-.089.174l-.079.14c-.04.069-.083.137-.128.205-.026.042-.052.083-.08.124-.052.076-.107.15-.165.225-.024.032-.046.065-.072.1-.094.118-.195.235-.3.351l-.085.088c-.084.088-.171.175-.263.261l-.126.117c-.055.049-.111.1-.167.146s-.105.09-.16.133-.12.095-.182.142-.114.087-.172.13-.129.092-.195.137-.123.084-.186.126-.139.089-.209.132c-.089.055-.177.111-.269.165L84.008-180.8c-.251.147-.515.281-.783.412l-.213.1q-.364.167-.744.317c-.033.012-.065.027-.1.04-.272.1-.551.2-.833.286-.2.061-.4.115-.6.17-.151.042-.3.085-.456.123-.211.051-.426.093-.64.136-.156.032-.311.068-.469.1-.065.011-.131.021-.2.031q-.4.065-.8.114l-.235.028c-.312.033-.626.061-.942.079l-.174.009c-.325.016-.651.027-.977.027h-.1c-.244,0-.487-.01-.729-.02-.2-.008-.392-.018-.588-.031-.179-.013-.358-.028-.536-.045-.194-.019-.387-.04-.58-.064-.255-.033-.511-.066-.763-.108l-.058-.009c-.32-.055-.637-.121-.951-.192l-.151-.034q-.444-.106-.874-.235c-.082-.025-.163-.05-.244-.077q-.358-.112-.705-.24c-.067-.025-.135-.048-.2-.074-.21-.081-.412-.171-.614-.261-.1-.044-.2-.084-.3-.132-.292-.138-.577-.286-.851-.444L8.877-214.706c-2.286-1.321-3.429-3.053-3.424-4.784l-.176,62c-.005,1.729,1.137,3.463,3.424,4.783L67.428-118.8h0l.025.013.1.058v-.006c.236.133.476.26.726.38.1.045.2.085.3.129.173.078.344.157.523.228.03.013.063.022.094.034.066.026.134.048.2.074q.347.128.706.241l.245.076c.055.016.108.035.164.05.234.067.471.127.71.183.05.013.1.023.151.034.116.028.231.055.349.079q.3.061.6.114l.056.009q.245.042.492.078c.09.013.182.019.272.031q.288.035.579.064c.092.009.183.023.276.031s.174.007.26.013c.2.013.391.024.588.033.1,0,.2.013.295.015.145,0,.29,0,.435,0h.1q.329,0,.656-.011c.107,0,.214-.01.321-.016l.174-.008c.265-.016.529-.035.791-.062.051,0,.1-.012.151-.017.079-.009.157-.019.235-.028q.4-.048.8-.113c.066-.01.132-.02.2-.032l.094-.015c.126-.023.248-.054.373-.079.215-.044.431-.086.642-.137.154-.038.3-.081.456-.123.2-.055.4-.109.6-.17.042-.013.086-.023.128-.037q.359-.116.7-.249c.034-.013.066-.028.1-.041q.38-.148.743-.317c.072-.033.143-.065.213-.1.268-.13.531-.264.783-.411l125.72-73.061.141-.083.128-.081c.071-.044.142-.088.209-.132s.125-.083.186-.126.132-.091.195-.137.116-.086.173-.13.122-.095.181-.142.108-.089.161-.133.112-.1.167-.146l.068-.06c.021-.019.038-.039.059-.058.091-.086.178-.173.262-.261l.085-.088q.16-.175.3-.352l.012-.014c.022-.027.039-.055.06-.082.058-.075.114-.15.165-.225.028-.041.054-.082.08-.124.044-.068.088-.136.128-.206l.035-.055c.015-.028.027-.057.044-.084.031-.059.061-.116.09-.175s.046-.1.068-.147.05-.116.074-.175c.01-.026.024-.053.033-.079s.015-.048.024-.072c.02-.056.038-.112.056-.167s.031-.1.044-.152.028-.114.042-.17c.007-.03.016-.061.022-.091s.006-.042.009-.062c.011-.058.02-.115.027-.173s.014-.1.02-.152.009-.117.012-.175c0-.034.007-.068.008-.1s0-.069,0-.1l.176-62c0,.068-.006.136-.009.2" transform="translate(1560 549.308)" fill="#d64620"/>
    <path id="path558" d="M211.052-210.8c-5.72,3.846-12.005,6.862-17.929,10.381-8.441,5.014-16.434,10.727-24.772,15.9-8.728,5.419-18.083,9.626-26.945,14.8-8.973,5.242-17.518,11.224-26.665,16.162-4.241,2.29-8.844,4.155-12.919,6.72-3.647,2.295-6.87,5.224-10.607,7.38-4.7,2.711-10.335,4.648-15.835,4.341a38.529,38.529,0,0,1-15.345-4.339c-6.87-3.416-12.826-8.484-19.815-11.658-6.667-2.721-13.382-5.353-19.394-9.391A77.35,77.35,0,0,1,5.363-174.28l-.086,30.266c-.005,1.729,1.137,3.463,3.424,4.783l58.727,33.905h0l.025.013.1.058v-.006c.236.133.476.26.726.38.1.045.2.085.3.129.173.077.344.157.523.228.03.013.063.022.094.034.066.026.134.048.2.074q.347.128.706.241l.245.076c.055.016.108.035.164.05.234.067.471.127.71.183.05.013.1.023.151.034.116.028.231.055.349.079q.3.061.6.114l.056.009q.245.042.492.078c.09.013.182.019.272.031q.288.035.579.064c.092.009.183.023.276.031s.174.007.26.013c.2.013.391.024.588.033.1,0,.2.013.295.015.145,0,.29,0,.435,0h.1q.329,0,.656-.011c.107,0,.214-.01.321-.016l.174-.008c.265-.016.529-.035.791-.062.051,0,.1-.012.151-.017.079-.009.157-.019.235-.028q.4-.048.8-.113c.066-.01.132-.02.2-.031l.094-.015c.126-.023.248-.054.373-.079.215-.044.431-.086.642-.137.154-.038.3-.081.456-.123.2-.055.4-.109.6-.17.042-.013.086-.024.128-.037q.359-.116.7-.249c.034-.013.066-.028.1-.041.254-.1.5-.2.743-.317.072-.033.143-.065.213-.1.268-.13.531-.264.783-.411l125.72-73.061.141-.083.128-.081c.071-.044.142-.088.209-.132s.125-.083.186-.126.132-.091.195-.137.116-.086.173-.13.122-.095.181-.142.108-.089.161-.133.112-.1.167-.146l.068-.06c.021-.019.038-.039.059-.058.091-.086.178-.173.262-.261l.085-.088q.16-.175.3-.352l.012-.014c.022-.027.039-.055.06-.082.058-.075.114-.15.165-.225.028-.041.054-.082.08-.124.044-.068.088-.136.128-.206l.035-.055c.015-.028.027-.057.044-.084.031-.059.061-.116.09-.175s.046-.1.068-.147.05-.116.074-.175c.01-.027.024-.053.033-.079s.015-.048.024-.072c.02-.056.038-.112.056-.167s.031-.1.044-.153.028-.113.042-.169c.007-.03.016-.061.022-.091s.006-.042.009-.062c.011-.058.02-.115.027-.173s.014-.1.02-.152.009-.117.012-.175c0-.034.006-.068.008-.1s0-.068,0-.1L213-212.178q-.955.71-1.951,1.38" transform="translate(1560 535.837)" fill="#4191c4"/>
    <path id="path560" d="M213.087-220.7c0,.058-.006.116-.012.174s-.012.1-.019.153-.016.115-.027.173-.021.1-.032.153-.026.114-.041.169-.029.1-.045.152-.035.113-.055.168-.037.1-.057.15-.048.116-.074.175-.044.1-.069.147-.059.116-.089.174-.052.094-.079.141c-.04.068-.083.137-.128.205-.026.042-.052.083-.08.124-.052.076-.107.15-.165.225-.024.032-.046.064-.072.1-.094.119-.195.236-.3.351l-.085.089c-.084.088-.171.175-.263.261l-.126.117c-.055.049-.111.1-.167.146s-.105.089-.16.133-.12.095-.182.142-.114.086-.172.129-.129.093-.195.138-.123.084-.186.126-.139.088-.209.132c-.089.055-.177.111-.269.165L84.008-143.133c-.251.146-.515.281-.783.411l-.213.1c-.242.112-.49.219-.744.318l-.1.04c-.272.1-.551.2-.833.286-.2.062-.4.115-.6.169-.151.042-.3.086-.456.123-.211.052-.426.094-.64.137-.156.032-.311.068-.469.095-.065.013-.131.021-.2.032q-.4.065-.8.113c-.078.01-.156.02-.235.028q-.468.05-.942.079l-.174.009c-.325.016-.651.027-.977.027h-.1c-.244,0-.487-.011-.729-.021q-.295-.011-.588-.031c-.179-.013-.358-.027-.536-.045q-.291-.028-.58-.065c-.255-.032-.511-.065-.763-.107l-.058-.01c-.32-.056-.637-.121-.951-.192l-.151-.035c-.3-.07-.587-.15-.874-.235-.082-.024-.163-.05-.244-.076q-.358-.112-.705-.241c-.067-.024-.135-.047-.2-.073-.21-.081-.412-.171-.614-.261-.1-.044-.2-.085-.3-.132-.292-.139-.577-.286-.851-.444L8.877-177.039c-2.286-1.32-3.429-3.053-3.424-4.784L5.277-171.15c-.005,1.731,1.137,3.464,3.424,4.784l58.727,33.9v0l.025.013.1.058v-.006c.236.132.476.26.726.378.1.047.2.086.3.131.173.077.344.157.523.227.03.013.063.023.094.035.066.025.134.048.2.073q.347.129.706.241l.245.077c.055.016.108.035.164.05.234.067.471.127.71.183.05.013.1.023.151.034.116.027.231.055.349.08q.3.061.6.113l.056.009c.163.027.327.054.492.078.09.013.182.019.272.03q.288.037.579.065c.092.009.183.023.276.03s.174.009.26.014c.2.013.391.024.588.031.1,0,.2.013.295.016.145,0,.29,0,.435,0h.1c.219,0,.438,0,.656-.01.107,0,.214-.01.321-.016l.174-.009c.265-.016.529-.035.791-.062.051,0,.1-.012.151-.018.079-.008.157-.018.235-.028q.4-.048.8-.113l.2-.031.094-.015c.126-.023.248-.054.373-.079.215-.044.431-.087.642-.137.154-.038.3-.081.456-.123.2-.055.4-.109.6-.17.042-.014.086-.024.128-.037q.359-.117.7-.249l.1-.041c.253-.1.5-.206.743-.317l.213-.1c.268-.13.531-.265.783-.411l125.72-73.062c.047-.027.095-.055.141-.083s.085-.054.128-.08c.071-.044.142-.088.209-.132s.125-.084.186-.126.132-.091.195-.137l.173-.131c.062-.046.122-.094.181-.141s.108-.089.161-.133.112-.1.167-.146l.068-.06c.021-.019.038-.039.059-.058.091-.086.178-.173.262-.261.028-.029.058-.059.085-.089q.16-.173.3-.351l.012-.014c.022-.027.039-.055.06-.082.058-.075.114-.149.165-.225.028-.041.054-.082.08-.124.044-.068.088-.136.128-.206l.035-.056c.015-.027.027-.056.044-.084.031-.058.061-.115.09-.174s.046-.1.068-.147.05-.116.074-.175c.01-.027.024-.053.033-.079s.015-.048.024-.072c.02-.056.038-.112.056-.167s.031-.1.044-.153.028-.113.042-.169c.007-.03.016-.061.022-.091s.006-.042.009-.062c.011-.058.02-.115.027-.173s.014-.1.02-.153.009-.116.012-.174c0-.035.007-.069.008-.1s0-.068,0-.1l.176-10.674c0,.069-.006.137-.009.205" transform="translate(1560 538.372)" fill="#e5d7ae"/>
  </g>
  <g id="Grupo_1" data-name="Grupo 1" transform="matrix(0.819, -0.574, 0.574, 0.819, -12084.8, 9302.246)">
    <path id="path320" d="M480.848-94.972,931.5-44.042c11.272,1.279,19.815,13.461,18.982,27.081h0c-.831,13.62-10.732,23.719-22,22.445L477.823-45.451,404.2-74.845c-3.01-1.2-2.648-7.155.467-7.666l76.179-12.46" transform="translate(14942.333 -132.668)" fill="#fbf7e0"/>
    <path id="path322" d="M444.442-45.551l.047.021L895.139,5.4c11.272,1.274,21.173-8.825,22-22.445s-7.71-25.8-18.982-27.081l-449.494-50.8c-.728,11.9-4.839,22.291-10.921,29.641a53.152,53.152,0,0,1,6.7,19.73" transform="translate(14975.665 -132.588)" fill="#e9d144"/>
    <path id="path324" d="M917.143-25.514a29.541,29.541,0,0,0-1.471-11.157l-469.5-53.066a47.03,47.03,0,0,1-8.422,15.983,48.526,48.526,0,0,1,3.216,6.707L913.7-13.616a27.58,27.58,0,0,0,3.443-11.9" transform="translate(14975.665 -124.116)" fill="#ffed82"/>
    <path id="path326" d="M726.028-44.207c.834-13.62-7.71-25.8-18.982-27.081L645-78.3c-1.074,8.021-1.892,16.247-2.406,24.66s-.7,16.713-.617,24.862l62.042,7.013c11.272,1.274,21.173-8.825,22-22.445" transform="translate(15166.783 -105.423)" fill="#93b3b8"/>
    <path id="path328" d="M404.2-81.208,421.753-74.2c.653-.941,1.334-1.847,2.044-2.707a51.6,51.6,0,0,1-5.655-14.169l-13.473,2.2c-3.116.512-3.477,6.466-.467,7.666" transform="translate(14942.333 -126.305)" fill="#274351"/>
    <path id="path330" d="M697.244-48.378c.834-13.62-7.71-25.8-18.982-27.081l-2.517-.285c-.991,7.791-1.776,16.067-2.3,24.676s-.756,16.945-.725,24.851l2.519.284c11.272,1.274,21.173-8.825,22-22.445" transform="translate(15195.565 -101.251)" fill="#ff7ab2"/>
    <path id="path332" d="M669.146-51.164c.534-8.706.95-17.033,1.265-24.79l-7.746-.874c-.63,7.718-1.229,16.02-1.76,24.73s-.955,17.04-1.267,24.791l7.753.878c.63-7.715,1.224-16.043,1.755-24.735" transform="translate(15183.323 -103.024)" fill="#6b8387"/>
    <path id="path334" d="M660.146-51.911c.534-8.706.95-17.033,1.262-24.791l-7.743-.875c-.63,7.723-1.231,16.026-1.76,24.732s-.955,17.044-1.267,24.791l7.754.878c.63-7.713,1.223-16.038,1.755-24.735" transform="translate(15174.9 -104.247)" fill="#6b8387"/>
    <path id="path336" d="M681.2-50.061c.531-8.7.914-17.044,1.161-24.8l-11.094-1.258c-.7,7.708-1.334,16.022-1.866,24.725s-.916,17.043-1.162,24.8l11.1,1.254c.7-7.7,1.332-16.025,1.861-24.724" transform="translate(15191.371 -101.859)" fill="#6b8387"/>
    <path id="path338" d="M649.087-27.971c.63-7.713,1.223-16.04,1.753-24.734s.952-17.031,1.265-24.788l-7.1-.8c-1.074,8.021-1.892,16.247-2.406,24.66s-.7,16.713-.617,24.862l7.106.8" transform="translate(15166.783 -105.423)" fill="#6b8387"/>
  </g>
  <g id="Grupo_12" data-name="Grupo 12" transform="translate(-14304.062 -218.343)">
    <g id="Grupo_11" data-name="Grupo 11" transform="translate(-1764.447 -119.486)">
      <g id="Grupo_10" data-name="Grupo 10" transform="translate(16573.094 567.332)">
        <g id="Grupo_9" data-name="Grupo 9" transform="translate(0)">
          <g id="humaaan-12" transform="translate(0)">
            <g id="Head_Front" data-name="Head/Front" transform="matrix(0.966, 0.259, -0.259, 0.966, 40.434, -19)">
              <g id="Head-3" data-name="Head" transform="matrix(0.966, -0.259, 0.259, 0.966, 2.666, 16.689)">
                <path id="Head-4" data-name="Head" d="M0,0,4.226,19.125A13.251,13.251,0,0,0,.638,28.771C1.433,39.393,16.4,37.112,19.3,31.763s2.5-18.946-1.272-19.918c-1.5-.388-4.7.536-7.948,2.461L12.068.044Z" transform="translate(21.254 36.303) rotate(180)" fill="#d4a181"/>
              </g>
              <path id="hair-2" data-name="hair" d="M18.022,13.063q.149.254.306.5c-5.028-.386-10.615-3.6-15.38-.893-6.483,3.688-1.511,18.033,7.547,12.88,6.16-3.5,8.672-6.113,10.517-8.907a9.843,9.843,0,0,0,4.3,2.186,4.114,4.114,0,0,0,1.466.135,5.659,5.659,0,0,0,1.084-.127,25.328,25.328,0,0,0,7.023-2.583c.485-.254.956-.516,1.408-.781a5.073,5.073,0,0,0,6.867,1.8A4.919,4.919,0,0,0,45,10.5a5.072,5.072,0,0,0-6.635-1.942,25.654,25.654,0,0,0-5.354,1.957,10.253,10.253,0,0,0-1.069-2.463C29.116,3.231,21.8-1.492,18.4.445S15.2,8.243,18.022,13.063Z" transform="translate(45.673 26.653) rotate(180)" fill="#191847"/>
              <path id="Ear" d="M.256,6.859C1.214,6.314,1.509,4.7.618,3.183A2.586,2.586,0,0,0-2.576,2.026a2.555,2.555,0,0,0-.958,3.519A2.757,2.757,0,0,0,.256,6.859Z" transform="translate(21.19 18.57)" fill="#d4a181" stroke="rgba(0,0,0,0)" stroke-miterlimit="10" stroke-width="1"/>
            </g>
            <g id="Bottom_Skinny_Jeans_1" data-name="Bottom/Skinny Jeans 1" transform="translate(30.261 80.047)">
              <path id="Leg-3" data-name="Leg" d="M28.453,0,13.805,50.455,6.915,88.338H0L6.9,0Z" transform="translate(15.934 0)" fill="#ba8b72"/>
              <path id="Leg-4" data-name="Leg" d="M25.471,0c-1.022,26.211-.619,40.507-.39,42.889s1.527,18.33,10.377,46.248H28.265C16.546,62.355,12.454,46.406,11.11,42.889S5.8,25.076,0,0Z" transform="translate(25.499 0)" fill="#d4a181"/>
              <path id="Pant-3" data-name="Pant" d="M29.993,0q-5.715,26.043-19.77,83.141H.108C-.639,44.07,2.539,18.355,8.042,0Z" transform="translate(14.709 0)" fill="#69a1ac"/>
              <path id="Pant-4" data-name="Pant" d="M27.071,0c-1,26.211,1.593,52.034,9.629,83.549H25.908A353.966,353.966,0,0,1,0,0Z" transform="translate(23.951 0)" fill="#89c5cc"/>
              <g id="Left_Shoe" data-name="Left Shoe" transform="translate(37.589 87.139)">
                <path id="Shoe-3" data-name="Shoe" d="M24.038,7.195l-.376-6.053A.4.4,0,0,0,23.3.768L14.91,0,.522,5.339a.8.8,0,0,0-.491.968L.623,8.394H23.244Z" transform="translate(0)" fill="#191847"/>
              </g>
              <g id="Right_Shoe-2" data-name="Right Shoe" transform="translate(0 87.139)">
                <path id="Shoe-4" data-name="Shoe" d="M24.038,7.195l-.376-6.053A.4.4,0,0,0,23.3.768L14.91,0,.522,5.339a.8.8,0,0,0-.491.968L.623,8.394H23.244Z" transform="translate(0)" fill="#191847"/>
              </g>
            </g>
            <g id="Body_Long_Sleeve_1" data-name="Body/Long Sleeve 1" transform="matrix(0.985, 0.174, -0.174, 0.985, 1.218, 11.685)">
              <path id="Skin-2" data-name="Skin" d="M21.111,6.83,29.07,8.066s3.328,4.83,5.282,4.152c.586.051.023-.9-.419-1.9-.436-.984-.757-2.011.248-2.16,2.026-.3,7.872,1.456,8.412.467.8-1.463-1.395-4.253-3.2-5.38C36.025,1.135,33.753.824,28.563,1.228,24.492,1.545,19.068,0,19.068,0ZM0,22.5l18.109,2.787a39.624,39.624,0,0,0,9.95,4.268c.858.04,2.229-.247.224-1.975s-4.035-3.635-3.657-4.532c.166-.394.623-.543,1.113-.7.624-.206,1.3-.431,1.489-1.207q.338-1.384-9.2-.612L3.4,14.445Z" transform="translate(42.763 48.024) rotate(180)" fill="#d4a181"/>
              <path id="Sleeve" d="M4.461,13.979a39.282,39.282,0,0,1,21.56-4.722l-.655-7.7C17.874-.577,8.9-.758,3.051,2.716A6.183,6.183,0,0,0,4.461,13.979Z" transform="translate(51.666 35.481) rotate(-171)" fill="#2026a2"/>
              <path id="Clothes" d="M12.829,6.847C7.769,9.486,3.077,11.989,0,12.472.894,30.351,12.778,33.4,16.508,43.683c4.085,11.262,19.356,25.307,20.68,24.823l12.071-4.419c-2.446-8.842-2.526-19.545-3.163-29.914,8.048-5.214,30.05-5.376,30.05-5.376s1.216-12.029-.731-16.248c-13.494-1.8-24.172-.9-32.241,1.855A29.513,29.513,0,0,0,36.031,1.759C33.453-.816,29.1-.273,24.189,1.524A101.319,101.319,0,0,0,12.829,6.847Z" transform="translate(96.524 68.517) rotate(180)" fill="#1f28cf"/>
            </g>
          </g>
        </g>
      </g>
    </g>
  </g>
  <g id="Head-5" data-name="Head" transform="translate(128.268 168.855)">
    <path id="Head-6" data-name="Head" d="M0,39.922l4.517-21.06A14.818,14.818,0,0,1,.578,8.217C1.4-3.486,17.686-.912,20.854,5s2.792,20.89-1.3,21.946c-1.633.421-5.112-.61-8.652-2.745l2.222,15.726Z" transform="translate(0 0)" fill="#b28b67"/>
  </g>
  <path id="hair-3" data-name="hair" d="M80.624,18.969c-1.729-.284-6.386-.479-7.245-.479-.549,0-1.143.125-1.469-.379-.266-.413-.169-1.111-.248-1.59-.092-.556-.223-1.106-.356-1.653a16.814,16.814,0,0,0-1.745-4.434A13.628,13.628,0,0,0,63.1,4.584,20.737,20.737,0,0,0,53.3,3.235c-3.52.285-6.706,1.447-10.029,2.541a21.013,21.013,0,0,1-9.8.943C30.135,6.207,27.614,4.4,24.8,2.681A16.154,16.154,0,0,0,15.219.038a18.448,18.448,0,0,0-8.74,3.314,14.261,14.261,0,0,0-5.636,6.4c-1.233,2.99-1.232,6.271.8,8.914,2.939,3.83,8.394,4.82,12.932,4.722a24.7,24.7,0,0,0,7.682-1.408c3.305-1.163,6.162-3.134,9.254-4.733a24.077,24.077,0,0,1,4.523-1.811c1.526-.431,3.028-.629,4.41.293a20.824,20.824,0,0,0,4.443,2.544,14.325,14.325,0,0,0,5.011.9c3.325-.026,6.6-1.062,9.831-1.756,2.633-.566,5.45-1.13,8.135-.586,1.12.227,2.756.7,3.161,1.86-6.809,1.234-9.484,9.658-7.564,15.841,1.036,3.337,7.264,7.239,9.685,5.484,1.534-1.112.6-2.571,0-3.534-1.154-1.845-1.549-4.215.587-5.5,1.842-1.108,3.779,1.523,3.816,1.52.506-.04,4.882-2.515,7.9-6.127,2.974.176,3.425-1.785,2.715-3.389S83.014,19.361,80.624,18.969Z" transform="translate(62.019 148.074)" fill="#191847"/>
  <g id="Grupo_13" data-name="Grupo 13" transform="translate(-1059.061 -26.343)">
    <g id="Head-7" data-name="Head" transform="translate(1728.146 196.955)">
      <path id="Head-8" data-name="Head" d="M0,0,4.072,18.97A13.342,13.342,0,0,0,.521,28.558c.74,10.542,15.42,8.222,18.276,2.9s2.516-18.816-1.174-19.767c-1.472-.379-4.607.55-7.8,2.472L11.827,0Z" transform="translate(20.697 35.959) rotate(180)" fill="#b28b67"/>
    </g>
    <path id="hair-4" data-name="hair" d="M.111,5.5A2.558,2.558,0,0,1,1.9,3.682a2.361,2.361,0,0,1,.659-.066c.079,0,.1.026.139-.029a.729.729,0,0,0,.04-.19,3.586,3.586,0,0,1,.134-.444,3.623,3.623,0,0,1,.874-1.3A4.4,4.4,0,0,1,6.391.4,3.855,3.855,0,0,1,7.98.621a6.293,6.293,0,0,1,.771.33c.075.038.319.222.395.21S9.4.94,9.465.888A4.672,4.672,0,0,1,12.383,0a5.343,5.343,0,0,1,3.3.786,6.593,6.593,0,0,1,.6.494c.1.092.2.188.287.288q.083.09.161.185c.088.107.074.142.2.068a2.451,2.451,0,0,1,1.574-.354,3.522,3.522,0,0,1,.95.268c.1.044.342.22.452.222s.344-.161.457-.2a3.747,3.747,0,0,1,1.9-.176,4.9,4.9,0,0,1,1.861.732,2.5,2.5,0,0,1,.69.627c.081.112.154.23.246.334.054.061.16.123.189.2a4.089,4.089,0,0,1,.789-.348,1.944,1.944,0,0,1,1.11.042,4.414,4.414,0,0,1,1.751,1.243,4.968,4.968,0,0,1,.648.87q.132.224.242.46a1.711,1.711,0,0,0,.106.24c.061.088.1.09.211.128a3.415,3.415,0,0,1,1.454.973,3.35,3.35,0,0,1,.753,1.6.813.813,0,0,0,.03.2c.028.026.14.014.182.019a3.839,3.839,0,0,1,.437.077,3.609,3.609,0,0,1,.768.276,4.014,4.014,0,0,1,1.968,2.349,4.765,4.765,0,0,1-.075,3.263,3.188,3.188,0,0,1-.242.478c-.058.093-.077.093-.039.191s.119.215.168.321a4.605,4.605,0,0,1,.348,1.091,5.115,5.115,0,0,1,.06,1.886,2.722,2.722,0,0,1-.291.827,2.374,2.374,0,0,1-.255.37c-.05.06-.1.117-.159.171a1.062,1.062,0,0,0-.1.093c-.066.085-.08.015-.046.14a5.583,5.583,0,0,0,.222.516c.068.175.13.352.186.531a7.833,7.833,0,0,1,.271,1.107,3.475,3.475,0,0,1-.245,2.15,2.151,2.151,0,0,1-.609.724,2.259,2.259,0,0,1-.4.243c-.073.034-.165.049-.2.119s.017.225.029.309a5.154,5.154,0,0,1-.061,2.221,3.069,3.069,0,0,1-1.217,1.633,3.787,3.787,0,0,1-3.785.107,3.973,3.973,0,0,1-.845-.58c-.648.872-1.982.845-2.929.6A4.207,4.207,0,0,1,22.806,27.9a1.781,1.781,0,0,1-2.829-.372,2.356,2.356,0,0,1-.239-.776c-.019-.141-.007-.284-.022-.424a2.191,2.191,0,0,0-.207-.525,2.9,2.9,0,0,1-.22-1.047,5.312,5.312,0,0,1,.04-.562,1.931,1.931,0,0,0-.057-.494,2.26,2.26,0,0,0,.957-.119,1.889,1.889,0,0,0,.739-.52,4.313,4.313,0,0,0,.93-1.739,3.085,3.085,0,0,0-1.137-3.785,7.141,7.141,0,0,0-3.348-.177c-.808.183-1.725,1.966-1.77,2.133-.028.1-.014.232-.109.3-.209.152-.555-.112-.709-.242a2.8,2.8,0,0,1-.621-.826,10.221,10.221,0,0,1-.853-2.09c-.158-.557-.258-1.131-.464-1.674a2.561,2.561,0,0,0-1.03-1.329,9.074,9.074,0,0,0-1.772-.717,4.4,4.4,0,0,1-1.64-.9,2.265,2.265,0,0,1-.281-.313c-.064-.09-.128-.262-.226-.319-.153-.089-.375.142-.507.226A5.858,5.858,0,0,0,5.8,13.224a10.071,10.071,0,0,0-1.083,1.927,5.572,5.572,0,0,1-.729,1.607,3.074,3.074,0,0,1-1.833.139,2.316,2.316,0,0,1-1-.865,1.343,1.343,0,0,1-.114-.881c.035-.178.107-.344.146-.518a1.615,1.615,0,0,1,.134-.419,1.035,1.035,0,0,1,.645-.514,3.028,3.028,0,0,1-.7-.945,4.052,4.052,0,0,1-.361-1.231,1.493,1.493,0,0,1,.2-.959,2.525,2.525,0,0,1,.819-.679A5.325,5.325,0,0,1,.787,8.646,3.872,3.872,0,0,1,.111,5.5Z" transform="translate(1724.697 188.581)" fill="#191847"/>
    <g id="humaaan-5" transform="translate(1519 392)">
      <g id="Bottom_Skinny_Jeans_1-2" data-name="Bottom/Skinny Jeans 1" transform="translate(169.805 -113.213)">
        <path id="Skirt_Shadow" data-name="Skirt Shadow" d="M46.223,6.59S31.183,10.8,20.271,10.8,0,4.318,0,4.318,14.718,0,24.242,0,46.223,6.59,46.223,6.59Z" transform="translate(25.077 36.207)" fill="#1f28cf"/>
        <path id="Leg-5" data-name="Leg" d="M19.856,49.248a2.364,2.364,0,0,0,.243-.475C21.439,45.229,42.906,6.991,45.045,0H20.876C19.25,5.315,11.931,38.671,10.9,45.326,7.651,55.824.96,89.821.106,92.177c-.9,2.478,4.157,5.059,5.5,2.013a259.167,259.167,0,0,0,9.526-26.446C17.269,60.067,19.005,53.16,19.856,49.248Z" transform="translate(16.813 1.798)" fill="#997659"/>
        <path id="Leg-6" data-name="Leg" d="M14.647,53.916c9.814,2.481,45.714,6.965,48.177,7.669,2.534.724,4.756-4.5,1.624-5.632A259.143,259.143,0,0,0,37.4,48.295c-6.7-1.366-12.809-2.48-16.913-3.132.348-11.526,1.937-39.188.9-45.163H0C1,5.729,9.442,47.531,11.011,51.716c.5,1.494,1.984,2.154,3.636,2.2Z" transform="translate(41.796 1.798)" fill="#b28b67"/>
        <g id="Left_Shoe-2" data-name="Left Shoe" transform="matrix(-0.174, 0.985, -0.985, -0.174, 118.001, 56.119)">
          <path id="shoe-5" data-name="shoe" d="M18,.127a.779.779,0,0,1,1.117.151l1.591,2.2a24.881,24.881,0,0,1,.719,3L.8,12.982s-1.77-2.359-.114-3.2,2.74-1.429,2.74-1.429L11.457.6a.39.39,0,0,1,.558.017l1.159,1.267a8.84,8.84,0,0,0,2.879-.2Z" transform="translate(20.612 18.37) rotate(-164)" fill="#e4e4e4"/>
        </g>
        <g id="Right_Shoe-3" data-name="Right Shoe" transform="translate(0 93.055)">
          <path id="shoe-6" data-name="shoe" d="M22.294,2.3a.836.836,0,0,1,1.072.564l.8,2.811a26.853,26.853,0,0,1-.377,3.3H.213s-.919-3.038,1.061-3.28,3.289-.437,3.289-.437L15.52.368a.418.418,0,0,1,.557.222l.7,1.709a9.473,9.473,0,0,0,2.979.855Z" transform="translate(0 -0.332)" fill="#e4e4e4"/>
        </g>
        <path id="Skirt" d="M38.034,2.335s-14.136-4.044-26.75,0C8.359,15.684,1.25,20.983,0,41.449c14.211,7.061,31.765-5.036,46.394,1.85C50.573,33.667,44.722,10.471,38.034,2.335Z" transform="translate(25.077 -0.538)" fill="#2b44ff"/>
      </g>
      <g id="Body_Long_Sleeve_1-2" data-name="Body/Long Sleeve 1" transform="matrix(0.985, -0.174, 0.174, 0.985, 160.422, -162.576)">
        <path id="Skin-3" data-name="Skin" d="M26.52,6.64,31.9,12.816s-.541,5.93,1.413,6.685c.421.424.6-.687.906-1.752.3-1.05.713-2.056,1.59-1.513,1.766,1.1,5.167,6.29,6.225,5.876,1.566-.612,1.669-4.215,1-6.271-1.253-3.844-2.814-5.575-7.1-8.663C32.562,4.754,29.352,0,29.352,0ZM0,4.965,12.25,19a40.653,40.653,0,0,0,4.961,9.834c.64.593,1.889,1.269,1.452-1.386s-.78-5.466.093-5.914c.384-.2.835-.013,1.319.182a1.854,1.854,0,0,0,1.936.04q1.157-.852-6.745-6.507L7.85.939Z" transform="translate(43.422 29.372) rotate(180)" fill="#997659"/>
        <path id="Sleeve-2" data-name="Sleeve" d="M1.1,9.738A40.057,40.057,0,0,1,20.915,20.207l4.473-6.395C20.945,7.251,14.083,1.227,7.292.088A6.23,6.23,0,0,0,1.1,9.738Z" transform="translate(51.111 35.052) rotate(-171)" fill="#2026a2"/>
        <path id="Clothes-2" data-name="Clothes" d="M23.139,4.045C17.5,2.775,12.245,1.642,9.545,0-1.326,14.46,5.925,24.615,2.167,35.04-1.947,46.457.818,67.366,2.159,67.858l12.226,4.483c3.821-8.465,10.682-16.822,16.894-25.287,9.617,1.229,26.8,15.525,26.8,15.525s8.724-8.537,9.943-13.088C58.713,39.247,49.843,32.948,41.8,29.8A30.021,30.021,0,0,0,44.435,15.3C44.1,11.616,40.368,9.182,35.4,7.359A102.41,102.41,0,0,0,23.139,4.045Z" transform="translate(71.733 80.425) rotate(180)" fill="#1f28cf"/>
      </g>
    </g>
  </g>
  <g id="Grupo_7" data-name="Grupo 7" transform="translate(-177.269 473.712)">
    <g id="Grupo_6" data-name="Grupo 6" transform="translate(245 -320)">
      <g id="A_Human_Sitting" data-name="A Human/Sitting" transform="translate(44.483 44.945)">
        <g id="Bottom_Skinny_Jeans_1-3" data-name="Bottom/Skinny Jeans 1" transform="translate(5.371 58.64)">
          <path id="Skin-4" data-name="Skin" d="M31.646,78.408c-.554-7.007-1.585-31.266-.554-42.495.435-4.74.9-9.249,1.365-13.254C22.566,40.45,6.379,66.474,6.379,66.474L0,63.559S7.514,38.8,12.323,28.6C17.813,16.962,22.96,6.992,25.126,3.48c3.407-5.523,9.339-3.6,12.473-.253,4.563-2.74,12.217.78,12.212,4.7C49.8,19.65,39.1,74.9,38.538,78.4a3.793,3.793,0,0,1-3.807,2.977A2.959,2.959,0,0,1,31.646,78.408Z" transform="translate(43.249 8.269)" fill="#b28b67"/>
          <path id="LegLower" d="M0,61.952,2.835,5.723C4.878-4,22.171.512,22.163,5.723c-.016,11.829-7.122,52.693-7.127,56.218Z" transform="translate(64.894 4.448) rotate(20)" fill="#1f28cf"/>
          <path id="Leg_and_Butt" data-name="Leg and Butt" d="M94.594,20.181c0,14.716-6.989,49.043-6.993,52.284l-15.037.012s3.3-45.945,2.341-46.439-39.357,3.834-50.873,3.834C7.427,29.871.557,19.4,0,0H32.9c6.7.717,41.635,7.763,54.609,10.186C93.06,11.223,94.594,16.127,94.594,20.181Z" fill="#2b44ff"/>
        </g>
        <g id="Body_Long_Sleeve_1-3" data-name="Body/Long Sleeve 1">
          <path id="Skin-5" data-name="Skin" d="M12.5,75.982-5,68.726l3.906-9.655,17.67,12.975a47.553,47.553,0,0,1,12.011,4.827c.76.692,1.678,2.093-1.472,1.851s-6.474-.355-6.908.719,1.472,2.359.593,3.809a.418.418,0,0,1-.384.207Q18.862,83.459,12.5,75.982Zm16.4-30.392-18.936.488L9.6,35.668l21.419,4.667a47.59,47.59,0,0,1,12.937-.476c.975.323,2.383,1.23-.592,2.291s-6.059,2.309-6.019,3.467,2.3,1.557,2.091,3.238q-.054.427-.759.427Q36.6,49.281,28.895,45.59Z" transform="translate(56.016 -11.756)" fill="#b28b67"/>
          <path id="Coat_Back-2" data-name="Coat Back" d="M7.473,0C21.411,14.84,38.41,24.523,61.595,33.113l-5.149,10.3c-23.921-2.255-36.71-4.057-46.736-18.919C7.195,20.758,2.7,7.923,0,1.258Z" transform="matrix(0.951, 0.309, -0.309, 0.951, 20.806, 4.214)" fill="#2026a2"/>
          <path id="Shirt-2" data-name="Shirt" d="M0,63.148H42.652S28.16,18.949,27.846,2.477c-.011-.56-1.045-1.546-1.5-1.417C21.326,2.477,15.605,0,15.605,0,5.494,16.262,2,36.285,0,63.148Z" transform="translate(3.578 0)" fill="#f2f2f2"/>
          <path id="Coat_Front-2" data-name="Coat Front" d="M.788,81.763C-2.824,57.488,6.669,23.832,15.469,6.855a3,3,0,0,1,2.737-1.87h6.609q.682,2.053,1.333,4.106C36.727,15.4,51.834,24.884,72.618,29l-3.5,10.966c-12.618.826-24.85.783-35.379-1.352,4.577,24.417,2.948,43.15-10.214,43.15Z" transform="translate(0 -4.985)" fill="#1f28cf"/>
        </g>
      </g>
    </g>
    <g id="Accessories_Shoe_Flat_Simple" data-name="Accessories/Shoe/Flat Simple" transform="translate(367.208 -145.055)">
      <path id="Shoe-7" data-name="Shoe" d="M0,9.971.52,1.582a.554.554,0,0,1,.5-.517L12.644,0l19.93,7.4a1.108,1.108,0,0,1,.68,1.341l-.82,2.893H1.1Z" transform="translate(0 10.525)" fill="#191847"/>
    </g>
    <g id="Accessories_Shoe_Flat_Simple-2" data-name="Accessories/Shoe/Flat Simple" transform="translate(348.459 -159.338) rotate(50)">
      <path id="Shoe-8" data-name="Shoe" d="M0,9.924.518,1.574a.551.551,0,0,1,.5-.515L12.584,0,32.421,7.364A1.1,1.1,0,0,1,33.1,8.7l-.816,2.879H1.094Z" transform="translate(0 10.475)" fill="#191847"/>
    </g>
  </g>
  <g id="libro" transform="translate(-202.477 -253.754)">
    <path id="Trazado_1" data-name="Trazado 1" d="M483,544.595V523.4l111.434,68.25h-4.486Z" transform="translate(-6.723)" fill="#e6e7e8"/>
    <path id="Trazado_2" data-name="Trazado 2" d="M462.6,544.774V525.1l128.832,66.526H574.309Z" transform="translate(-5.002 0.024)" fill="#f1f2f2"/>
    <path id="Trazado_3" data-name="Trazado 3" d="M440.9,547.68V527.6l145.5,63.991H572.479Z" transform="translate(-3.172 0.059)" fill="#e6e7e8"/>
    <path id="Trazado_11" data-name="Trazado 11" d="M0,0H41.571V273.507H0Z" transform="translate(569.307 596.518)" fill="#ff8274"/>
    <path id="Trazado_4" data-name="Trazado 4" d="M403.3,799.565l166.007,53.951V590.252L403.3,536.2Z" transform="translate(0 0.181)" fill="#ff988c"/>
    <path id="Trazado_5" data-name="Trazado 5" d="M421.1,541.562V529.9l158.865,61.658h-9.157Z" transform="translate(-1.502 0.092)" fill="#f1f2f2"/>
    <rect id="Rectángulo_4" data-name="Rectángulo 4" width="20.785" height="4.868" transform="translate(569.307 591.65)" fill="#fb6d5d"/>
    <path id="Trazado_6" data-name="Trazado 6" d="M721.235,544.595V523.4L609.8,591.65h4.578Z" transform="translate(-17.418)" fill="#e6e7e8"/>
    <path id="Trazado_7" data-name="Trazado 7" d="M740.032,544.774V525.1L611.2,591.626h17.214Z" transform="translate(-17.537 0.024)" fill="#f1f2f2"/>
    <path id="Trazado_8" data-name="Trazado 8" d="M760.205,547.68V527.6L614.8,591.591h13.918Z" transform="translate(-17.84 0.059)" fill="#e6e7e8"/>
    <path id="Trazado_9" data-name="Trazado 9" d="M796.007,799.565,630,853.516V590.252L796.007,536.2Z" transform="translate(-19.122 0.181)" fill="#ff988c"/>
    <path id="Trazado_10" data-name="Trazado 10" d="M778.865,541.562V529.9L620,591.558h9.156Z" transform="translate(-18.279 0.092)" fill="#f1f2f2"/>
    <rect id="Rectángulo_5" data-name="Rectángulo 5" width="20.785" height="4.868" transform="translate(590.093 591.65)" fill="#fb6d5d"/>
  </g>
</svg>
