<svg xmlns="http://www.w3.org/2000/svg" width="491.228" height="446.784" viewBox="0 0 491.228 446.784">
  <g id="Grupo_49" data-name="Grupo 49" transform="translate(-16298.872 -3878.474)">
    <g id="A_Human_Standing" data-name="A Human/Standing" transform="matrix(-0.988, 0, 0, 1, 16592.27, 3891)">
      <g id="Head_Front" data-name="Head/Front" transform="translate(60)">
        <g id="Head" transform="translate(54 31)">
          <path id="Head-2" data-name="Head" d="M0,73,8.262,34.49C3.655,29.081.536,22.452,1.057,15.025c1.5-21.4,31.292-16.692,37.086-5.891s5.107,38.2-2.382,40.129c-2.987.77-9.349-1.116-15.825-5.019L24,73Z" fill="#b28b67"/>
        </g>
        <path id="hair" d="M147.464,34.685c-3.163-.519-11.68-.875-13.251-.875-1,0-2.091.229-2.686-.692-.487-.755-.308-2.031-.454-2.907-.169-1.017-.408-2.022-.651-3.023a30.741,30.741,0,0,0-3.192-8.109,24.924,24.924,0,0,0-11.814-10.7A37.937,37.937,0,0,0,97.48,5.916c-6.437.522-12.265,2.647-18.343,4.647a38.442,38.442,0,0,1-17.916,1.725c-6.1-.938-10.715-4.246-15.863-7.385C40.089,1.688,34.066-.414,27.835.069,22.02.52,16.659,2.922,11.85,6.129c-4.5,3-8.212,6.612-10.308,11.695C-.713,23.291-.711,29.292,3,34.123c5.375,7,15.352,8.814,23.654,8.634A45.193,45.193,0,0,0,40.7,40.183c6.046-2.126,11.27-5.731,16.926-8.655A44.044,44.044,0,0,1,65.9,28.217c2.791-.788,5.539-1.15,8.066.536A38.091,38.091,0,0,0,82.092,33.4a26.206,26.206,0,0,0,9.166,1.646c6.081-.047,12.075-1.942,17.981-3.211,4.816-1.035,9.969-2.066,14.879-1.071,2.049.415,5.041,1.272,5.781,3.4-12.454,2.257-17.346,17.66-13.835,28.967,1.895,6.1,13.286,13.237,17.715,10.029,2.806-2.033,1.1-4.7,0-6.463-2.111-3.373-2.834-7.707,1.073-10.055,3.37-2.026,6.913,2.785,6.98,2.779.926-.073,8.929-4.6,14.443-11.2,5.439.322,6.265-3.264,4.966-6.2S151.834,35.4,147.464,34.685Z" transform="translate(-69 -7)" fill="#191847"/>
      </g>
      <g id="Bottom_Skinny_Jeans_1" data-name="Bottom/Skinny Jeans 1" transform="translate(-22 187)">
        <g id="Seat" transform="translate(10 42)">
          <ellipse id="Ballsy_Ball" data-name="Ballsy Ball" cx="77" cy="73.5" rx="77" ry="73.5" transform="translate(39 -15)" fill="#c5cfd6"/>
        </g>
        <path id="Skin" d="M126.572,64.414c-6.368-22.307-11.213-41.937-12.437-49.268-2.92-17.48,22.461-18.5,25.816-9.811,5.078,13.149,13.943,56.351,24.594,121.606l-12.175,3.552C139.559,102.136,130.292,77.442,126.572,64.414ZM3.75,41.5c11.756-4.647,52.924-19.189,72.779-23.3,5.706-1.183,11.236-2.281,16.435-3.273,15.454-2.95,23.46,24.929,8.576,27.071C64.473,47.328,11.924,52.837,7.428,53.456a5.731,5.731,0,0,1-.778.053C.749,53.51-3.331,44.3,3.75,41.5Z" transform="translate(119.138 32.166)" fill="#b28b67"/>
        <path id="Leg_Back" data-name="Leg Back" d="M63.76,42.729a13,13,0,0,1-.172-3.313L0,7.047V0H7.562s92.277,23.513,94.307,30.137c.014.047.027.093.038.14q.047.062.093.125c12.191,16.767,19.493,98.624,21.89,104.753l-23.362,3.486C91.591,105.5,63,82.418,63.76,42.729Z" transform="translate(158)" fill="#1f28cf"/>
        <path id="Leg_Front" data-name="Leg Front" d="M31.077,65.228l19.206-6.588c-5.817-1.164-11.176-2.2-15.76-3.008C4.909,50.438-3.726,34.586,1.38,0H55.942c8.913,2.561,55.232,21.985,79.265,32.316,15.906,6.838,10.892,31.488,1.884,37.9a.879.879,0,0,1-.5.781C103.268,84.811,74.732,84.14,56,83.47c-8.509-.3-15-.609-19,.443Z" transform="translate(113)" fill="#2b44ff"/>
        <g id="Right_Shoe" data-name="Right Shoe" transform="matrix(0.438, 0.899, -0.899, 0.438, 148.565, 57.151)">
          <path id="shoe" d="M4.474,5.033A2,2,0,0,0,1.908,6.381L0,13.106A64.242,64.242,0,0,0,.9,21H57.3s2.2-7.268-2.538-7.848-7.87-1.047-7.87-1.047L20.68.419a1,1,0,0,0-1.332.532L17.663,5.039s-4.385,2.046-7.127,2.046Z" transform="translate(1 19)" fill="#e4e4e4"/>
        </g>
        <g id="Right_Shoe-2" data-name="Right Shoe" transform="translate(263 132)">
          <path id="shoe-2" data-name="shoe" d="M4.474,5.033A2,2,0,0,0,1.908,6.381L0,13.106A64.242,64.242,0,0,0,.9,21H57.3s2.2-7.268-2.538-7.848-7.87-1.047-7.87-1.047L20.68.419a1,1,0,0,0-1.332.532L17.663,5.039s-4.385,2.046-7.127,2.046Z" transform="translate(1 19)" fill="#e4e4e4"/>
        </g>
      </g>
      <g id="Body_Long_Sleeve_1" data-name="Body/Long Sleeve 1" transform="translate(0 82)">
        <path id="Skin-2" data-name="Skin" d="M31.789,116.268c-1.363-2.293-2.913-4.586-7.622-3.416-8.4,2.087-15.528,7.442-23.363.22-.963-.887-1.669-3.663,1.616-5.087C10.6,104.437,22.692,97.8,24.652,95.218Q28.663,89.944,49.508,35L70,39.066Q39.088,96.674,36.845,100.131c-3.365,5.185-.225,14.687.934,19.691a6.313,6.313,0,0,1-1.427.178C33.886,120,32.9,118.134,31.789,116.268ZM196,30.617,232.234,14.7A85.87,85.87,0,0,1,250.623.282c1.768-.563,4.787-.733,1.565,3.974s-6.4,9.8-5.112,11.45,5.017-.171,6.49,2.511q1.474,2.682-18.859,6.417L207.57,45.439Z" transform="translate(2 47)" fill="#b28b67"/>
        <path id="Coat_Back" data-name="Coat Back" d="M0,2.231,8.485,0C28.84,16.559,40.322,59.616,53.332,64.31c12.3,4.438,28.6-2.324,47.89-11.217l7.293,13.1c-16.386,21.165-53.5,41.081-69.953,33C12.253,86.281,1.767,32.855,0,2.231Z" transform="matrix(0.996, 0.087, -0.087, 0.996, 127.889, 3.109)" fill="#db2721"/>
        <path id="Shirt" d="M0,114H76.511c3.5,0,2.837-5.048,2.332-7.6C73.011,77,50.241,45.312,50.241,3.461L28.172,0C9.917,29.358,3.6,65.5,0,114Z" transform="translate(90)" fill="#dde3e9"/>
        <path id="Coat_Front" data-name="Coat Front" d="M0,141.859Q15.5,45.756,89.748,0h8.738s29.719,101.306,16.386,135H46c1.09-16.437,4.583-33.819,9.369-50.767q-23.4,42.2-39.332,60.767Z" transform="translate(27)" fill="#ff4133"/>
      </g>
    </g>
    <g id="A_Human_Standing-2" data-name="A Human/Standing" transform="matrix(-0.99, 0, 0, 1, 16763.633, 3892)">
      <g id="Head_Front-2" data-name="Head/Front" transform="translate(60)">
        <g id="Head-3" data-name="Head" transform="translate(54 31)">
          <path id="Head-4" data-name="Head" d="M0,73,8.262,34.49C3.655,29.081.536,22.452,1.057,15.025c1.5-21.4,31.292-16.692,37.086-5.891s5.107,38.2-2.382,40.129c-2.987.77-9.349-1.116-15.825-5.019L24,73Z" fill="#b28b67"/>
        </g>
        <path id="hair-2" data-name="hair" d="M-58.407,23.9A7.5,7.5,0,0,1-59.97,21a29.39,29.39,0,0,1-1-3.3c-.5-2.249-.509-4.836,1.1-6.582a7.548,7.548,0,0,1,5-2.165,9.187,9.187,0,0,1,3.545.449c1.129.371,2.1,1.111,3.2,1.57a14.306,14.306,0,0,1,1.687-7.03,7.008,7.008,0,0,1,5.218-3.4,10.347,10.347,0,0,1,6.357,1.28c.494.267.984.547,1.453.865a4.071,4.071,0,0,0,1.261.693c.513.121.768-.176,1.1-.55a8.368,8.368,0,0,1,1.3-1.168A7.647,7.647,0,0,1-22.6.423a6.649,6.649,0,0,1,2.917,2.109c.666.873,1.14,2.258,2.059,2.866.39.258.665-.084,1.02-.337.533-.38,1.042-.8,1.581-1.169A7.242,7.242,0,0,1-12.57,2.781c1.286-.3,3.064-.228,3.432,1.457A6.954,6.954,0,0,1-9.15,6.186c-.061.876-.125,1.751-.2,2.625a18.954,18.954,0,0,1-.256,1.957,2.863,2.863,0,0,0-.127,1.343c.186.435,1.046.188,1.413.2A5.582,5.582,0,0,1-6.2,12.78a2.286,2.286,0,0,1,1.285,1.189,2.136,2.136,0,0,1,.036,1.118,3.335,3.335,0,0,0,.068,1.147c.974-.48,4.349-1.545,4.774.2a2.731,2.731,0,0,1-.426,1.728,14.979,14.979,0,0,1-1.573,2.395,21.412,21.412,0,0,1-4.19,4.065,2.746,2.746,0,0,1,.716,4.6,3.4,3.4,0,0,1-2.5.725,5.524,5.524,0,0,0-1.033-.082,2.47,2.47,0,0,1-.468.158,13.928,13.928,0,0,1-3.832-.486,12.636,12.636,0,0,1-5.844-3.056,1.8,1.8,0,0,0-1.352-.621c-.5.005-1,.143-1.5.156a10.791,10.791,0,0,1-3.761-1.048,14.189,14.189,0,0,1-1.232,5c-.556,1.223-1.717,1.4-2.858,1.508-3.649.343-7.31-.04-10.963-.035,3.536.8,7.191,1.129,10.7,2.069,1.584.425.375,1.493-.3,2.233a12.87,12.87,0,0,0-2.52,4.32c-1.73-2.255-4.788-3.741-7.5-3.048-2.993.765-5.1,4.813-3.187,7.723,1.111,1.689,3.118,2.341,4.788,3.067-1.3,1.354-1.618,3.354-2.4,5.039a3.606,3.606,0,0,1-1.794,2.06,2.1,2.1,0,0,0-.947.377c-.313.323-.387.684-.786.961a4.434,4.434,0,0,1-5.494-.423,3.586,3.586,0,0,1,.122-4.7c-1.7-.708-4.791-1.618-4.116-4.263-3.679-.244-12.611-6.211-7.674-10.571-2.71-1.531-5.2-5.274-3.459-8.574,1.34-2.541,4.457-3.676,7.015-3.811" transform="translate(103 15)" fill="#191847"/>
      </g>
      <g id="Bottom_Skinny_Jeans_1-2" data-name="Bottom/Skinny Jeans 1" transform="translate(-22 187)">
        <g id="Seat-2" data-name="Seat" transform="translate(10 42)">
          <g id="Seat-3" data-name="Seat" transform="translate(55)">
            <path id="Seat_Stuff" data-name="Seat Stuff" d="M27.623,0h77.255L115,124H0Z" fill="#c5cfd6"/>
            <path id="Seat_Stuff-2" data-name="Seat Stuff" d="M27.623,0h23.76L65.6,124H0Z" fill="rgba(0,0,0,0.1)"/>
          </g>
        </g>
        <path id="Skin-3" data-name="Skin" d="M57.131,141.549c-1-12.65-2.861-56.444-1-76.715.785-8.557,1.633-16.7,2.465-23.927-17.858,32.116-47.08,79.1-47.08,79.1L0,114.743S13.566,70.049,22.247,51.638c9.91-21.017,19.2-39.015,23.112-45.355,6.151-9.971,16.86-6.492,22.518-.456C76.114.882,89.933,7.236,89.924,14.309,89.895,35.474,70.58,135.223,69.572,141.528c-.534,3.337-3.812,5.375-6.872,5.375C59.977,146.9,57.427,145.292,57.131,141.549Z" transform="translate(190.077 14.929)" fill="#b28b67"/>
        <path id="LegLower" d="M0,111.841,5.118,10.331c3.688-17.553,34.907-9.406,34.894,0-.029,21.355-12.857,95.127-12.866,101.489Z" transform="translate(229.152 8.029) rotate(20)" fill="#1f28cf"/>
        <g id="Right_Shoe-3" data-name="Right Shoe" transform="translate(199.086 100.429) rotate(30)">
          <path id="shoe-3" data-name="shoe" d="M4.474,5.033A2,2,0,0,0,1.908,6.381L0,13.106A64.242,64.242,0,0,0,.9,21H57.3s2.2-7.268-2.538-7.848-7.87-1.047-7.87-1.047L20.68.419a1,1,0,0,0-1.332.532L17.663,5.039s-4.385,2.046-7.127,2.046Z" transform="translate(1 19)" fill="#e4e4e4"/>
        </g>
        <g id="Right_Shoe-4" data-name="Right Shoe" transform="translate(242 126)">
          <path id="shoe-4" data-name="shoe" d="M4.474,5.033A2,2,0,0,0,1.908,6.381L0,13.106A64.242,64.242,0,0,0,.9,21H57.3s2.2-7.268-2.538-7.848-7.87-1.047-7.87-1.047L20.68.419a1,1,0,0,0-1.332.532L17.663,5.039s-4.385,2.046-7.127,2.046Z" transform="translate(1 19)" fill="#e4e4e4"/>
        </g>
        <path id="Leg_and_Butt" data-name="Leg and Butt" d="M170.77,36.433c0,26.567-12.617,88.537-12.625,94.387L131,130.841S136.96,47.9,135.227,47s-71.051,6.921-91.84,6.921C13.408,53.925,1.006,35.02,0,0H59.386c12.092,1.294,75.162,14.015,98.586,18.388C168,20.261,170.77,29.115,170.77,36.433Z" transform="translate(112 0)" fill="#2b44ff"/>
      </g>
      <g id="Body_Long_Sleeve_1-2" data-name="Body/Long Sleeve 1" transform="translate(0 82)">
        <path id="Skin-4" data-name="Skin" d="M54.362,51.452l15.247-8.376s3.208-12.21,7.672-12.287c1.151-.536.712,1.809.547,4.153-.163,2.309-.059,4.619,2.091,4.177,4.333-.892,14.908-8.757,16.73-7.16,2.7,2.363.293,9.617-2.54,13.226-5.294,6.745-9.676,9.051-20.508,12.072-8.5,2.369-18.37,9.5-18.37,9.5ZM0,35.412,34.709,16.4A85.868,85.868,0,0,1,51.771.432c1.712-.715,4.705-1.148,1.906,3.821s-5.521,10.321-4.1,11.852c.626.672,1.664.636,2.776.6,1.417-.045,2.955-.091,3.909,1.336q1.7,2.543-18.228,8.036L12.818,49.169Z" transform="translate(158.638 7.288)" fill="#997659"/>
        <path id="Sleeve" d="M5.5,6.364A85.286,85.286,0,0,0,52.75,0l4.34,16.026C43.453,25.855,25.36,32.84,10.935,30.139-.433,28.009-4.081,13.273,5.5,6.364Z" transform="translate(135.301 33.041) rotate(-9)" fill="#2026a2"/>
        <path id="Clothes" d="M33.421,142.48c-12.21-1.587-23.571-3.173-30.172-1.874C-8.069,103.851,13.814,88.915,13.831,65.4,13.851,39.642,34.53,0,37.573,0H65.32c1.53,19.659,9.229,41.325,15.551,62.729,20.164,4.578,64.941-11.356,64.941-11.356s11.3,23.385,10.451,33.343c-26.064,13.615-48.4,19.685-66.8,20.085.585,10.919-.745,21.311-5.209,30.8-3.341,7.1-12.583,9.227-23.862,9.227C51.995,144.832,42.473,143.656,33.421,142.48Z" transform="translate(77.224 0)" fill="#1f28cf"/>
      </g>
    </g>
  </g>
</svg>
