<svg xmlns="http://www.w3.org/2000/svg" width="513" height="435" viewBox="0 0 513 435">
  <g id="Grupo_48" data-name="Grupo 48" transform="translate(-13516 -4066)">
    <g id="A_Human_Standing" data-name="A Human/Standing" transform="translate(13702 4075)">
      <g id="Head_Front" data-name="Head/Front" transform="translate(60)">
        <g id="Head" transform="translate(54 31)">
          <path id="Head-2" data-name="Head" d="M0,73,8.262,34.49C3.655,29.081.536,22.452,1.057,15.025c1.5-21.4,31.292-16.692,37.086-5.891s5.107,38.2-2.382,40.129c-2.987.77-9.349-1.116-15.825-5.019L24,73Z" fill="#915b3c"/>
        </g>
        <path id="Hair" d="M10.418,46.308C7.406,32.906-1.175,23.771.135,17.782a10.2,10.2,0,0,1,6.986-7.45S10.057-1.543,26.056.23,51.819,8.648,47.6,23.268c-3.876,0-8.556-1.4-15.027,1-3.08,1.143-4.406,7.09-4.406,7.09H25.246s-4.257-7.057-8.4-5.187-1.881,9.087-1.881,9.087l-1.44,11.049Z" transform="translate(50 24)" fill="#191847"/>
      </g>
      <g id="Bottom_Skinny_Jeans_1" data-name="Bottom/Skinny Jeans 1" transform="translate(-22 187)">
        <g id="Seat" transform="translate(10 42)">
          <path id="Seat-2" data-name="Seat" d="M131,124H16A16,16,0,0,1,0,108V16A16,16,0,0,1,16,0H131a16,16,0,0,1,16,16v92a16,16,0,0,1-16,16ZM32,28a4.005,4.005,0,0,0-4,4V92a4.005,4.005,0,0,0,4,4h83a4,4,0,0,0,4-4V32a4,4,0,0,0-4-4Z" transform="translate(43 0)" fill="#c5cfd6"/>
        </g>
        <path id="LegLower" d="M66.159,117Q36.585,80.886,26.138,63.454C14.213,43.555,4.453,25.848,1.373,19.084-5.972,2.955,18.282-4.6,23.771,2.926Q36.233,20.006,77,110.417Z" transform="translate(233 44)" fill="#b28b67"/>
        <path id="LegLower-2" data-name="LegLower" d="M37.758,115,1.065,22.637C-6.783,5.8,31.116-5.268,36.883,2.568,49.977,20.357,81.1,90.534,85,95.834Z" transform="translate(221 39)" fill="#2f3676"/>
        <g id="Lower_Leg" data-name="Lower Leg" transform="translate(225.5 53) rotate(39)">
          <path id="LegLower-3" data-name="LegLower" d="M1.8,104.667C.8,92.066-1.072,48.446.8,28.255c.538-5.8,1.1-11.411,1.675-16.674,1.7-15.641,30.7-15.147,28.4-.287-5.736,37.007-15.831,88.87-16.555,93.352C13.3,110.927,2.437,112.586,1.8,104.667Z" transform="translate(0 0)" fill="#915b3c"/>
        </g>
        <g id="Right_Shoe" data-name="Right Shoe" transform="translate(173.086 107.429) rotate(30)">
          <path id="shoe" d="M4.474,5.033A2,2,0,0,0,1.908,6.381L0,13.106A64.242,64.242,0,0,0,.9,21H57.3s2.2-7.268-2.538-7.848-7.87-1.047-7.87-1.047L20.68.419a1,1,0,0,0-1.332.532L17.663,5.039s-4.385,2.046-7.127,2.046Z" transform="translate(1 19)" fill="#e4e4e4"/>
        </g>
        <g id="Right_Shoe-2" data-name="Right Shoe" transform="translate(288 132)">
          <path id="shoe-2" data-name="shoe" d="M4.474,5.033A2,2,0,0,0,1.908,6.381L0,13.106A64.242,64.242,0,0,0,.9,21H57.3s2.2-7.268-2.538-7.848-7.87-1.047-7.87-1.047L20.68.419a1,1,0,0,0-1.332.532L17.663,5.039s-4.385,2.046-7.127,2.046Z" transform="translate(1 19)" fill="#e4e4e4"/>
        </g>
        <path id="Leg_and_Butt" data-name="Leg and Butt" d="M95.7,65.948S49.954,58.5,34.417,55.756C4.894,50.55-3.715,34.663,1.375,0h54.4C66.569,3.118,146,38.569,146,38.569c9.528,4.73,7.754,18.676,6.012,23.27-.107.281-48.187,82.571-48.187,82.571l-44.5-28.347L95.783,69.288S97.226,66.38,95.7,65.948Z" transform="translate(113.163 0.302)" fill="#5c63ab"/>
      </g>
      <g id="Body_Long_Sleeve_1" data-name="Body/Long Sleeve 1" transform="translate(0 82)">
        <path id="Skin" d="M1.227,86.783c-1.116-.688-2.338-3.28.615-5.3C9.2,76.433,19.8,67.6,21.236,64.7,24.166,58.752,34.145.808,34.145.808l20.9.083s-19.354,62.48-20.9,66.3c-2.314,5.735,2.583,14.468,4.676,19.162-3.3,1.477-4.834-.409-6.512-2.294-1.789-2.01-3.745-4.019-8.184-1.954-5.68,2.643-10.377,6.838-15.975,6.837A12.989,12.989,0,0,1,1.227,86.783ZM181.155,30.53l-31.587-13.1L156.618,0l31.9,23.423A85.839,85.839,0,0,1,210.2,32.137c1.372,1.249,3.029,3.779-2.658,3.343s-11.687-.642-12.472,1.3,2.657,4.259,1.07,6.876a.754.754,0,0,1-.692.373Q192.646,44.027,181.155,30.53Z" transform="translate(34.163 92.211)" fill="#915b3c"/>
        <path id="Coat_Back" data-name="Coat Back" d="M0,2.231,8.485,0c34.377,24.814,52.145,76.707,93.78,101.378l-8.407,12.513C25.158,111.423,2.652,48.2,0,2.231Z" transform="matrix(0.996, 0.087, -0.087, 0.996, 127.889, 3.109)" fill="#e87613"/>
        <path id="Shirt" d="M0,114H76.511c3.5,0,2.837-5.048,2.332-7.6C73.011,77,50.241,45.312,50.241,3.461L28.172,0C9.917,29.358,3.6,65.5,0,114Z" transform="translate(90)" fill="#dde3e9"/>
        <path id="Coat_Front" data-name="Coat Front" d="M.1,159.513c-1.765-57.079,19.846-101,37.932-127.487a11.605,11.605,0,0,1-9.932-6.1C20.036,11.369,22.948,3.356,31.569.722S47.877,3.513,61.612,3.513a10.705,10.705,0,0,1,1.638.117l7.324.418s29.733,100.77,16.4,134.465H26.5a191.9,191.9,0,0,1-9.988,21Z" transform="translate(54.898 -3.513)" fill="#ff9b21"/>
        <path id="Shade" d="M22.6,36.546H0C4.145,26.59,8.718,14.295,13.591,0,15.62,17.616,18.651,29.912,22.6,36.545Z" transform="translate(81.397 98.454)" fill="rgba(0,0,0,0.1)"/>
      </g>
    </g>
    <g id="A_Human_Standing-2" data-name="A Human/Standing" transform="translate(13516 4066)">
      <g id="Head_Front-2" data-name="Head/Front" transform="translate(126)">
        <g id="Head-3" data-name="Head" transform="translate(54 31)">
          <path id="Head-4" data-name="Head" d="M0,73,8.262,34.49C3.655,29.081.536,22.452,1.057,15.025c1.5-21.4,31.292-16.692,37.086-5.891s5.107,38.2-2.382,40.129c-2.987.77-9.349-1.116-15.825-5.019L24,73Z" fill="#b28b67"/>
        </g>
        <path id="hair-2" data-name="hair" d="M72.776,11.16A5.191,5.191,0,0,0,69.14,7.474,4.788,4.788,0,0,0,67.8,7.341c-.161.006-.206.053-.282-.06a1.48,1.48,0,0,1-.08-.386,7.282,7.282,0,0,0-.272-.9A7.354,7.354,0,0,0,65.4,3.357,8.929,8.929,0,0,0,60.032.82a7.819,7.819,0,0,0-3.224.44,12.767,12.767,0,0,0-1.565.669c-.153.077-.648.452-.8.427-.169-.027-.51-.447-.647-.553A9.478,9.478,0,0,0,47.872,0c-2.392.018-4.7.137-6.69,1.6a13.38,13.38,0,0,0-1.207,1c-.2.187-.4.382-.583.584q-.169.183-.327.375c-.179.218-.15.289-.4.137a4.973,4.973,0,0,0-3.193-.718,7.146,7.146,0,0,0-1.928.545c-.209.09-.694.447-.917.45s-.7-.328-.927-.412A7.6,7.6,0,0,0,27.846,3.2a9.948,9.948,0,0,0-3.777,1.485,5.078,5.078,0,0,0-1.4,1.273c-.165.227-.313.468-.5.678-.109.123-.326.25-.384.406a8.3,8.3,0,0,0-1.6-.707,3.944,3.944,0,0,0-2.253.086,8.958,8.958,0,0,0-3.552,2.524,10.086,10.086,0,0,0-1.315,1.766q-.268.455-.492.934a3.474,3.474,0,0,1-.216.487c-.123.179-.206.183-.429.261a6.93,6.93,0,0,0-2.951,1.976,6.8,6.8,0,0,0-1.528,3.24,1.651,1.651,0,0,1-.061.4c-.056.052-.284.029-.37.039a7.787,7.787,0,0,0-.887.156,7.321,7.321,0,0,0-1.559.561A8.148,8.148,0,0,0,.576,23.536a9.676,9.676,0,0,0,.151,6.624,6.472,6.472,0,0,0,.492.97c.118.189.156.19.079.388-.085.221-.241.436-.342.651A9.352,9.352,0,0,0,.25,34.385a10.388,10.388,0,0,0-.122,3.829,5.527,5.527,0,0,0,.591,1.68,4.819,4.819,0,0,0,.518.752c.1.121.21.237.323.348a2.155,2.155,0,0,1,.2.189c.134.172.162.031.093.284a11.335,11.335,0,0,1-.451,1.048c-.138.355-.264.715-.378,1.078a15.906,15.906,0,0,0-.55,2.247,7.056,7.056,0,0,0,.5,4.365,4.367,4.367,0,0,0,1.235,1.47,4.584,4.584,0,0,0,.811.493c.147.07.335.1.4.242s-.035.457-.059.628a10.466,10.466,0,0,0,.123,4.509,6.23,6.23,0,0,0,2.469,3.315,7.683,7.683,0,0,0,7.68.218A8.063,8.063,0,0,0,15.353,59.9c1.315,1.771,4.022,1.714,5.944,1.21a8.538,8.538,0,0,0,5.424-4.482c1.514,1.843,4.691,1.245,5.741-.754a4.784,4.784,0,0,0,.484-1.574c.039-.287.014-.576.044-.861a4.449,4.449,0,0,1,.419-1.066,5.886,5.886,0,0,0,.447-2.125,10.789,10.789,0,0,0-.082-1.141,3.921,3.921,0,0,1,.116-1,4.585,4.585,0,0,1-1.941-.243,3.833,3.833,0,0,1-1.5-1.055,8.756,8.756,0,0,1-1.888-3.529c-.854-2.8-.5-6.149,2.308-7.683,1.31-.715,5.234-.712,6.794-.359,1.64.371,3.5,3.991,3.591,4.331.057.211.028.471.222.611.425.308,1.126-.227,1.44-.491a5.678,5.678,0,0,0,1.261-1.678,20.755,20.755,0,0,0,1.73-4.243c.32-1.131.524-2.3.942-3.4a5.2,5.2,0,0,1,2.091-2.7,18.409,18.409,0,0,1,3.6-1.456,8.928,8.928,0,0,0,3.327-1.828,4.6,4.6,0,0,0,.571-.636c.131-.183.26-.532.459-.648.31-.18.761.288,1.029.458a11.891,11.891,0,0,1,3.311,3.286,20.447,20.447,0,0,1,2.2,3.912,11.313,11.313,0,0,0,1.478,3.263c.343.385,2.894.618,3.72.282a4.7,4.7,0,0,0,2.029-1.756,2.728,2.728,0,0,0,.23-1.788c-.071-.361-.217-.7-.3-1.052a3.279,3.279,0,0,0-.273-.851,2.1,2.1,0,0,0-1.309-1.043,6.147,6.147,0,0,0,1.414-1.917,8.229,8.229,0,0,0,.732-2.5,3.033,3.033,0,0,0-.405-1.946,5.124,5.124,0,0,0-1.661-1.379A10.807,10.807,0,0,0,71.4,17.552,7.864,7.864,0,0,0,72.776,11.16Z" transform="translate(30 14)" fill="#191847"/>
      </g>
      <g id="Bottom_Skinny_Jeans_1-2" data-name="Bottom/Skinny Jeans 1" transform="translate(0 195)">
        <g id="Seat-3" data-name="Seat" transform="translate(10 42)">
          <path id="Seat-4" data-name="Seat" d="M131,124H16A16,16,0,0,1,0,108V16A16,16,0,0,1,16,0H131a16,16,0,0,1,16,16v92a16,16,0,0,1-16,16ZM32,28a4.005,4.005,0,0,0-4,4V92a4.005,4.005,0,0,0,4,4h83a4,4,0,0,0,4-4V32a4,4,0,0,0-4-4Z" transform="translate(43 0)" fill="#c5cfd6"/>
        </g>
        <path id="Skin-2" data-name="Skin" d="M126.572,64.414c-6.368-22.307-11.213-41.937-12.437-49.268-2.92-17.48,22.461-18.5,25.816-9.811,5.078,13.149,13.943,56.351,24.594,121.606l-12.175,3.552C139.559,102.136,130.292,77.442,126.572,64.414ZM3.75,41.5c11.756-4.647,52.924-19.189,72.779-23.3,5.706-1.183,11.236-2.281,16.435-3.273,15.454-2.95,23.46,24.929,8.576,27.071C64.473,47.328,11.924,52.837,7.428,53.456a5.731,5.731,0,0,1-.778.053C.749,53.51-3.331,44.3,3.75,41.5Z" transform="translate(119.138 32.166)" fill="#b28b67"/>
        <path id="Leg_Back" data-name="Leg Back" d="M63.76,42.729a13,13,0,0,1-.172-3.313L0,7.047V0H7.562s92.277,23.513,94.307,30.137c.014.047.027.093.038.14q.047.062.093.125c12.191,16.767,19.493,98.624,21.89,104.753l-23.362,3.486C91.591,105.5,63,82.418,63.76,42.729Z" transform="translate(158)" fill="#1f28cf"/>
        <path id="Leg_Front" data-name="Leg Front" d="M31.077,65.228l19.206-6.588c-5.817-1.164-11.176-2.2-15.76-3.008C4.909,50.438-3.726,34.586,1.38,0H55.942c8.913,2.561,55.232,21.985,79.265,32.316,15.906,6.838,10.892,31.488,1.884,37.9a.879.879,0,0,1-.5.781C103.268,84.811,74.732,84.14,56,83.47c-8.509-.3-15-.609-19,.443Z" transform="translate(113)" fill="#2b44ff"/>
        <g id="Right_Shoe-3" data-name="Right Shoe" transform="matrix(0.438, 0.899, -0.899, 0.438, 148.565, 57.151)">
          <path id="shoe-3" data-name="shoe" d="M4.474,5.033A2,2,0,0,0,1.908,6.381L0,13.106A64.242,64.242,0,0,0,.9,21H57.3s2.2-7.268-2.538-7.848-7.87-1.047-7.87-1.047L20.68.419a1,1,0,0,0-1.332.532L17.663,5.039s-4.385,2.046-7.127,2.046Z" transform="translate(1 19)" fill="#e4e4e4"/>
        </g>
        <g id="Right_Shoe-4" data-name="Right Shoe" transform="translate(263 132)">
          <path id="shoe-4" data-name="shoe" d="M4.474,5.033A2,2,0,0,0,1.908,6.381L0,13.106A64.242,64.242,0,0,0,.9,21H57.3s2.2-7.268-2.538-7.848-7.87-1.047-7.87-1.047L20.68.419a1,1,0,0,0-1.332.532L17.663,5.039s-4.385,2.046-7.127,2.046Z" transform="translate(1 19)" fill="#e4e4e4"/>
        </g>
      </g>
      <g id="Body_Long_Sleeve_1-2" data-name="Body/Long Sleeve 1" transform="translate(56.163 90)">
        <path id="Skin-3" data-name="Skin" d="M1.227,89.872c-1.116-.688-2.338-3.28.615-5.3C9.2,79.522,19.8,70.692,21.236,67.785,24.166,61.841,34.145,3.9,34.145,3.9l20.9.083s-19.354,62.481-20.9,66.3c-2.314,5.735,2.583,14.468,4.676,19.162-3.3,1.477-4.834-.409-6.512-2.294-1.789-2.01-3.745-4.019-8.184-1.954-5.68,2.643-10.377,6.838-15.975,6.838A12.989,12.989,0,0,1,1.227,89.872Zm178.7-56.225L150.473,16.28,159.881,0,188.21,27.635a85.858,85.858,0,0,1,20.26,11.646c1.184,1.428,2.473,4.164-3.1,2.94s-11.485-2.262-12.532-.451,2.038,4.587.1,6.959a.732.732,0,0,1-.593.283Q189.684,49.013,179.93,33.647Z" transform="translate(34.163 89.123)" fill="#b28b67"/>
        <path id="Coat_Back-2" data-name="Coat Back" d="M0,2.231,8.485,0Q35.593,53.627,95,94.194l-24.957,36.37C29.32,90.685,2.652,48.2,0,2.231Z" transform="matrix(0.996, 0.087, -0.087, 0.996, 127.889, 3.109)" fill="#191847"/>
        <path id="Shirt-2" data-name="Shirt" d="M0,114H77S50.241,48.938,50.241,3.461L27.014,0C8.76,29.358,3.6,65.5,0,114Z" transform="translate(90)" fill="#dde3e9"/>
        <path id="Coat_Front-2" data-name="Coat Front" d="M0,147C8.421,52,61.5,0,61.5,0l.018.016L61.531,0h1.517c2.722.094,8.29.338,8.29.338l5.612,16.04c.891,29.333,10.4,118.229,10.4,118.229H36.95q.129,6.113.581,12.394Z" transform="translate(55 0)" fill="#2f3676"/>
        <path id="Shade-2" data-name="Shade" d="M14.277,52.767H.235a255.488,255.488,0,0,1,3.8-49.5A268.911,268.911,0,0,0,7.422,30.954c1.829,9.909,4.135,17.247,6.854,21.811Z" transform="translate(91.723 82.233)" fill="rgba(0,0,0,0.1)"/>
        <path id="Light" d="M0,11.571,24.889,0V11.571Z" transform="translate(103.111 92.429)" fill="rgba(255,255,255,0.2)"/>
      </g>
    </g>
  </g>
</svg>
