<svg width="250" height="252" xmlns="http://www.w3.org/2000/svg" preserveAspectRatio="xMidYMid meet">
 <defs>
  <clipPath id="a">
   <path id="svg_1" d="m453,467l46,0l0,32.33984l-46,0l0,-32.33984zm0,0"/>
  </clipPath>
  <clipPath id="b">
   <path id="svg_2" d="m534,139l55.21094,0l0,50l-55.21094,0l0,-50zm0,0"/>
  </clipPath>
 </defs>
 <g>
  <title>Layer 1</title>
  <g stroke="null" id="svg_51">
   <g stroke="null" transform="matrix(0.3837263681654552,0,0,0.3837263681654552,-525.7373511110152,-602.6830404315773) " id="svg_41">
    <g stroke="null" id="svg_39">
     <path stroke="null" id="svg_42" fill="#fff" d="m1563.55667,1753.29518c0.46485,0.88671 19.11329,11.22656 21.23047,32.37109c2.11328,21.14062 1.57422,36.73047 -3.29297,45.82812c-4.86328,9.09766 -34.62109,11.22657 -34.62109,11.22657c0,0 -4.82812,15.51953 3.14063,25.75c7.96875,10.23047 -3.14063,20.92968 -3.14063,20.92968l-22.14844,-15.93359c0,0 0.09766,-8.05859 0.85157,-12.58203c0.75,-4.52344 -0.5625,-12.72266 -0.5625,-12.72266c0,0 -19.45313,-10.27343 -21.21485,-12.43359c-1.76562,-2.16406 -3.66015,-40.8125 -2.57812,-42.70703c1.08203,-1.89063 23.46875,-17.83594 25.25,-14.86328c1.78125,2.97265 20.40234,-2.4336 20.40234,-2.4336l16.68359,-22.42968"/>
    </g>
    <g stroke="null" id="svg_38">
     <path stroke="null" id="svg_43" fill="#fff" d="m1514.20121,1925.14674c0,0 6.90625,29.00781 18.23046,39.1875c11.32422,10.18359 43.50782,19.09375 67.72657,13.82031c0,0 7.97656,-0.12891 15.21093,-6.91016l-1.22265,-8.39062l2.98047,-1.66797l10.28125,5.33203l11.65234,-2.96875l-1.43359,-9.94531l3.88281,-1.03906l0.13281,-8.375l-5.71875,-2.31641l0,-8.24219l5.69141,-2.23437l-0.03125,-15.1836l6.80078,-3.61718l0.60547,-10.77344l-43.54688,-3.78125l-25.36718,7.88672l-28.80469,7.88672l-37.07031,11.33203"/>
    </g>
    <g stroke="null" id="svg_37">
     <path stroke="null" id="svg_44" fill="#fff" d="m1517.09183,2066.92018l3.80469,144.42968l46.03906,-4.21093l-2.42187,-8.1211c0,0 -25.07813,-1.21094 -28.92969,-0.36719c0,0 9.03906,-110.37109 6.1289,-126.76562l9.53516,3.50391l2.26172,113.6914l40.57422,-3.97656l2.07422,-4.82422c0,0 -13.29688,-7.44922 -29.22266,-0.54687c0,0 7.15234,-99.48829 6.0625,-110.09375l-55.90625,-2.71875"/>
    </g>
    <g stroke="null" id="svg_36">
     <path stroke="null" id="svg_45" fill="#dc4d79" d="m1516.40042,1872.29518c0.0625,0.23046 -5.6914,2.875 -7.16406,14.79296c-1.47265,11.91797 -3.75,38.00391 -3.75,38.00391c0,0 14.60938,8.91797 28.65235,0.60156l17.48437,33.53516l-0.17578,-7.88672l1.63672,-1.33984l-0.49219,-7.61328l2.46484,0l0.28516,-16.8125l-5.60937,-1.6211l0.28125,-10.14062l22.60156,-5.58985l6.69531,-2.6875c0,0 -1.78516,-22.55468 -19.38672,-35.33593c0,0 1.00391,-8.39844 -11.64844,-5.57032l-2.90234,16.54297l-20.35937,-17.39453c0,0 -9.99219,3.30859 -8.61329,8.51563"/>
    </g>
    <g stroke="null" id="svg_35">
     <path stroke="null" id="svg_46" fill="#dc4d79" d="m1524.10746,1954.91627c0,0 16.13281,26.45703 59.68359,24.37891c0,0 12.97656,70.38671 12.60547,85.3164l0,2.875c0,0 -58.30469,28.00391 -102.89453,-18.20703l29.875,-92.01562"/>
    </g>
    <g stroke="null" id="svg_34">
     <path stroke="null" id="svg_47" fill="#100f0d" d="m1584.70121,1798.40064c0.10156,11.92188 -2.57032,24.67188 -10.99219,33.60157c-8.5586,9.07422 -22.10156,11.96484 -32.57422,4.32031c-1.47266,-1.07813 -2.88672,1.37891 -1.42969,2.44531c1.46875,1.07031 3.01953,1.9375 4.61328,2.64453c-0.58203,6.22657 0.17578,12.4375 0.42578,18.66016c0.07813,2 0.33204,4.45312 2.11719,5.50781c0.02735,4.50391 -1.23828,8.85938 -2.35547,13.20703c-6.4414,-4.63672 -12.43359,-9.79687 -17.96875,-15.49218c0.64453,-3.47657 1.44922,-6.89844 1.34766,-10.46485c0,-0.04687 -0.02344,-0.07812 -0.02734,-0.125c0.94921,-1.09375 1.73437,-2.36719 2.27343,-3.84375c2.33203,-6.39844 0.00391,-13.0625 -2.29687,-19.08594c-0.07813,-0.21093 -0.19141,-0.38281 -0.32422,-0.51953c-0.39453,-0.48437 -1.05859,-0.73047 -1.75391,-0.32812c-6.1914,3.60547 -13.77734,-0.83594 -15.39062,-7.26953c-0.75781,-3.02344 -0.25391,-6.41797 0.71875,-9.32813c0.67969,-2.03125 1.61719,-3.69531 3.16015,-5.1914c2.375,-2.29688 8.30469,-5.89844 9.96485,1.62109c0.07812,0.35937 0.2539,0.60937 0.47656,0.77344c0.30078,0.28515 0.73438,0.41406 1.26563,0.21875c12.39843,-4.61328 25.36718,-10.44922 33.67187,-21.1836c7.04297,-9.10156 10.35156,-20.49609 7.03906,-31.29687c12.3125,9.8164 17.89844,25.44922 18.03907,41.1289zm-3.85157,42.17969c1.19922,-1.78906 2.09375,-3.70703 2.76172,-5.66797c-0.52344,2.20703 -1.40234,4.14844 -2.76172,5.66797zm-24.1875,25.4336c1.70313,0.63671 1.86328,5.61718 1.8711,7.07812c0.00781,1.60938 0.01172,3.21484 -0.02344,4.82031c-0.05859,2.85547 -0.23438,5.6836 -0.57813,8.50391c-3.21093,-2.60547 -7.07031,-4.56641 -10.89062,-6.09766c1.1875,-4.74609 2.62891,-9.49218 2.65625,-14.40234c2.28906,-0.53125 4.73437,-0.74219 6.96484,0.09766zm-19.0625,26.42187c-7.01562,-6.21094 -13.61328,-12.82031 -19.78125,-19.89062c1.09375,-2.98047 3.4336,-5.39063 6.40625,-6.52735c0.25782,-0.10156 0.45313,-0.2539 0.60547,-0.42969c5.73438,5.86329 11.95313,11.16407 18.625,15.92579c-2.58594,3.34765 -4.52344,6.92968 -5.85547,10.92187zm-17.44531,-35.79297c1.76953,-0.1914 3.39844,-0.71875 4.83594,-1.55078c-0.20313,2.74219 -0.82813,5.41016 -1.3086,8.13672c-0.07031,0.01562 -0.13671,0.02734 -0.21093,0.05469c-4.00391,1.53515 -7.00391,4.58593 -8.4336,8.63281c-0.21484,0.60547 -0.01172,1.08594 0.35938,1.38281c-0.0625,0.38281 0.02344,0.79688 0.34375,1.16797c6.6914,7.67969 13.87109,14.83594 21.5664,21.50781c0.78907,0.6836 2.07422,0.46094 2.3711,-0.625c1.26562,-4.67968 3.27344,-8.6914 6.26172,-12.4375c4.23828,1.6836 8.63672,3.98438 11.86718,7.16407c0.63282,0.9414 2.28125,1.08203 2.5,-0.29688c0.97657,-6.16797 1.16407,-12.375 1.04297,-18.61328c-0.0664,-3.49219 -0.36718,-6.55078 -3.9375,-7.88281c-2.77343,-1.04688 -5.92968,-0.72266 -8.76953,-0.02344c-1.76562,-0.43359 -1.40625,-9.73047 -1.48047,-10.875c12.14063,2.17187 25.21875,-0.8125 34.83985,-8.83984c8.28515,-6.91797 4.2539,-22.35547 4.36328,-31.71875c0,-0.01563 -0.00781,-0.02344 -0.01172,-0.03907c0.35547,-1.83203 0.63281,-3.67578 0.81641,-5.51953c2.05468,-20.5039 -4.62891,-42.4375 -22.57813,-53.97265c-0.15625,-0.19141 -0.34766,-0.3086 -0.55078,-0.3711c-13.48047,-9.14453 -30.01563,-13.71875 -46.08984,-9.48047c-15.05079,3.96485 -25.89454,14.96485 -31.55079,29.22657c-3.23828,8.16406 -4.73046,16.87109 -5.67968,25.5625c-1.03907,9.54296 -2.02344,19.41406 -0.84375,28.98828c1.65234,13.37109 9.26172,26.7539 23.20703,29.77343c0.09765,0.0586 0.21094,0.10938 0.33594,0.14844c5.73828,1.73047 10.89062,1.98438 16.71093,0.50781c0.00782,0 0.01563,-0.0039 0.02344,-0.00781"/>
    </g>
    <g stroke="null" id="svg_33">
     <path stroke="null" id="svg_48" fill="#100f0d" d="m1640.60355,1930.24049c-15.46484,5.09765 -30.92578,10.19531 -46.39063,15.29297c0.46875,-4.57813 0.42579,-9.20703 0.28125,-13.8086c0.06641,-0.15234 0.1211,-0.3164 0.13282,-0.51172c0,-0.02343 0,-0.05078 0.0039,-0.07421c4.29688,-1.04297 8.77344,-1.40625 13.03516,-2.59375c11.10937,-2.92188 22.03125,-6.40625 32.77344,-10.42579c0.53515,3.97657 0.57422,8.12891 0.16406,12.1211zm-7.01172,10.51562c-13.19922,5.07032 -26.40234,10.13672 -39.60156,15.20703c0.01953,-2.46484 0.03906,-4.92968 0.05859,-7.39453c13.41406,-4.42187 26.83203,-8.84765 40.2461,-13.26953c-0.23438,1.82031 -0.46485,3.63672 -0.70313,5.45703zm3.79688,10.22657c-3.46485,-2.5 -8.00782,-0.28907 -9.80079,3.13281c-0.30078,0.57422 -0.53515,1.1875 -0.73437,1.82031c-4.18359,1.52734 -8.32031,3.15234 -12.42969,4.85938c-1.35547,-1.9961 -3.36719,-3.29297 -6.32812,-2.91797c-3.75391,0.47265 -5.30078,3.41797 -6.28907,6.70703c-0.1914,0.02344 -0.38281,0.07031 -0.57031,0.15234c-1.28906,0.57031 -2.67187,0.90235 -3.98828,1.41797c-0.11328,-2.33984 -0.22656,-4.67578 -0.33594,-7.01562c-0.02343,-0.48438 -0.25,-0.83204 -0.5625,-1.0586c12.76953,-4.90625 25.53907,-9.80859 38.3086,-14.71094c0.15234,-0.05859 0.27343,-0.14062 0.39062,-0.22656c0.0625,-0.01172 0.12891,-0.02734 0.19141,-0.04687c0.09375,0.05468 0.19531,0.10547 0.30859,0.14453c1.5,0.51562 3.08985,0.60156 4.63672,0.90625c0.26172,2.44922 0.13672,4.875 -0.01953,7.32422c-0.59766,0.15234 -1.19531,0.28906 -1.78906,0.44531c-0.28907,-0.33984 -0.60938,-0.66016 -0.98828,-0.93359zm-1.06641,12.51171c-2.08984,1 -4.86719,1.17969 -7.33203,1.58594c-0.07031,-1.83203 -0.03516,-3.67578 0.09375,-5.49609c0.10937,-1.53906 0.33984,-3.08594 1.15234,-4.4336c1.14844,-1.90234 3.96875,-3.41015 5.89844,-1.53515c0.05469,0.05078 0.09375,0.11719 0.14844,0.17578c0.05468,0.44922 0.28906,0.87109 0.66015,1.09375c0.48828,1.19922 0.55469,2.67187 0.64453,3.82422c0.14454,1.84765 0.69532,3.84765 -1.26562,4.78515zm-10.21875,0.94532c-2.19141,-0.94532 -4.40234,-1.82813 -6.64063,-2.64844c2.23047,-0.89063 4.47266,-1.75 6.72657,-2.58594c-0.1875,1.73828 -0.17578,3.52735 -0.08594,5.23438zm-69.46875,-38.45703c11.76172,1.16406 23.39453,3.03125 35.01172,5.27734c0.17187,4.98828 0.27734,10.05859 -0.34766,15.01562c-11.57422,-1.79296 -23.1875,-3.32421 -34.80469,-4.80468c0.09766,-5.125 0.65235,-10.375 0.14063,-15.48828zm48.05078,-26.51954c12.23047,0.07813 24.33594,1.59766 36.46484,2.94532c-15.90234,4.30078 -31.64062,9.53906 -46.91406,15.65234c-0.14844,-0.0625 -0.30469,-0.11328 -0.48828,-0.125c-12.90234,-0.625 -25.73828,-1.88281 -38.50391,-3.78516c16.81641,-3.69531 33.02344,-9.54296 49.44141,-14.6875zm-53.5,23.19922c0.05859,-2.08593 0.11719,-4.17187 0.17188,-6.25781c13.4414,2.11328 26.95312,3.53906 40.53906,4.26172c-0.02344,2.58594 -0.05078,5.16797 -0.07813,7.75c-13.46875,-2.58984 -26.95312,-4.66406 -40.63281,-5.75391zm2.83594,21.32813c12.41406,1.57422 24.82422,3.1875 37.1914,5.11719c-0.01953,2.40625 -0.03906,4.8164 -0.05859,7.22656c-12.33984,-2.03906 -24.68359,-3.89844 -36.76172,-7.17578c-0.23828,-1.75391 -0.33984,-3.4336 -0.37109,-5.16797zm-1.37891,7.625c12.89453,3.59375 26.10938,5.5039 39.30078,7.70312c0.27735,0.16407 0.63672,0.20703 1.05469,0.05078c0.37109,-0.14453 0.74219,-0.28515 1.10938,-0.42968c-0.00391,0.07031 -0.03125,0.125 -0.02735,0.19922c0.10547,2.25781 0.21485,4.51562 0.32422,6.77343c-13.93359,-1.3789 -27.72656,-3.75781 -41.46484,-6.45703c-0.21875,-2.58203 -0.35157,-5.23437 -0.29688,-7.83984zm93.875,-38.86328c-12.93359,5.16015 -26.13281,9.51562 -39.60156,13.0625c-4.00781,1.11328 -8.19922,1.5 -12.26172,2.40625c0.02344,-2.44141 0.05078,-4.88282 0.07422,-7.32422c17.16797,-6.88672 34.92578,-12.65235 52.84766,-17.24219c-0.01954,3.08203 -0.31641,6.07422 -1.0586,9.09766zm3.89063,-10.92969c-0.01563,-0.47656 -0.22266,-0.82031 -0.51172,-1.04688c-0.22656,-0.21484 -0.52344,-0.35546 -0.87891,-0.35937c-0.00781,-0.00391 -0.01562,-0.00781 -0.02734,-0.00781c-14.73047,-1.44922 -29.375,-3.67188 -44.20313,-3.77735c-0.20312,-0.03906 -0.42968,-0.03515 -0.67968,0.04297c-0.06641,0.01953 -0.13282,0.04297 -0.19922,0.0625c-0.00782,0.00391 -0.01953,0.00781 -0.02735,0.01172c-17.98047,5.63672 -35.69531,12.14063 -54.24609,15.69922c-0.74219,0.14453 -1.03906,0.69922 -1.01172,1.27344c-0.00391,0.03515 -0.02344,0.05859 -0.02734,0.09375c-0.01953,0.25781 -0.03907,0.51562 -0.0586,0.77734c-0.00781,0.09766 0.02344,0.16797 0.03125,0.25391c-0.08593,3.03906 -0.16797,6.07422 -0.25,9.10937c-0.02343,0.76172 0.46485,1.1875 1.03907,1.3125c0.12109,0.03906 0.23437,0.09375 0.375,0.10547c1.35156,0.09766 2.69921,0.21875 4.05078,0.33984c0.63672,5.03907 0.01953,10.3125 -0.11328,15.39844c-0.35938,-0.04687 -0.71875,-0.09375 -1.07813,-0.14062c-0.70312,-0.08594 -1.125,0.29297 -1.27734,0.80078c-0.08594,0.17578 -0.13672,0.3789 -0.13672,0.61719c-0.00391,2.0625 0.07422,3.99609 0.28515,5.98437c-0.55468,-0.08594 -0.99609,0.14844 -1.26171,0.53125c-0.1875,0.22656 -0.31641,0.51563 -0.33594,0.86719c-0.08594,1.42969 -0.08594,2.89062 -0.05469,4.35547c-4.91016,-9.66797 -9.26562,-19.6211 -14.44922,-29.14844c-0.87109,-1.60156 -3.32031,-0.17188 -2.44531,1.42969c6.17578,11.35937 11.17187,23.32031 17.34375,34.68359c0.07812,0.35547 0.30469,0.66797 0.70703,0.82813c0.16406,0.08203 0.33594,0.125 0.51172,0.1289c15.19141,2.9961 30.44922,5.625 45.87891,6.98438c0.3789,0.03515 0.66015,-0.08203 0.88281,-0.25782c0.88281,-0.38671 1.80859,-0.66796 2.72656,-0.96484c-0.32422,1.33594 -0.64062,2.61719 -1.0625,3.69531c-0.66406,1.69922 2.07422,2.4375 2.73047,0.75391c1.28906,-3.30078 1.03906,-8.13672 3.87891,-10.61719c2.3164,-2.01953 5.15625,-0.41406 6.41015,1.92578c1.0586,1.98047 1.14063,4.41016 1.27735,6.59375c0.0039,0.0586 0.03125,0.10157 0.04296,0.15625c-8.44921,6.31641 -18.13281,7.42188 -28.4414,7.54297c-11.1875,0.12891 -22.23438,-1.29297 -32.91016,-4.71094c-11.00781,-3.51953 -20.82031,-8.6289 -26.63281,-19.03515c-4.63281,-8.29297 -6.92969,-17.69922 -10.83594,-26.33985c-0.75,-1.65625 -3.1914,-0.21875 -2.44531,1.42969c4.56641,10.10547 6.96484,21.4375 13.51172,30.5625c6.16015,8.58985 15.84375,12.97656 25.64844,16.11719c11.57031,3.70312 23.54296,5.05078 35.66015,4.77734c10.26563,-0.23437 19.96094,-1.77343 28.28516,-8.19531c0.45312,-0.34766 0.61719,-0.83594 0.58594,-1.30469c0.23828,-0.22656 0.39062,-0.55859 0.36328,-1c-0.125,-2.03515 -0.48828,-4.53906 -1.3125,-6.76562c0.08203,0.04687 0.16797,0.08594 0.26172,0.12109c3.6289,1.23828 7.1875,2.63672 10.68359,4.21485c0.30469,0.36328 0.78516,0.57421 1.38281,0.42187c2.58203,-0.66406 5.21875,-1.05469 7.81641,-1.64062c1.68359,-0.375 3.84375,-0.77344 4.5625,-2.58985c0.80078,-2.01562 0.08594,-5.17187 -0.20313,-7.24609c-0.10156,-0.73828 -0.2539,-1.47656 -0.47656,-2.1836c0.71484,-0.17578 1.43359,-0.34375 2.14063,-0.5625c0.4414,-0.14062 0.71875,-0.42187 0.86718,-0.7539c0.01953,-0.03906 0.02735,-0.09375 0.04688,-0.13672c0.01562,-0.05078 0.03125,-0.10156 0.03906,-0.15625c0.03125,-0.10547 0.07813,-0.19922 0.08594,-0.32031c0.20703,-3.3711 0.40234,-6.60157 -0.08203,-9.96094c-0.10157,-0.70313 -0.58203,-1.00391 -1.10938,-1.01563c-1.74219,-0.46093 -3.5664,-0.48437 -5.28125,-1.03906c0.26563,-2.07812 0.53125,-4.15234 0.80078,-6.22656c1.39453,-0.46094 2.79688,-0.92188 4.19532,-1.38281c0.76562,0.10937 1.69921,-0.33203 1.83203,-1.32813c0.62109,-4.75781 0.54297,-9.73437 -0.14453,-14.5039c1.66015,-0.64063 3.32031,-1.29297 4.97656,-1.95704c0.01953,-0.00781 0.03515,-0.01953 0.05859,-0.03125c0.41797,-0.10546 0.78125,-0.41015 0.92969,-0.95703c1.08984,-4.07812 1.41406,-8.1289 1.30469,-12.33984"/>
    </g>
    <g stroke="null" id="svg_32">
     <path stroke="null" id="svg_49" fill="#100f0d" d="m1585.29886,2207.47877c0.02344,-0.08203 0.03516,-0.16797 0.04297,-0.25c0.01172,-0.11719 0.00781,-0.22656 -0.00391,-0.34375c0,-0.00391 0,-0.00781 -0.0039,-0.01172c-0.0586,-0.47266 -0.3125,-0.89844 -0.78906,-1.06641c-5.10157,-3.46875 -10.57813,-5.66015 -16.26563,-7.01171c-0.23047,-0.16407 -0.51172,-0.2461 -0.83984,-0.21094c-9.82032,-2.1875 -20.2461,-1.94141 -30.44532,-1.42188c4.61719,-40.36328 6.26172,-80.96093 6.1211,-121.57812c-0.00781,-1.82422 -2.83985,-1.82813 -2.83203,0c0.14062,41.23828 -1.54688,82.45703 -6.33203,123.43359c-0.15625,1.35156 1.38281,1.67969 2.26171,1.01563c8.28907,-0.4336 16.73829,-0.7461 24.88672,0.32031c-12.73437,3.31641 -25.75,4.80859 -38.95703,4.48828c-1.21094,-45.77734 -2.42187,-91.55469 -3.63281,-137.33203c-0.04688,-1.82031 -2.87891,-1.82813 -2.83203,0c1.21875,46.15234 2.4414,92.30078 3.66015,138.45312c-0.02734,0.1836 -0.02343,0.36719 0.01563,0.55079c0.04297,1.61328 0.08594,3.22656 0.125,4.83593c0.00781,0.24219 0.07031,0.44922 0.16406,0.62891c0.17969,0.46484 0.59375,0.82031 1.25391,0.78906c20.97656,-1.05078 41.8789,-3.13672 62.85547,-4.19531c0.51172,0.125 0.97656,-0.10938 1.26953,-0.50781c0.0039,-0.00391 0.0039,-0.00391 0.0039,-0.00782c0.09375,-0.12109 0.16797,-0.2539 0.22266,-0.39843c0.02344,-0.0625 0.03906,-0.11719 0.05078,-0.17969"/>
    </g>
    <g stroke="null" id="svg_31">
     <path stroke="null" id="svg_50" fill="#100f0d" d="m1614.11917,2188.26783c-11.07031,-10.52734 -30.76171,-14.34765 -45.58593,-10.44922c3.29297,-34.0625 5.25781,-68.21484 5.8789,-102.42968c0.03516,-1.82422 -2.80078,-1.82422 -2.83203,0c-0.63281,34.85937 -2.65234,69.64843 -6.05859,104.34375c-0.0586,0.58203 0.20703,0.95312 0.58203,1.16015c0.30078,0.25 0.71094,0.36328 1.21094,0.20703c8.05078,-2.57812 18.03125,-2.55859 27.1289,-0.14453c-13.08984,2.59375 -26.3164,3.27344 -39.64453,2.05469c-0.72656,-35.70703 -1.45312,-71.41016 -2.17969,-107.11719c-0.03515,-1.82031 -2.87109,-1.82422 -2.83203,0c0.76563,37.73047 1.53516,75.46094 2.30469,113.1875c0.00781,0.36328 0.14453,0.63281 0.32813,0.84766c0.03515,0.05859 0.07421,0.10937 0.12109,0.16015c0.01562,0.01172 0.03516,0.02735 0.05469,0.04297c0.22265,0.21094 0.51562,0.36328 0.91406,0.36719c19.86719,0.25781 39.73828,-0.06641 59.60937,0.1875c0.61329,0.00781 1.00391,-0.31641 1.20704,-0.74219c0.3125,-0.49609 0.34765,-1.14843 -0.20704,-1.67578"/>
    </g>
   </g>
  </g>
  <defs>
   <clipPath id="svg_103">
    <path id="svg_117" d="m7457.03539,3870.80562l46,0l0,32.33984l-46,0l0,-32.33984zm0,0"/>
   </clipPath>
   <clipPath id="svg_100">
    <path id="svg_118" d="m7538.03539,3542.80562l55.21094,0l0,50l-55.21094,0l0,-50zm0,0"/>
   </clipPath>
  </defs>
  <defs>
   <clipPath id="svg_28">
    <path d="m7117.59674,4012.4877l46,0l0,32.33984l-46,0l0,-32.33984zm0,0" id="svg_78"/>
   </clipPath>
   <clipPath id="svg_25">
    <path d="m7198.59674,3684.4877l55.21094,0l0,50l-55.21094,0l0,-50zm0,0" id="svg_79"/>
   </clipPath>
  </defs>
  <g stroke="null" id="svg_97">
   <g stroke="null" id="svg_80" transform="matrix(0.41256680469392804,0,0,0.41256680469392804,-2772.6519779547125,-1423.6199806035886) ">
    <g stroke="null" id="svg_60">
     <path stroke="null" d="m7004.40143,3645.74942l32.78125,15.89844l15.32031,-0.46094l41.62109,-15.62891l1.91016,20.27344c0,0 2.12891,1.51172 6.37891,1.98438l0.15625,13.0625l-4.48828,5.29687l5.42968,17.82813l2.6211,-11.11719l8.54297,20.74219l9.84375,-24.71875l3.10937,10.62109c0,0 4.24609,-6.625 -1.09766,-17.21094c0,0 -4.92578,-10.30469 -1.36328,-17.70703c0,0 12.51172,-8.88281 18.51172,-20.71094c0,0 13.40235,6.48047 15.98438,-8.67968c2.58593,-15.16016 -11.47657,-10.98047 -13.38282,-8.04297c0,0 -13.92968,5.07031 -24.67578,-5.49219c0,0 -11.4375,10.00391 -20.44922,6.5625c-9.01562,-3.44141 -12.95312,-17.09766 -12.95312,-17.09766c0,0 -9.42188,13.67969 -17.62109,19.51172c-8.20313,5.82813 -21.34375,19.0625 -25.58985,27.97266c0,0 -16.07031,-15.73438 -28.45312,-20.58985l-12.13672,7.70313" fill="#fff" id="svg_81"/>
    </g>
    <g stroke="null" id="svg_59">
     <path stroke="null" d="m7199.5694,3716.10489l19.10937,-10c0,0 2.9375,-13.76172 13.26563,-4.80078l-7.6836,-12.39453l5.14453,-2.2461l4.88672,8.96485l13.95313,-1.125l-1.98828,3.62109c0,0 4.91797,8.50781 5.66406,11.30078c0.74219,2.79688 -1.80078,8.17188 -6.20703,7.14453l5.92187,12.08203l-8.5,-6.23437l-2.39843,-3.98828l-11.16016,-1.04297c0,0 -18.16406,9.12109 -20.90234,14.87109c0,0 -8.19532,-6.21875 -9.10547,-16.15234" fill="#fff" id="svg_82"/>
    </g>
    <g stroke="null" id="svg_58">
     <path stroke="null" d="m7038.6319,3702.37051c0,0 -6.0625,20.49219 1.35547,31.8086c7.41406,11.32031 20.45703,22.43359 24.24218,25.52734c0,0 8.94532,-7.88281 12.70313,-15.62109l-13.64844,-11.82813c0,0 -1.28516,-10.98047 2.44531,-22.79687c3.72657,-11.8125 0,-14.51953 0,-14.51953l-16.24609,-1.82813l-10.85156,9.25781" fill="#fff" id="svg_83"/>
    </g>
    <g stroke="null" id="svg_57">
     <path stroke="null" d="m7084.5108,3773.31192c0,0 31.54297,13.51562 64.75782,1.30859l11.65234,79.19141l-17.30469,5.08984l-0.4414,38.39844c0,0 -12.95704,2.79688 -24.27735,0.55078l-0.77344,-36.15625l-8.23046,-0.26172l0.22656,33.65235c0,0 -16.55078,3.01562 -24.36719,-0.34766l-2.28516,-38.08594l-9.76171,-3.39453c0,0 9.53906,-68.01172 10.80468,-79.94531" fill="#fff" id="svg_84"/>
    </g>
    <g stroke="null" id="svg_56">
     <path stroke="null" d="m7088.72174,3727.82364c-0.99609,12.66015 -2.13672,25.3125 -3.41406,37.94531c-0.19531,1.92188 2.80859,1.90625 3,0c1.27734,-12.63281 2.41797,-25.28516 3.41406,-37.94531c0.15234,-1.92578 -2.84766,-1.91406 -3,0" fill="#fff" id="svg_85"/>
    </g>
    <g stroke="null" id="svg_55">
     <path stroke="null" d="m7036.2608,3667.85489c0.40235,6.91015 0.80469,13.82422 1.20313,20.73437c0.08594,1.4375 2.33594,1.44922 2.25,0c-0.39844,-6.91015 -0.80078,-13.82422 -1.20313,-20.73437c-0.08203,-1.4375 -2.33203,-1.44531 -2.25,0" fill="#fff" id="svg_86"/>
    </g>
    <g stroke="null" id="svg_54">
     <path stroke="null" d="m7051.5733,3672.5502c0.34766,5.62109 0.69141,11.24609 1.03516,16.86719c0.08984,1.4414 2.33984,1.44922 2.25,0c-0.34375,-5.6211 -0.6875,-11.2461 -1.03516,-16.86719c-0.08593,-1.44141 -2.33593,-1.44922 -2.25,0" fill="#fff" id="svg_87"/>
    </g>
    <g stroke="null" id="svg_53">
     <path stroke="null" d="m7087.07721,3727.00333c-0.84375,10.8125 -1.84766,21.59375 -3.00781,32.3789c-0.15625,1.4375 2.09375,1.42969 2.25,0c1.16015,-10.78515 2.16406,-21.5664 3.00781,-32.3789c0.11328,-1.44532 -2.13672,-1.4375 -2.25,0" fill="#fff" id="svg_88"/>
    </g>
    <g stroke="null" id="svg_52">
     <path stroke="null" d="m7143.62408,3895.58926c-12.13671,4.9375 -24.99218,0 -24.99218,0l0.33203,118.44141c23.23047,19.77734 27.65234,9.69922 27.65234,9.69922c-3.24609,-2.48438 -11.33203,-7.97266 -11.33203,-7.97266c3.10938,-21.00781 8.33984,-120.16797 8.33984,-120.16797" fill="#8B81EC" id="svg_89"/>
    </g>
    <g stroke="null" id="svg_40">
     <path stroke="null" d="m7085.75299,3894.7377l6.09766,110.46484c-7.10547,-0.84375 -13.9336,1.08594 -13.9336,1.08594c10.75782,7.7461 30.46094,4.07813 30.46094,4.07813l1.74219,-115.28125c-10.625,2.64843 -24.36719,-0.34766 -24.36719,-0.34766" fill="#8B81EC" id="svg_90"/>
    </g>
    <g stroke="null" id="svg_30">
     <path stroke="null" d="m7086.3194,3759.38223c-0.15625,1.42969 -2.40625,1.4375 -2.25,0c1.16015,-10.78515 2.16406,-21.5664 3.00781,-32.3789c0.11328,-1.4375 2.36328,-1.44532 2.25,0c-0.84375,10.8125 -1.84766,21.59375 -3.00781,32.3789zm114.91797,-44.30469c-4.75,3.0586 -19.74219,11.02735 -19.74219,11.02735c-7.125,-11.03125 -24.64063,-25.2461 -39.30078,-37.07422c-14.66016,-11.82422 -15.66407,-6.71094 -15.66407,-6.71094c4.76563,15.78906 1.62891,20.05078 1.62891,20.05078l-3.64062,-13.46093l-9.94922,21.20703l-8.03907,-17.23047c-1.87109,3.28515 -3.01953,11.11719 -3.01953,11.11719c-3.39453,-4.59375 -4.95703,-13.60157 -4.95703,-13.60157l2.60156,26.34766l-19.28515,7.52734c-3.9961,3.76172 -5.4961,19.38282 -5.4961,19.38282c-1.26562,7.0664 -12.14453,16.04687 -12.14453,16.04687c9.84375,10.86719 20.28125,13.60547 20.28125,13.60547c35.48047,14.96484 64.75782,1.30859 64.75782,1.30859l-5.78516,-46.20703c0,0 34.17578,22.08203 40.65625,24.79297c6.48047,2.71094 24.53516,-20.94922 24.53516,-20.94922c-6.23829,-4.45703 -7.4375,-17.17969 -7.4375,-17.17969" fill="#8B81EC" id="svg_91"/>
    </g>
    <g stroke="null" id="svg_29">
     <path stroke="null" d="m7117.5069,3895.58926c0.00781,1.44532 2.25781,1.44922 2.25,0c-0.05078,-10.98828 -0.46094,-21.96875 -0.5,-32.95703c7.77734,-0.08984 15.55078,-0.91406 23.23047,-2.46094c0.02734,11.8086 -0.13672,23.61329 -0.45704,35.41797c-0.03906,1.44532 2.21094,1.44532 2.25,0c0.32422,-11.96484 0.48829,-23.92578 0.45704,-35.89062c5.55859,-1.22656 11.0625,-2.82422 16.48046,-4.80078c1.12891,-0.41016 0.90625,-1.99219 0.00391,-2.21094c0.10156,-0.20313 0.16406,-0.42578 0.12891,-0.69141c-3.51953,-25.82031 -7.03907,-51.64453 -10.5625,-77.46484c-0.19532,-1.42969 -2.36328,-0.82031 -2.16797,0.59766c3.51953,25.82031 7.03906,51.64453 10.5625,77.46484c0.03125,0.25 0.14062,0.41406 0.26953,0.54687c-27.55859,9.75 -57.10938,9.7461 -84.50391,-0.61328c4.19141,-26.3164 7.73047,-52.73437 10.6875,-79.21484c0.16407,-1.4375 -2.08984,-1.42578 -2.25,0c-2.97265,26.62891 -6.53906,53.1875 -10.76562,79.64844c-0.03906,0.23828 0.00781,0.4414 0.08594,0.63281c0.09765,0.31641 0.3164,0.60156 0.69921,0.75c2.96875,1.14844 5.96875,2.17187 8.98438,3.08203c0.80469,12.43359 1.53906,24.875 2.24219,37.3125c0.08203,1.44141 2.33203,1.44922 2.25,0c-0.6875,-12.21875 -1.41407,-24.43359 -2.19922,-36.64453c7.92578,2.22266 15.99219,3.62891 24.10156,4.22266c0.21875,11.08984 0.39453,22.17968 0.49609,33.27343c0.01563,1.44532 2.26563,1.44922 2.25,0c-0.10156,-11.04687 -0.27734,-22.08984 -0.49218,-33.13281c1.98828,0.10938 3.98047,0.17578 5.96875,0.1875c0.03906,10.98438 0.44922,21.96094 0.5,32.94531" fill="#100f0d" id="svg_92"/>
    </g>
    <g stroke="null" clip-path="url(#svg_28)" id="svg_27">
     <path stroke="null" d="m7146.73737,4021.89004c-0.07813,-0.08203 -0.16797,-0.14453 -0.26954,-0.20312c-0.21484,-0.12891 -0.4375,-0.17578 -0.65234,-0.16406c-0.39062,0.01172 -0.77734,0.19531 -0.98828,0.60937c-0.05078,0.08594 -0.09375,0.17188 -0.125,0.26563c-2.62891,6.94922 -22.20313,-6.67969 -24.93359,-9.34766c-0.00782,-0.00391 -0.01563,-0.00781 -0.02344,-0.01562c0,0 0,-0.00391 -0.00391,-0.00391c-0.36719,-0.33984 -0.79687,-0.36328 -1.15625,-0.20703c-0.3164,0.10156 -0.57031,0.34375 -0.67578,0.70703c-0.05078,0.14062 -0.07422,0.29297 -0.0625,0.44531c0.00391,1.97266 0,3.94141 -0.00781,5.91406c-0.09375,0.32813 -0.01563,0.69532 0.33203,0.9961c0.00391,0.0039 0.00781,0.00781 0.01172,0.01172c0.00781,0.0039 0.01172,0.01172 0.01953,0.01562c12.71094,11.03906 27.44141,19.10938 43.59375,23.86328c1.01562,0.30078 1.65625,-0.80859 1.26953,-1.65234c-3.82031,-8.28516 -9.37109,-15.35156 -16.32812,-21.23438" fill="#100f0d" id="svg_93"/>
    </g>
    <g stroke="null" id="svg_26">
     <path stroke="null" d="m7108.36237,4009.60489c-10.09375,1.23828 -19.88672,-1.20703 -29.55079,-3.86719c-0.23828,-0.36328 -0.65625,-0.62109 -1.19531,-0.53516c-0.19922,0.03516 -0.39844,0.07422 -0.59765,0.10938c-0.08594,0.00391 -0.16797,0.01953 -0.2461,0.04297c-9.03125,1.61719 -17.02734,4.9414 -24.23828,10.74219c-0.64453,0.51562 -0.28906,1.72656 0.49609,1.8789c18.375,3.5586 37.17969,3.49219 55.36329,-1.13281c0.53906,-0.13672 0.78125,-0.54297 0.79687,-0.97266c0.00781,-0.03906 0.02734,-0.07031 0.02734,-0.11328c0.09375,-1.67578 0.17969,-3.35156 0.26954,-5.02734c0,-0.00781 0,-0.01172 0,-0.01563c0.01171,-0.24218 -0.05469,-0.42578 -0.15235,-0.58984c-0.14453,-0.33984 -0.46875,-0.58203 -0.97265,-0.51953" fill="#100f0d" id="svg_94"/>
    </g>
    <g stroke="null" clip-path="url(#svg_25)" id="svg_24">
     <path stroke="null" d="m7230.1358,3716.35098c-0.22656,-0.14453 -0.51562,-0.18359 -0.85937,-0.05078c-6.22266,2.43359 -11.5586,6.17969 -16.47266,10.52344c-0.02734,-0.0586 -0.05859,-0.11328 -0.09765,-0.17188c-2.78907,-3.8789 -4.65625,-8.375 -6.64454,-12.71093c4.44141,-2.19922 8.86329,-4.42969 13.1836,-6.86329c0.03906,-0.01953 0.0664,-0.04687 0.09765,-0.07031c0.01954,-0.01172 0.03516,-0.02344 0.05469,-0.03515c0.22266,-0.17188 0.34766,-0.39063 0.38281,-0.625c0.69141,-2.35938 3.09766,-7.4961 6.17579,-6.71094c2.41796,0.61719 4.97656,2.61719 7.1875,4.35156c-2.32422,0.61328 -4.66407,0.76953 -7.14454,0.40234c-1.41406,-0.21093 -2.02734,1.95704 -0.59765,2.16797c2.35937,0.35157 4.60937,0.33985 6.84375,-0.07031c2.29687,3.82422 4.59375,7.64453 6.89453,11.46875c-3.00781,-0.50781 -5.96875,-1.25 -9.00391,-1.60547zm-21.89843,14.76563c-3.41016,-3.97266 -5.82813,-9.75391 -6.88282,-14.84375c0.89844,-0.44532 1.80078,-0.89063 2.69922,-1.33594c2.01563,4.37891 3.89063,8.92969 6.70703,12.85156c0.14844,0.20313 0.32813,0.33203 0.51953,0.41016c-1.03125,0.94922 -2.04296,1.92578 -3.04296,2.91797zm22.92187,-39.50391c1.63281,3.04297 3.25391,6.09766 4.875,9.15234c0.53516,1.01563 1.07422,2.02735 1.61328,3.04297c-1.33984,3.03125 -1.95703,5.96485 1.04688,5.36328c0.49218,-0.09765 0.96484,-0.35546 1.42187,-0.71093c2.01563,3.79687 4.03906,7.58984 6.09375,11.37109c0.76172,1.92578 1.55078,3.83984 2.33985,5.75781c-1.44532,-1.375 -2.94141,-2.6914 -4.53907,-3.89843c-3.15625,-5.25391 -6.3164,-10.50391 -9.47656,-15.75782c0.42969,-0.13281 0.85938,-0.28125 1.28906,-0.44531c0.94141,-0.35937 1.07422,-1.46875 0.26563,-2.05469c-1.49219,-1.08984 -3.00781,-2.16015 -4.5586,-3.16797c-0.01953,-0.11328 -0.05078,-0.22656 -0.11328,-0.34375c-1.875,-3.65234 -3.73047,-7.3125 -5.59765,-10.96875c0.86328,-0.34765 1.8125,-0.74609 1.61328,-0.73828c2.60547,-0.08593 2.60547,1.3086 3.72656,3.39844zm7.77734,14.62891c0.02735,0.05078 0.05469,0.10156 0.08204,0.15234c-0.11329,0.10938 -0.15235,0.07813 -0.08204,-0.15234zm7.3086,-10.41016c-1.60156,2.89453 -3.40625,5.67188 -5.48047,8.26563c-0.07813,0.10156 -0.16406,0.21093 -0.25,0.32421c-0.13672,-0.25781 -0.26953,-0.51171 -0.40625,-0.76953c0.80078,-1.58593 1.71484,-3.10547 2.71875,-4.57812c0.8125,-1.20313 -1.13672,-2.32813 -1.94531,-1.13672c-0.23438,0.34375 -1.10547,1.71484 -2.00782,3.39062c-0.79687,-1.5039 -1.59765,-3.00781 -2.39453,-4.51171c3.25391,-0.32813 6.51172,-0.65625 9.76563,-0.98438zm3.62109,11.95703c1.21094,2.42969 1.75781,5.14453 -1.3789,6.73438c-0.65625,0.33203 -1.4336,0.53906 -2.1836,0.73047c-1.52344,-2.82813 -3.04297,-5.66407 -4.55078,-8.50391c0.85547,-1.09766 1.59766,-2.31641 2.17969,-3.10547c0.77734,-1.05078 1.50781,-2.13672 2.21094,-3.23828c1.23046,2.46875 2.49609,4.91406 3.72265,7.38281zm-1.58203,11.20703c-0.00391,-0.00781 -0.00781,-0.01562 -0.01172,-0.02343c-0.02344,-0.08204 -0.05859,-0.16407 -0.10156,-0.2461c-0.26172,-0.48047 -0.51563,-0.96484 -0.77734,-1.44531c2.75,-0.76172 6.09765,-1.93359 6.39453,-5.05859c0.17968,-1.90625 -1.17578,-3.96485 -1.97657,-5.57032c-1.41796,-2.84375 -2.89062,-5.65625 -4.28906,-8.50781c0.58985,-1.01172 1.16016,-2.03125 1.69531,-3.07422c0.35157,-0.68359 -0.0625,-1.78515 -0.97265,-1.6914c-4.22266,0.42578 -8.44531,0.85156 -12.66797,1.28125c-0.08203,0.00781 -0.14063,0.04296 -0.21094,0.0625c-1.63281,-3.0625 -3.27344,-6.125 -4.92969,-9.17579c-0.22265,-0.40625 -0.82031,-0.67968 -1.27343,-0.51562c-1.78125,0.65234 -3.41797,1.59766 -5.20313,2.25391c-0.28515,0.10156 -0.47656,0.28515 -0.60156,0.5c-0.21484,0.30859 -0.28906,0.72265 -0.07031,1.15234c1.57031,3.07422 3.13672,6.14844 4.70703,9.22266c-1.38281,-0.75391 -2.40625,-1.42969 -3.95703,-0.89844c-3.10938,1.0664 -5.33203,5.04297 -6.30078,8.07812c-5.95704,3.33594 -12.10157,6.30469 -18.21875,9.33594c-0.53907,0.26563 -0.65235,0.75781 -0.51563,1.19531c0.00391,0.02735 -0.00781,0.04688 0,0.07422c1.07422,6.02344 4.125,13.14453 8.39453,17.59375c0.27735,0.28906 0.59766,0.3711 0.89453,0.32813c0.23828,-0.01563 0.48047,-0.10938 0.69922,-0.32813c6.08985,-6.1289 12.65235,-11.82031 20.78125,-15.02734c0.06641,0.02344 0.125,0.05859 0.20313,0.0664c3.58984,0.40625 7.07422,1.3711 10.65234,1.85157c0.51172,0.85156 1.02344,1.70312 1.53516,2.55468c0.10937,0.17969 0.24609,0.30469 0.39062,0.39063c0.00781,0.00391 0.00781,0.00781 0.01563,0.01172c3.01953,2.23828 5.625,4.96484 8.26953,7.62109c0.74219,0.7461 2.30859,-0.00781 1.88281,-1.09375c-1.4375,-3.65625 -3,-7.26172 -4.4375,-10.91797" fill="#100f0d" id="svg_95"/>
    </g>
    <g stroke="null" id="svg_23">
     <path stroke="null" d="m7146.93658,3628.20645c2.61329,-2.69531 6.83594,-3.39453 9.73829,-0.49609c2.32421,2.32031 2.70312,6.14453 1.92578,9.1914c-1.57422,6.16407 -8.10157,9.71094 -13.67969,6.4375c1.61328,-4.67187 2.35937,-9.76953 2.01562,-15.13281zm-49.39062,37.24219c-0.12109,-0.03516 -0.23047,-0.05078 -0.33984,-0.05078c-0.65235,-6.61328 -1.30469,-13.22657 -1.95704,-19.83985c-0.03125,-0.28125 -0.15625,-0.49609 -0.3164,-0.66797c-0.19531,-0.44921 -0.64453,-0.7539 -1.2461,-0.52343c-0.5664,0.21484 -1.13281,0.43359 -1.69921,0.64843c-0.07032,-0.07812 -0.14454,-0.14843 -0.24219,-0.21484c-3.60938,-2.35156 -7.3086,-4.55078 -11.10156,-6.60156c-0.09766,-0.05078 -0.19141,-0.08594 -0.28516,-0.10938c-0.21875,-0.41406 -0.65625,-0.69531 -1.24219,-0.52734c-3.16797,0.91406 -6.24609,2.03125 -9.23047,3.33203c0.04688,-2.82422 -0.2539,-5.60547 -0.89062,-8.35937c7.60547,-4.06641 13.7539,-10.77344 18.5,-18.11329c1.29297,5.62891 4.67969,10.73047 9.96094,13.5625c7.76562,4.16016 17.89843,2.06641 24.80859,-2.89453c3.01953,2.27344 6.74609,3.64844 10.66797,4.32032c2.89453,0.49609 8.25,1.26953 11.8125,-0.00391c0.80859,24.92969 -22.98828,43.48047 -47.19922,36.04297zm27.25391,14.89453c-1.64454,2.08594 -3.29297,4.16797 -4.9375,6.25c-0.875,1.10937 -1.67969,2.59375 -2.75391,3.48437c-1.48047,1.22266 -1.78516,1.3086 -3.375,0.26172c-3.70703,-2.4414 -6.82422,-6.79297 -10.05078,-9.9414c-0.125,-3.75782 0.00781,-7.51563 -0.14453,-11.27344c0,-0.03516 -0.01563,-0.0625 -0.01953,-0.09766c7.04687,0.91016 13.90625,-0.17187 20.02343,-2.79687c-0.60156,4.80469 -0.21484,9.48828 1.25782,14.11328zm3.08203,15.51953c-0.64063,-2.44531 -1.39063,-4.85937 -2.27735,-7.25391c-0.27343,-0.73437 -0.94922,-0.97656 -1.65234,-0.67187c-1.12891,0.49219 -2.26172,0.98047 -3.39453,1.46484c1.6914,-2.10547 3.34375,-4.25781 5,-6.39062c1.21094,4.29687 2.3125,8.51562 2.32422,12.85156zm-22.4375,-4.95312c-0.76172,3.23828 -1.52735,6.47265 -2.28907,9.71093c-1.49218,-6.16406 -3.46875,-16.10937 -0.77343,-18.35156c2.26172,2.16406 4.45312,4.39453 6.66406,6.60547c0.61328,0.61328 1.33984,1.52734 2.14062,2.41016c-1.48046,-0.23438 -2.93359,-0.57813 -4.35937,-1.16016c-0.54688,-0.22656 -1.25391,0.24609 -1.38281,0.78516zm-6.3125,-6.00782c-0.5625,-5.71484 -1.12891,-11.43359 -1.69141,-17.14843c1.30859,0.38281 2.61719,0.69531 3.92188,0.9375c-0.04688,0.1289 -0.07813,0.26953 -0.07032,0.43359c0.14453,3.69922 0.01953,7.40234 0.13672,11.10156c-1.78515,1.08594 -2.25,2.73828 -2.29687,4.67578zm-27.76172,55.26172c-3.14063,5.20703 -7.84766,9.63672 -12.32813,13.75391c-8.38672,-7.74219 -15.83984,-16.41016 -21.76953,-26.22656c-0.04297,-0.07032 -0.09375,-0.13282 -0.14453,-0.1875c-0.13672,-3.73438 -0.29687,-15.73438 2.83984,-23.31641c3.75391,-9.07031 3.58204,1.44922 3.07422,12.5625c0,0 2.20703,-12.68359 4.30078,-17.21875c2.09375,-4.53125 4.08204,-4.48047 3.30469,3.57422c-0.77344,8.05469 -1.44531,13.08984 -1.44531,13.08984c0,0 2.71094,-9.83203 5.57812,-14.4414c2.8711,-4.61329 5.73047,-8.95704 0.96875,12.74609c0,0 1.05079,-3.76563 2.54688,-5.89063c1.49219,-2.1289 4.64453,-6.8125 3.72266,-1.23046c-0.92188,5.57812 -1.89844,8.42187 -1.58204,12.55078c0.32032,4.13281 2.84766,12.32812 2.84766,12.32812l0.04688,-0.01562c0.04687,0.15234 0.14062,0.30078 0.29296,0.43359c0.10547,0.16797 0.25391,0.29688 0.4336,0.36719c2.65625,2.15234 4.96484,4.65625 7.3125,7.12109zm4.17187,4.10938c-2.92578,5.35937 -6.82031,10.14062 -11.47656,14.08984c-1.13672,-0.96094 -2.26172,-1.92578 -3.37109,-2.91406c4.45312,-4.09375 9.05859,-8.5 12.27734,-13.62891c0.83203,0.84375 1.6875,1.66016 2.57031,2.45313zm-58.92187,-104.94532c10.41406,4.89063 18.92969,11.95313 26.30078,20.72266c-1.73828,-0.01172 -3.47656,-0.01953 -5.21484,-0.00781c-10.39844,-4.75391 -21.125,-8.75391 -31.09375,-14.36328c3.33593,-2.11719 6.67187,-4.23438 10.00781,-6.35157zm37.20312,33.22266c0.34766,5.62109 0.69141,11.24609 1.03516,16.86719c0.08984,1.44922 -2.16016,1.4414 -2.25,0c-0.34375,-5.6211 -0.6875,-11.2461 -1.03516,-16.86719c-0.08593,-1.44922 2.16407,-1.44141 2.25,0zm-17.5625,-4.69531c-0.08203,-1.44531 2.16797,-1.4375 2.25,0c0.40235,6.91015 0.80469,13.82422 1.20313,20.73437c0.08594,1.44922 -2.16406,1.4375 -2.25,0c-0.39844,-6.91015 -0.80078,-13.82422 -1.20313,-20.73437zm42.9336,-27.96485c0.08203,0.09375 0.18359,0.17969 0.3164,0.25c3.37891,1.82813 6.67969,3.78125 9.91797,5.85157c-12.27344,4.67968 -24.54297,9.36328 -36.8125,14.04687c-0.02344,0.00781 -0.04297,0.02344 -0.0664,0.03516c-0.01954,-0.00391 -0.03125,-0.01172 -0.04688,-0.01172c-1.92969,0.01562 -3.86328,0 -5.79297,-0.00781c8.90625,-9.57422 19.94922,-16.44141 32.48438,-20.16407zm-12.15625,-5.69531c0.44531,2.26172 0.64843,4.53906 0.60156,6.85938c-0.00781,0.32031 0.10937,0.55859 0.27734,0.73437c-7.27343,3.42578 -13.92187,7.98438 -19.76562,13.58985c4.91797,-8.19141 11.25,-15.33204 18.88672,-21.1836zm132.39843,21.15625c0.82032,-9.80859 -5.55859,-17.79687 -13.83984,-22.11328c3.68359,-4.73437 3.60156,-12.03516 -0.16406,-17.50391c-6.48828,-9.42968 -19.7461,-11.50781 -30.10938,-8.8164c-0.15234,0.03906 -0.27343,0.10156 -0.3789,0.17578c-1.95313,-6.66406 -6.0586,-12.71094 -11.78516,-17.05078c-7.76172,-5.875 -23.83594,-11.66406 -33.66406,-6.35156c-6.50781,-7.34766 -17.78906,-8.91797 -27.10156,-7.94141c-10.22266,1.06641 -19.88672,5.72266 -26.96485,13.19141c-10.37109,10.94531 -21.3125,43.09765 1.42188,47.23828c0.16406,0.09765 0.375,0.14453 0.6289,0.10937c1.60157,-0.20703 3.15235,-0.54297 4.66016,-0.96875c-7.38281,6.37891 -13.44531,13.96875 -18.03125,22.65625c-7.55859,-8.8789 -16.30078,-16.00781 -27,-20.90234c-0.00781,-0.00391 -0.01563,-0.00391 -0.02344,-0.00781c-0.30469,-0.20313 -0.70312,-0.25391 -1.11328,0.00781c-3.85156,2.44531 -7.70312,4.89062 -11.55469,7.33594c-0.3125,-0.1875 -0.63281,-0.35547 -0.94531,-0.54688c-0.16797,-0.10547 -0.33594,-0.15234 -0.5,-0.16406c-0.75781,-0.13281 -1.69922,0.73828 -1.26562,1.70312c0.71484,1.60547 0.69921,6.45313 0.95703,8.78516c0.72265,6.53125 1.43359,13.0625 2.16406,19.58984c1.625,14.53907 3.25391,29.08203 5.29687,43.57032c0.07422,0.53125 0.42188,0.78125 0.82032,0.80859c8.15625,3.87891 16.17968,7.70703 24.59375,11c7.34375,12.05859 16.91797,22.47656 27.75,31.49609c0.5039,0.42188 1.10937,0.31641 1.51562,-0.00781c0.07422,-0.03906 0.14844,-0.08594 0.21875,-0.14453c5.25391,-4.30859 9.63281,-9.69922 12.80469,-15.70703c0.39844,-0.39844 0.52734,-1.03125 -0.02734,-1.50391c-3.98438,-3.42578 -7.22266,-7.59375 -11.1875,-11.02734c11.63281,-4.76172 23.19921,-9.6836 34.83984,-14.42578c0.04297,-0.01563 0.07422,-0.03907 0.10937,-0.0586c0.4336,-0.10547 0.77735,-0.4375 0.71875,-1.02734c-0.64062,-6.47656 -1.28125,-12.95703 -1.92187,-19.43359c0.47266,2.79687 1.05859,5.57421 1.75,8.33203c0.26953,1.0625 1.91797,1.08593 2.17187,0c1.01563,-4.31641 2.03516,-8.63282 3.05469,-12.94922c2.58985,0.85547 5.22656,1.05078 7.98047,1.30859c0.26563,0.02344 0.46484,-0.05078 0.63281,-0.16015c0.41016,-0.08204 0.76563,-0.26172 1.10157,-0.4961c2.26562,-0.98047 4.53515,-1.95703 6.80078,-2.9375c1.41015,4.00391 2.48828,8.06641 3.22265,12.25391c0.19922,1.13672 1.89063,1.00781 2.16797,0c2.1211,-7.64844 0.04688,-14.6875 -2.03125,-22.08594c0.02735,-0.30469 -0.07031,-0.60156 -0.24219,-0.83984c-1.41015,-4.4375 -1.84375,-8.98047 -1.17187,-13.60938c0.04687,-0.33594 -0.04297,-0.625 -0.20703,-0.85547c8.24219,-4.12109 14.91015,-11.11328 18.51562,-19.78906c0.66407,0.37891 1.33985,0.67969 2.01563,0.90234c-4.53516,6.12891 -7.11328,14.14063 -2.73438,21.125c3.39063,5.40235 9.44141,8.25782 15.61719,8.13672c-2.45312,9.15625 6.53906,14.57813 15.13672,11.04688c6.84766,-2.81641 10.3125,-9.35156 9.99219,-15.94922c8.14843,-0.44141 14.60547,-7.05078 15.30468,-15.39844" fill="#100f0d" id="svg_96"/>
    </g>
   </g>
  </g>
 </g>
</svg>