<svg xmlns="http://www.w3.org/2000/svg" width="322.731" height="120.424" viewBox="0 0 322.731 120.424">
  <path id="lentes" d="M194.107,61.572c8.758-6.173,18.584-6.67,29.7-.341,4.752,2.615,9.7,3.568,13.653-.171,17.79-16.834,36.24-26.493,60.756-24.917,16.929,1.088,31.6,5.517,44.2,13.824a101.81,101.81,0,0,0,17.016,8.913,12.525,12.525,0,0,1,7.324,8.3,39.9,39.9,0,0,1,1.227,9.859,6.319,6.319,0,0,1-4.511,6.194l-.065.018c-4.117.6-6.934,7.747-9.216,18.773-3.711,17.931-11.808,32.592-26.282,41.215-17.132,10.207-35.767,12.009-53.674,4.352-25.941-11.093-40.021-34.645-44.2-45.141-5.147-12.921-6.115-21.963-20.821-22.186C198.44,80.1,193.451,81.7,190.95,91.353c-6.114,23.611-16.753,41.376-39.082,51.626-26.882,12.339-48.933,8.472-71-7.509-12.278-8.893-20.28-24.424-24.234-46.591a16.412,16.412,0,0,0-8.513-12.17,5.657,5.657,0,0,1-2.874-4.965c.012-9.463,1.053-17.248,6.864-17.253a44.257,44.257,0,0,0,15.445-5.8c27.406-18.4,55.125-20.841,84.905-11.434,9.223,2.913,20.338,11.027,32.085,22.7C187.632,62.991,190.814,63.616,194.107,61.572Zm-72-20.608c-29.726,0-53.823,22.493-53.823,50.239s24.1,50.239,53.823,50.239S175.932,118.95,175.932,91.2,151.834,40.964,122.109,40.964Zm173.736,2.048c-29.726,0-53.823,22.493-53.823,50.239s24.1,50.239,53.823,50.239S349.668,121,349.668,93.251,325.57,43.012,295.844,43.012Z" transform="translate(-45.251 -31.884)" fill="#333"/>
</svg>
