<svg xmlns="http://www.w3.org/2000/svg" width="152.253" height="209.214" viewBox="0 0 152.253 209.214">
  <g id="layer1" transform="translate(-596.355 1048.904)">
    <g id="g3861" transform="translate(596.355 -1048.904)">
      <path id="path3021" d="M1104.492-28.286a1.466,1.466,0,0,0-1.145.663c-.528.737-69.329,96.26-84.993,124.47.373.122.756.246,1.142.384a51.467,51.467,0,0,1,7.941,3.644,65.453,65.453,0,0,1,10.823,7.708c17.2-27.894,66.983-133.985,67.37-134.8a1.5,1.5,0,0,0-.36-1.832c-.023-.016-.048-.032-.074-.047a1.355,1.355,0,0,0-.7-.185Zm-88.03,128.75c-.265.553-.49,1.057-.674,1.505-5.821,14.24-14.547,31.336-16.962,37.854a17.279,17.279,0,0,1,11.3,6.887c4.509-5.267,15.16-21.144,24.714-33.072.364-.455.77-1,1.209-1.637a62.236,62.236,0,0,0-9.786-7.156,48.084,48.084,0,0,0-8.119-3.815c-.581-.207-1.138-.4-1.68-.566Z" transform="translate(-953.526 28.286)" fill="#333"/>
      <g id="g3795" transform="translate(0 169.844)">
        <path id="path3793" d="M597.02,1864.536c-.073,0-.128,0-.2-.007-.714-.046-1.452-.1-2.2-.175s-1.5-.155-2.256-.256-1.51-.218-2.249-.354-1.466-.292-2.165-.468-1.37-.372-2-.593c-.317-.11-.626-.228-.923-.35s-.58-.252-.852-.387-.532-.276-.778-.424a8.254,8.254,0,0,1-.694-.468,6.272,6.272,0,0,1-.6-.508,4.985,4.985,0,0,1-.5-.556,4.077,4.077,0,0,1-.38-.6,3.614,3.614,0,0,1-.259-.65,3.551,3.551,0,0,1-.128-.7,3.919,3.919,0,0,1,.013-.751,5.5,5.5,0,0,0,.034-.764,5.13,5.13,0,0,0-.246-1.421,5.46,5.46,0,0,0-.263-.663,6.057,6.057,0,0,0-.347-.633,6.887,6.887,0,0,0-.424-.6c-.154-.2-.322-.384-.5-.569s-.362-.367-.559-.542-.4-.343-.616-.509-.44-.326-.67-.482c-.1-.065-.205-.119-.3-.182-3.474,7.72-9.013,12.5-20.4,14.622a1.318,1.318,0,0,0,0,2.62c13.442,0,28.9-.063,40.457-3.627Z" transform="translate(-555.384 -1828.794)" fill="#f2ac57"/>
        <path id="path3849" d="M786.332,1634.309a17.3,17.3,0,0,0-17.019,14.208,52.285,52.285,0,0,1-2.724,7.92c.1.063.207.117.3.182.23.156.456.316.67.482s.42.333.616.508.383.357.559.542.344.374.5.569a6.847,6.847,0,0,1,.424.6,6.034,6.034,0,0,1,.347.633,5.455,5.455,0,0,1,.263.663,5.128,5.128,0,0,1,.246,1.421,5.46,5.46,0,0,1-.034.764,3.921,3.921,0,0,0-.013.751,3.556,3.556,0,0,0,.128.7,3.606,3.606,0,0,0,.259.65,4.071,4.071,0,0,0,.38.6,4.985,4.985,0,0,0,.495.556,6.311,6.311,0,0,0,.6.508,8.194,8.194,0,0,0,.694.468c.245.149.506.289.778.424s.556.265.852.387.606.24.923.35c.634.221,1.3.417,2,.593s1.426.332,2.165.468,1.494.253,2.25.354,1.51.185,2.256.256,1.485.129,2.2.175c.074,0,.129,0,.2.007,6.664-2.056,12.032-5.27,14.948-10.321a17.3,17.3,0,0,0-15.265-25.421Z" transform="translate(-745.013 -1634.309)" fill="#333"/>
      </g>
    </g>
  </g>
</svg>
