<svg xmlns="http://www.w3.org/2000/svg" width="27.109" height="15.845" viewBox="0 0 27.109 15.845">
  <g id="menu" transform="translate(0 -96.243)">
    <g id="Menu_1_" transform="translate(0 96.243)">
      <path id="Trazado_32" data-name="Trazado 32" d="M.847,98.224H26.262a1,1,0,0,0,0-1.981H.847a1,1,0,0,0,0,1.981Z" transform="translate(0 -96.243)" fill="#fff"/>
      <path id="Trazado_33" data-name="Trazado 33" d="M26.262,180.455H.847a1,1,0,0,0,0,1.981H26.262a1,1,0,0,0,0-1.981Z" transform="translate(0 -173.523)" fill="#fff"/>
      <path id="Trazado_34" data-name="Trazado 34" d="M138.093,264.667H121.15a1,1,0,0,0,0,1.981h16.943a1,1,0,0,0,0-1.981Z" transform="translate(-111.832 -250.802)" fill="#fff"/>
    </g>
  </g>
</svg>