<svg xmlns="http://www.w3.org/2000/svg" width="256.722" height="284.736" viewBox="0 0 256.722 284.736">
  <g id="creatividad" transform="translate(-19.281 -5)">
    <path id="Trazado_42" data-name="Trazado 42" d="M83.659,220.973c-2.952,3.009-6.1,5.818-9.336,8.521-3.192,2.667-6.264,5.548-9.642,7.982-.785.569-1.609-.652-.993-1.3,2.9-3.044,6.232-5.695,9.328-8.528a121.258,121.258,0,0,1,9.646-7.979C83.441,219.095,84.289,220.331,83.659,220.973ZM56.445,178.6c-5.942,2.16-11.987,4.109-18.105,5.715-6.161,1.618-12.515,2.395-18.517,4a.8.8,0,0,0,.249,1.552c6.336.175,12.935-1.449,19.03-3.029a104.137,104.137,0,0,0,18.114-6.526C58.181,179.849,57.447,178.231,56.445,178.6Zm5.4-40.07A130.193,130.193,0,0,0,48.864,132.1c-4.568-2.062-8.972-3.645-13.55-5.53-.778-.32-1.4.975-.636,1.354,4.379,2.177,8.431,4.433,12.935,6.493a131.429,131.429,0,0,0,13.521,5.61.842.842,0,0,0,.711-1.505Zm31,12.723c.295-1.163-1.375-1.654-1.927-.676-2.152,3.791-2.877,8.4-3.05,12.7-.169,4.165.085,9.046,2.231,12.727.447.767,1.821.317,1.624-.526a41.912,41.912,0,0,1-1.194-12.139C90.68,159.162,91.82,155.259,92.846,151.248ZM99.3,135.524c-2.136,1.427-5.3,6.167-5.78,8.95a1.069,1.069,0,0,0,2,.748,40.462,40.462,0,0,1,4.829-8.139C101.284,135.945,100.106,134.988,99.3,135.524Zm-1.563,69.087a51.306,51.306,0,0,1-18.3-40.413,52.568,52.568,0,0,1,20.586-40.126.906.906,0,0,0-1.053-1.473A52.986,52.986,0,0,0,76.836,166.22c.251,19.483,9.946,33.866,25.146,44.788,8.346,6,17.87,12.331,20,23.139.188.954,1.644.889,1.545-.128C122.164,219.879,107.4,212.716,97.736,204.611Zm119.5-55.839c-.428-.862-1.935-.205-1.565.7a42.023,42.023,0,0,1-.649,33.593c-6,12.7-17.159,17.405-25.7,27.311-4.3,4.99-7.855,11.291-7.23,18.1a.812.812,0,0,0,1.622-.026c.414-8.115,4.811-14.153,10.261-19.447,8.6-8.358,17.849-13.485,23.2-24.976C222.316,172.968,222.694,159.787,217.234,148.772Zm8.475,73.884c-3.927-2.31-9.047-5.545-13.176-7.2-.927-.372-1.315.926-.672,1.456,3.425,2.825,8.743,5.774,12.649,8.118,4.3,2.581,8.589,5.188,13.082,7.431a1.034,1.034,0,0,0,1.1-1.749c-4.181-2.919-8.591-5.473-12.985-8.053ZM272.548,170.2a139.942,139.942,0,0,0-15.494-.674c-5.235-.084-10.467-.131-15.7.012-.906.025-.982,1.55-.064,1.616,5.156.368,10.321.556,15.489.7a141.8,141.8,0,0,0,15.71.022.85.85,0,0,0,.061-1.677Zm-27.284-42.023a83.383,83.383,0,0,0,12.714-4.687,64.873,64.873,0,0,0,11.8-6.7c.927-.71-.134-2.076-1.116-1.621-4.026,1.861-7.834,4.163-11.841,6.065-3.838,1.821-8.171,3.939-12.062,5.538a.756.756,0,0,0,.508,1.4ZM186.29,86.846c-11.656-8.781-21.294-12.3-35.621-15.372-.827-.178-.581-1.463.227-1.434a52.686,52.686,0,0,1,15.718,3.3c-3.559-8.005-10.371-13.822-16.152-15.238-6.5,2.671-15.863,10.452-18.694,13.861,3.615,10.6-7.2,19.394-19.988,14.278A72.416,72.416,0,0,0,91.105,99.125c5.436,2.455,11.1,12.041,12.853,20.14,7.713-2.877,16.665-5.968,25.083-5.114S163.462,128,174.97,130.561c-5.63-8.923-1.478-30.1,11.32-43.723Z" transform="translate(0 -0.964)" fill="#372e8b" fill-rule="evenodd"/>
    <path id="Trazado_43" data-name="Trazado 43" d="M120.176,236.661c8.951,12.935,4.222,32.272,14.484,44.752,11.772,14.317,36.024,8.524,42.942-4.973,6.907-13.477,2.317-22.877,8.781-44.893C166,243.618,133.744,241.345,120.176,236.661Zm53.4,32.293c-3.717,4.739-9.739,7.935-15.351,9.8a34.347,34.347,0,0,1-18.057,1.375.768.768,0,0,1,.2-1.5,43.628,43.628,0,0,0,17.206-2.37,44.566,44.566,0,0,0,15.011-8.576C173.372,267.037,174.093,268.3,173.58,268.954Zm2.385-12.424c-3.955,5.415-9.835,8.658-16.215,10.445-4.489,1.257-17.948,3.219-22.716,1.884-.766-.215-.687-1.455.029-1.449a98.351,98.351,0,0,0,21.488-2.8,35.8,35.8,0,0,0,16.059-9.136c.678-.7,1.938.262,1.355,1.059ZM176,243.321c.7-.44,1.735.45,1.068,1.162-4.418,4.719-13.564,8.64-19.785,10.28a51.743,51.743,0,0,1-22.325,1.155c-1-.175-.687-1.6.284-1.519a61.688,61.688,0,0,0,21.447-1.91c8.263-2.321,12.673-5.025,19.312-9.168Zm-2.769-93.687c-5.634-2.383-8.141-.275-9.644,5.154a140.348,140.348,0,0,0-4.924,31.372,69.514,69.514,0,0,1-18.45.769c-1.236-5.54-5.42-23.3-8.542-27.736-2.044-2.906-5.3-3.285-8.077-1.195-2.995,2.25-7.953,11.256-9.679,15-2.455,5.314-1.045,8.109,4.076,10.424a68.631,68.631,0,0,0,20.21,5.6c1.481,6.763,2.667,13.476,3.528,20.353.922,7.351,1.492,15.022,2.072,22.431a.743.743,0,0,0,1.485-.037,150.419,150.419,0,0,0-1.269-22.935c-.822-6.556-1.93-13.1-3.3-19.563a72.3,72.3,0,0,0,17.86-.706,139.979,139.979,0,0,0,4.4,39.078c.353,1.342,2.395.737,2.062-.606a145.256,145.256,0,0,1-4.169-38.87c7.56-1.507,21.046-6.045,26.123-12.338,4.582-5.68,2.139-12.482-2.174-17.575a31.647,31.647,0,0,0-11.585-8.615ZM121.022,182.3c-5.842-2.383-7.734-3.216-4.437-9.589,1.757-3.394,5.117-9.695,7.724-12.273,1.443-1.425,3.4-2.16,4.954-.484,2.749,2.977,7.4,22.222,8.419,26.677a66.607,66.607,0,0,1-16.661-4.331Zm64.242-8.051c-4.238,5.707-17.3,9.99-24.3,11.471.409-8.706,2.2-23.387,5.314-31.924.982-2.684,2.408-3.191,5.106-2.308,5.67,1.86,12.358,7.586,14.772,12.95a9.368,9.368,0,0,1-.889,9.812ZM124.992,45.464c-2.853,1.059-3.25,4.3-2.583,7.009a3.294,3.294,0,0,0-2.714.982c-1.328-2.7-4.4-5.045-7.372-3.359-2.5,1.42-2.615,5.191-1.919,7.639-1.178.471-2.624.723-3.873,1.21a.709.709,0,0,0,.412,1.338c1.238-.228,2.759-.687,4.026-1.029,1.322,2.881,4.014,5.619,7.419,3.886,3.389-1.724,3.034-5.084,1.956-8.132a2.4,2.4,0,0,1,2.585-.934c1.021,2.6,3.476,6.082,6.692,4.525s2.625-5.793,1.719-8.524S128.151,44.293,124.992,45.464Zm-7.21,16.226c-2.785,1.473-4.868-1.452-5.66-3.717-.657-1.881-.974-5.23.924-6.475,2.484-1.63,4.876,1.548,5.652,3.577C119.563,57.338,120.364,60.327,117.783,61.69ZM129,57.181c-2.672,1.122-4.14-2.045-4.927-4.026-.817-2.055-1.053-5.417,1.446-6.256,2.476-.833,3.975,2.246,4.557,4.124C130.676,52.979,131.08,56.306,129,57.181ZM116,58.072c.363.8.317,1.385-.145,1.767-.62.519-1.239.1-1.63-.571-.272-.466-.565-1.548.157-2C115,56.893,115.76,57.537,116,58.072Zm11.88-4.1a1.594,1.594,0,0,1-.393,1.605c-.629.414-1.318-.3-1.505-.9-.23-.736-.189-1.538.295-1.858.763-.5,1.438.536,1.6,1.157Zm-3.134,7.489c.4-.378.542-.655.186-1.115a11.585,11.585,0,0,0-2.3-1.953c-.657-.461.056-1.546.746-1.178a10.053,10.053,0,0,1,2.131,1.571c1.706,1.618,1.483,3.1-.407,4.427a4.787,4.787,0,0,1-2.62,1,.768.768,0,0,1-.3-1.364C122.788,62.364,123.893,62.261,124.75,61.456Zm-5.432,6.138a6.5,6.5,0,0,0,3.8-.793c.908-.5,1.368.643.716,1.149a8.014,8.014,0,0,1-4.6,1.159,7.545,7.545,0,0,1-4.433-1.482c-.608-.508-.027-1.645.726-1.246a7.74,7.74,0,0,0,3.795,1.212Zm-3.277,6.151c4.142.431,8.873.907,12.371-1.837,4.277-3.349,2.638-7.7,1.107-11.208-.416-.952.9-1.33,1.271-.581,2.167,4.39,3.067,9.209-1.133,12.712-3.884,3.24-9.094,2.958-13.8,2.286-.776-.111-.585-1.454.189-1.374Zm39.2-18.8c3.845-2.757,7.874-5.319,10.149-9.63,2.486-4.713,2.674-10.195,2.822-15.407a6.742,6.742,0,0,1-7.364-5.924.717.717,0,0,1,1.392-.313,5.283,5.283,0,0,0,5.49,4.589c1.6-.092,2.181.058,2.143,1.375-.158,5.569-.387,11.331-2.993,16.387-2.314,4.493-6.589,7.573-10.812,10.136-.71.433-1.5-.731-.828-1.214ZM169.525,7.6a.728.728,0,0,1,.949-1.08,13.29,13.29,0,0,1,4.035,5.39c.762,1.784,1.48,4.8,1.061,6.708a.85.85,0,0,1-1.63-.112c-.258-2.4-.032-3.523-1-5.937A15.424,15.424,0,0,0,169.525,7.6Zm8.031,11.021a19.244,19.244,0,0,0,1.513-6.315,18.8,18.8,0,0,0-.926-6.434c-.229-.809.949-1.215,1.364-.5.993,1.716,1.326,5.007,1.257,6.994a15.248,15.248,0,0,1-1.713,6.926.83.83,0,0,1-1.494-.674Zm2.419,2.973a15.234,15.234,0,0,0,3.469-3.889,19,19,0,0,0,2.036-4.919.722.722,0,1,1,1.421.252,14.288,14.288,0,0,1-2.03,5.5,17,17,0,0,1-3.786,4.379c.3,4.549.466,9.112.671,13.665.693,15.435-.232,21.162-13.534,31.475-.884.687-1.866-.743-.989-1.425,13.3-10.336,13.387-15.765,12.773-30.913-.174-4.311-.4-8.624-.483-12.937a1.644,1.644,0,0,1,.456-1.186Zm-79.1,50.754C93.339,81.51,89,90.526,89.557,102.644a.742.742,0,0,1-1.473.18C86.513,91.4,92.192,79.705,99.534,71.306,100.256,70.489,101.572,71.5,100.873,72.345Zm.744,45.589c-4.156,2.3-12.424,4.741-17.17,5.441-25.378,3.748-17.86-23.91-9.958-36.623A134.974,134.974,0,0,1,88.724,67.809a29.7,29.7,0,0,1-.535-19.085c.326-1.017,1.94-1.329,1.541.526-1.6,7.406-1.346,10.7.4,17.595a2.3,2.3,0,0,1-.444,2.491,88.537,88.537,0,0,0-16.1,22.672C67.5,104.763,63.734,125,84.941,121.517c5.946-.975,10.437-3.142,15.989-4.833.729-.221,1.445.836.69,1.25ZM235.6,141.455c1.488,3.275,6.691,13.468,6.7,16.43.017,3.98-3.807,6.273-6.984,3.186-3.859-3.747-5.53-7.91-10.473-11.945-3.062-2.5-7.1-4.347-9.271-7.669a8.64,8.64,0,0,1-.9-8.224c.363-.9,1.865-.451,1.631.491a8.3,8.3,0,0,0,1.1,6.9c1.724,2.379,6.087,4.635,8.629,6.72,5.119,4.191,6.49,7.364,10.394,11.76,1.924,2.167,3.8,1.269,3.8-1.243.006-2.251-5.116-11.94-6.683-15.277-1.335-2.847-3.33-6.352-4.026-9.277-.236-.982,1.187-2.192,1.75-.675,1.22,3.3,3,5.918,4.322,8.824Zm41.228-82.041c-.453,5.059-5.7,25.135-6.9,28.943-2.231,7.06-9,6.35-14.468,3.763-.964-.457-.335-1.977.663-1.722,4.1,1.048,9.887,2.778,11.544-2.714,1.675-5.555,6.947-23.368,7.077-28.314.04-1.51-.914-2.062-2.076-1.158-3.927,3.044-9.319,12.6-11.985,17.026-.421.7-1.71.295-1.406-.54,1.519-4.157,8.746-16.108,12.616-18.433a3.2,3.2,0,0,1,4.942,3.148Zm-64.656,71.46a136.006,136.006,0,0,0,.924-15.611c4.325-9.924,7.786-21.449,10.712-31.841a76.707,76.707,0,0,1,12.983,5.359c-.033,8.382-1.871,37.611-3.413,40.18C228.166,131.727,215.583,131.194,212.173,130.873ZM256.5,72.69c-.106,6.5-4.794,18.034-6.284,21.272-4.3-3.227-18.435-10.19-26.8-12.894a1.071,1.071,0,0,0-1.346.687c-2.237,8.149-4.574,16.3-7.508,24.229-5.083,13.736-12.827,26.289-35.311,21.7-12.666-24.616,32.018-72.1,38.685-73.493,8.306-1.734,33.458,14.238,38.569,18.5ZM114.932,82.7c-.843-2.908-6.48-10.822-8.419-12.9a3.2,3.2,0,0,0,1.36-2.749c-.076-.8-1.319-1.042-1.479-.157a2.488,2.488,0,0,1-3.927,1.835c-1.979-1.251-3.377-4.767-2.356-7.021A2.011,2.011,0,0,1,103.072,61a.8.8,0,0,0,.982-.1,16.311,16.311,0,0,0,3.177-12.75A39.315,39.315,0,0,0,122.3,44.017c5.643-2.854,9.848-6.043,8.2-14.1-.982-4.811-4.924-9.959-11.165-8.5-7.872,1.845-21.979,14.8-22.645,22.607-2.668.6-4.885,1.881-5.372,4.756-.874,5.163,3.118,11.2,6.959,14.253-.118,3.768,2.38,8.56,6.9,7.492a106.092,106.092,0,0,1,8.519,12.923c.438.792,1.454-.017,1.242-.75Zm-5.919-51.068a23.224,23.224,0,0,1,8.774-6.355c2.877-1.217,7.7-1.368,8.072,2.635a.862.862,0,0,1-1.6.424c-1.344-3-4.713-1.943-7.035-.81A31.1,31.1,0,0,0,110,32.646a.707.707,0,0,1-.989-1.009Zm53.01-12.771a5.37,5.37,0,0,1,8.465-2.462,5.221,5.221,0,0,1,1.559,6.2.815.815,0,0,1-1.563-.4c.514-2.14-.027-4.23-2.258-5.042a3.9,3.9,0,0,0-4.818,2.258.746.746,0,0,1-1.384-.554Z" transform="translate(-0.866)" fill-rule="evenodd"/>
  </g>
</svg>
