<svg xmlns="http://www.w3.org/2000/svg" width="279.412" height="260.73" viewBox="0 0 279.412 260.73">
  <g id="Searchng_User" data-name="Searchng User" transform="translate(-5.002 -14.688)">
    <path id="Trazado_44" data-name="Trazado 44" d="M115.893,149.537a6.755,6.755,0,0,1,2.627,3.284,9.4,9.4,0,0,1,.425,1.349,10.337,10.337,0,0,1-.1,5.1,5.791,5.791,0,0,1-4.95,4.609c.776,4.843,1.5,8.054,1.662,8.822.755,3.246.7,2.438.6,3.227l-.4.325-.508-.063-.329-.4c0-.1-1.024-3.045-1.975-7.238-1.349-5.937-1.2-5.558-1.046-5.95a1.007,1.007,0,0,1,.441-.437h0c.414-.155.925-.126,1.874-.425a2.987,2.987,0,0,0,1.661-1.14,7.659,7.659,0,0,0,.654-6.87,4.424,4.424,0,0,0-2.2-2.555c-1.175-.653-.167-1.272-1-5.747-2.964-15.229-19.873-15.644-26.736-6.524h0l-.438.27-.482-.092H85.67l-.261-.416c.1-.6.069-.482.146-.6v0C93.9,125.227,115.736,129.028,115.893,149.537Z" transform="translate(-2.934 -4.232)" fill-rule="evenodd"/>
    <path id="Trazado_45" data-name="Trazado 45" d="M94.264,145.451a3.1,3.1,0,0,1,2.2.842,2.1,2.1,0,0,1,.708,1.087c0,.007-.091.437-.091.444-1.477.146-.628.1-1.481-.042a3.722,3.722,0,0,0-.455-.064l-.022-.006a3.5,3.5,0,0,0-1.563.012l-.027.013h0a2,2,0,0,0-.781.5c-.12.165-.236.193-.791.542-.1.083.038,0-.911.413-.418-.964-.37-.832-.381-.936a2.134,2.134,0,0,1,.3-1.279,4.025,4.025,0,0,1,1.859-1.3h0a4.372,4.372,0,0,1,1.431-.226Z" transform="translate(-3.126 -4.772)" fill-rule="evenodd"/>
    <ellipse id="Elipse_17" data-name="Elipse 17" cx="2.217" cy="1.957" rx="2.217" ry="1.957" transform="translate(89.133 150.905) rotate(-87.504)"/>
    <path id="Trazado_46" data-name="Trazado 46" d="M94.205,171.292l-.535-.139h0c-.126-.083-.525-.275-.665-.339h0c-.083-.04-.867-.411-.957-.451h0a7.553,7.553,0,0,1-.674-.357h0a4.854,4.854,0,0,0-1.358-.52h0a1.927,1.927,0,0,0-.331-.028h-.193v0h0l-.014.013h0l0,.009h0v.009h0a.675.675,0,0,0-.034.066h0l-.01.008-.019.026-.009.009-.01.017-.01.009h0l-.028.026-.01.017-.042.051h0a1.637,1.637,0,0,0-.184.258h0a2.9,2.9,0,0,0-.24.411v.013l-.681.654c-.732-.762-.65-.559-.822-1.309h0a4.149,4.149,0,0,1-.024-.561h0a1.844,1.844,0,0,1,.131-.571,2.525,2.525,0,0,1,.93-1.065,2.7,2.7,0,0,1,1.619-.369,6.812,6.812,0,0,1,3.263,1.309h0a7.437,7.437,0,0,1,1.413,1.58l.168.522-.139.438h0Z" transform="translate(-3.005 -5.565)" fill-rule="evenodd"/>
    <path id="Trazado_47" data-name="Trazado 47" d="M86.146,175.5c.289.246,1.069.789,1.175.855a9.711,9.711,0,0,0,5.36,2,10.042,10.042,0,0,0,2.9-.26c.746-.169,1.491-.588,2.03.475a43.753,43.753,0,0,1,2.12,5.858c.346,1.06.289.666.281,1.375l-.322.373h-.01l-.492,0c-.482-.418-.3-.077-1.385-2.164-.051-.085-1.245-2.521-1.81-3.786a11.616,11.616,0,0,1-2.495.313,11.866,11.866,0,0,1-6.745-1.941,7.033,7.033,0,0,1-2.1-2.094V176.5a10.66,10.66,0,0,1-.726-1.283h0l-.062-.527.239-.393h.01l.456-.073C85.385,174.671,84.552,174.144,86.146,175.5Z" transform="translate(-2.878 -5.822)" fill-rule="evenodd"/>
    <path id="Trazado_48" data-name="Trazado 48" d="M89.1,178.347c-1.709-.616-3.975-1.279-4.449-3.025a38.419,38.419,0,0,1-.877-3.821,20.057,20.057,0,0,1-.173-5.085c.026-.186-.051-.659.109-.555,1.661,1.118.76,3.927,5.17,12.344" transform="translate(-2.865 -5.517)" fill-rule="evenodd"/>
    <path id="Trazado_49" data-name="Trazado 49" d="M87.616,175.9a6.4,6.4,0,0,0,3.046.594c-.555-1.355-2.1-5.174-.649-4.96.463.074.811.55,1.053.908.634.938.867,2.351,1.76,3.1.8.674,2.826-.258,3.621-.578.524-.212,1.831-.482,2.012-1.15.193-.733-.432-1.7-.7-2.339-.587-1.393-1.209-2.794-1.869-4.161a6.887,6.887,0,0,0-1.445-2.3c-1.383-1.227-2.362-.5-3.264-1.1-.565-.385-.833-1.044-.029-1.369a3.971,3.971,0,0,1,2.216.026,6.154,6.154,0,0,1,2.034.693c1.856,1.139,2.794,3.372,4.59,6.2,1.34,2.161,1.292,3.986,4.5.436,4.7-5.16,2.87-7.234,4.358-12.3.1-.315.326-1.264.822-1.149.778.193,1.012,1.354,1.094,2.006a18.865,18.865,0,0,1-.12,6.334,13.1,13.1,0,0,1-2.291,5.307,23.807,23.807,0,0,1-8.208,6.513c-.781.322-3.521,1.547-4.162,1.71-4.914,1.264-9.066-.743-9.715-2.19-.121-.289.007-.568.348-.549a3.654,3.654,0,0,1,1.043.326" transform="translate(-2.964 -5.174)" fill-rule="evenodd"/>
    <path id="Trazado_50" data-name="Trazado 50" d="M58.188,144.947c.42.453.289.084,1.037,2.38,5.968,20.212-4.1,34.6-2.206,64.8.7,9.306,2.387,17.195,7.241,25.051a39.9,39.9,0,0,0,14.986,13.748c.506.022,13.987,9.143,34.095,2.312h0l.518.027.352.375c0,.014-.026.5-.027.518l-.375.357a47.341,47.341,0,0,1-12.429,2.837A41.745,41.745,0,0,1,60.163,234.3c-6.633-13.355-6.291-32.777-4.316-47.545,1.219-10.4,4.926-25.4,2.585-36.5a36.824,36.824,0,0,0-1.15-4.48h0l.04-.509.374-.339Z" transform="translate(-1.81 -4.753)" fill="#010101" fill-rule="evenodd"/>
    <path id="Trazado_51" data-name="Trazado 51" d="M65.275,143.39l.411.346c1.232,1.682,1.423,2.963,1.966,5.617a28.215,28.215,0,0,1,.519,5.107,20.443,20.443,0,0,1-.352,3.066l-.255.472-.448.185h0l-.43-.223-.218-.494h0c-.055-.691-.38-2.987-.519-4.581h0c-.363-4.15-1.156-5.7-1.377-7.522,0-.039-.119-1.12-.127-1.156,0-.008.089-.527.09-.534l.3-.32h.01Z" transform="translate(-2.169 -4.696)" fill="#010101" fill-rule="evenodd"/>
    <path id="Trazado_52" data-name="Trazado 52" d="M73.345,142.6a2.227,2.227,0,0,1,.755.9,7.18,7.18,0,0,1,.712,1.474,28.339,28.339,0,0,1,.853,5.307,14.736,14.736,0,0,1-.316,4.9c-.085.458-.36,1.244-.365,1.349l-.312.439-.463.135h0l-.4-.271-.159-.517h0c0-1.2-.116-5.173-.139-5.692a28.484,28.484,0,0,0-.806-5.2c-.074-.428-.2-1.957-.2-2.029h0l.1-.533.3-.315h.009Z" transform="translate(-2.463 -4.666)" fill="#010101" fill-rule="evenodd"/>
    <path id="Trazado_53" data-name="Trazado 53" d="M81.37,145.531c.346.5.35.228.857,3.469a72.766,72.766,0,0,1,.258,12.415,51.82,51.82,0,0,0,.408,9.988c2.3,13.3,12.018,27.865,17.536,43.394a1.542,1.542,0,0,1,.151,1.027l-.371.353h0l-.509-.026c-.476-.494-.209-.038-1.032-2-5.812-13-15.088-28.441-17.671-41.078-1.8-9.267.263-16.789-.509-25.822-.156-1.28-.164-.927-.012-1.559l.416-.278Z" transform="translate(-2.746 -4.771)" fill="#010101" fill-rule="evenodd"/>
    <path id="Trazado_54" data-name="Trazado 54" d="M107.084,207.978l.379.282c0,.007-.012.467-.013.475-1.272,1.638-3.884,2.439-6.808,4.143h0a4.7,4.7,0,0,1-1.809.667c-.2.056-.008.072-1.077-.149.221-1.071.158-.881.289-1.052a4.078,4.078,0,0,1,1.517-1.359c0-.112,3.746-1.945,4.314-2.216a17.907,17.907,0,0,1,1.747-.572,2.954,2.954,0,0,1,1.462-.219Z" transform="translate(-3.385 -7.054)" fill="#010101" fill-rule="evenodd"/>
    <path id="Trazado_55" data-name="Trazado 55" d="M15.751,165.035h.009l.33.374c-.029.846.105.087-.824,2.4-3.6,8.686-5.723,19.174-6.93,28.65-.681,6.025-1.007,11.3-1.119,15.139a45.232,45.232,0,0,0,1.32,13.65,48.492,48.492,0,0,0,1.7,5.082,30.772,30.772,0,0,0,14.6,15.561,29.923,29.923,0,0,0,13.1,2.919A40.483,40.483,0,0,0,52.9,245.694c.9-.362,3.674-1.616,3.787-1.722l.516-.04c.008.006.392.326.4.332l.04.513c-.447.541.015.267-3.2,1.849a44.788,44.788,0,0,1-10.767,3.5,38.2,38.2,0,0,1-7.47.6c-.589,0-1.171-.056-1.555-.072a30.958,30.958,0,0,1-5.259-.842,30.544,30.544,0,0,1-5.056-1.765,31.256,31.256,0,0,1-9.731-7.088,30.877,30.877,0,0,1-5.9-8.665c-4.358-9.749-3.992-18.076-3.234-28.72,1.19-13.89,3.022-25.661,9.4-38.215h0l.385-.334Z" transform="translate(0 -5.486)" fill="#010101" fill-rule="evenodd"/>
    <path id="Trazado_56" data-name="Trazado 56" d="M37.929,170.138l.425.232.178.482c0,.145-.024,1.807.045,3.043h0c0,.683.1,2.193.113,2.5a84.733,84.733,0,0,0,1.139,11.161c1.06,7.059,4.413,16.775,7.085,23.33,2.4,5.891,2.086,4.564,2.131,5.482l-.328.394c-.007.009-.506.026-.512.026-.53-.45-.289-.135-1.094-1.61-.56-1.076-2.194-4.115-3.523-7.265A91.71,91.71,0,0,1,37.327,185.7a44.676,44.676,0,0,1-.125-14.957l.254-.451.46-.157Z" transform="translate(-1.155 -5.673)" fill="#010101" fill-rule="evenodd"/>
    <path id="Trazado_57" data-name="Trazado 57" d="M53.1,207.235l.36.282c0,.007-.033.449-.033.456l-.362.463a9.871,9.871,0,0,1-2.216,1.4c-.111,0-.8.379-3.083,1.215h0a1.961,1.961,0,0,1-.683.188c-.1.011-.428.017-.5.014-.635-.04-.333.049-1.361-.433.482-1.034.3-.751.771-1.2A2.53,2.53,0,0,1,47,209.007c.2.009,3.6-1.574,4.818-1.695a3,3,0,0,1,1.28-.077Z" transform="translate(-1.468 -7.026)" fill="#010101" fill-rule="evenodd"/>
    <ellipse id="Elipse_18" data-name="Elipse 18" cx="2.44" cy="2.661" rx="2.44" ry="2.661" transform="translate(210.903 136.082) rotate(-4.024)"/>
    <path id="Trazado_58" data-name="Trazado 58" d="M222.077,132.978h0a5.686,5.686,0,0,1,.786.385c.1.067.011-.016.438.45l.051.46h0l-.33.314-.549.087a4.082,4.082,0,0,0-.608-.022,7.8,7.8,0,0,0-1.387.179h-.006a4.758,4.758,0,0,0-1.411.392,5.558,5.558,0,0,0-1.62,1.119h0a2.667,2.667,0,0,1-.541.482h0a3.041,3.041,0,0,1-1.689.753l-.235-.915a4.658,4.658,0,0,1,.34-1.1h0a2.386,2.386,0,0,1,.6-.778h0a7.831,7.831,0,0,1,2.107-1.48,7.461,7.461,0,0,1,2.207-.645,4.612,4.612,0,0,1,1.842.319Z" transform="translate(-7.663 -4.305)" fill="#010101" fill-rule="evenodd"/>
    <path id="Trazado_59" data-name="Trazado 59" d="M220.529,159.744l.351.317.1.538a7.858,7.858,0,0,1-.624,2.209c-.056.1.136-.271-.262.521h0a11.167,11.167,0,0,1-4.052,3.758,7.205,7.205,0,0,1-1.746.74,4.976,4.976,0,0,1-1.507.033c-.363-.051-.134.072-1.011-.626.842-1.068.214-.467,1.851-1.424h0a9.787,9.787,0,0,0,2.473-1.349h0a11.873,11.873,0,0,0,2.24-2.3h0c.143-.166.578-.712.833-1.1h0a7.216,7.216,0,0,0,.507-.839h0l.377-.391.465-.073Z" transform="translate(-7.546 -5.294)" fill="#010101" fill-rule="evenodd"/>
    <path id="Trazado_60" data-name="Trazado 60" d="M101.606,35.64l.415.248c.3.884.081-.3.129,4.182.046,4.661.028,4.432-.243,4.849-.9.959-1.422-.193-3.581.488a3.845,3.845,0,0,0-1.858,1.272,3.34,3.34,0,0,0-.653,2.453l.009.024v.023c.007.021.027.1.046.158A2.3,2.3,0,0,0,96.9,50.493c1.432.835,4.041.377,4.866.6.9.4.606.9.99,2.455a7.241,7.241,0,0,0,2.436,4.194h0c1.638,1.3,1.62-.529,1.361,6.231-.061,1.887,0,1.469-.255,2.1l-.458.212h0c-.83-.35-.655.236-1.023-6.476-1.927-.9-3.571-2.806-4.282-6.263h0c-.039-.193-.052-.259-.069-.349a9.108,9.108,0,0,1-4.586-.787,4.689,4.689,0,0,1-1.85-1.869,3.968,3.968,0,0,1-.416-2.026,5.915,5.915,0,0,1,6.383-5.5,45.363,45.363,0,0,1,.507-4.8c.391-2.33.316-1.914.634-2.427l.463-.141Z" transform="translate(-3.233 -0.765)" fill="#010101" fill-rule="evenodd"/>
    <path id="Trazado_61" data-name="Trazado 61" d="M122.256,36.394l.44.2.219.469c.021.647.468,4.466.52,6.609a7.482,7.482,0,0,1,3.372.759,4.587,4.587,0,0,1,2.285,4.092,5.448,5.448,0,0,1-.074.886c-.54,3.089-3.157,4.163-6.305,4.215-.193,0-.107-.064-.211.349a8.39,8.39,0,0,1-3.585,5.359c-.151.1-.048-.251-.248,2.634-.2,2.909-.032,2.177-.339,2.891l-.458.209h-.009l-.462-.193c-.312-.674-.193-.183-.305-2.061-.15-4.721-.1-3.46-.122-3.811a.973.973,0,0,1,.351-.909h0a6.077,6.077,0,0,0,1.967-1.933c.009-.016.072-.122.091-.147a9.249,9.249,0,0,0,.923-2.216c.367-1.236.091-1.61.715-2.146.567-.346.867-.117,2.424-.231a4.336,4.336,0,0,0,2.732-.964,2.867,2.867,0,0,0,.446-3.2c-.593-1.184-1.927-1.356-3.268-1.4-.98-.032-1.584.149-2-.713a2.5,2.5,0,0,1-.079-.845,59.638,59.638,0,0,1,.306-7.235l.225-.466.443-.193Z" transform="translate(-4.086 -0.792)" fill="#010101" fill-rule="evenodd"/>
    <path id="Trazado_62" data-name="Trazado 62" d="M113.9,52.344c-.066,1,0,.924-.266,1.312a2.678,2.678,0,0,1-1.069,1,3.661,3.661,0,0,1-3.271-.227c-.369-.206-.385-.21-.65-.674h0c-.1-.207-.147-.385-.151-.385l-.1-.938c2-.2,1.614.012,2.323.26.666.217.873-.056,1.41-.147C113.3,52.258,112.419,52.288,113.9,52.344Z" transform="translate(-3.773 -1.373)" fill="#010101" fill-rule="evenodd"/>
    <path id="Trazado_63" data-name="Trazado 63" d="M111.869,42.178c.515,1.355.332.658.255,3.92a10.462,10.462,0,0,1-.32,3.066,1.95,1.95,0,0,1-.326.857l-.385.225h-.009l-.413-.193-.289-.482h0c-.6-1.984-.488-2.475-.36-5.38a2.962,2.962,0,0,1,.282-1.605c.283-.591.1-.355.928-1.111C111.24,41.488,111.857,42.162,111.869,42.178Z" transform="translate(-3.829 -0.978)" fill="#010101" fill-rule="evenodd"/>
    <ellipse id="Elipse_19" data-name="Elipse 19" cx="1.774" cy="1.331" rx="1.774" ry="1.331" transform="translate(101.369 43.563) rotate(-87.504)"/>
    <ellipse id="Elipse_20" data-name="Elipse 20" cx="1.774" cy="1.331" rx="1.774" ry="1.331" transform="translate(110.673 43.969) rotate(-87.504)"/>
    <path id="Trazado_64" data-name="Trazado 64" d="M123.213,155.345c4.423-1.02,12.064-7.114,11.051,4.122-.6,6.58-2.48,14.1.046,20.533" transform="translate(-4.314 -5.04)" fill="none"/>
    <path id="Trazado_65" data-name="Trazado 65" d="M105.905,59.32a8.9,8.9,0,0,1,1.043.13,6.52,6.52,0,0,0,2.141.563c.645.062.964.021,1.344.069,1.859.23,1.374.14,2.04.359l.281.345c0,.011-.123.428-.126.438l-.435.367h0a4.947,4.947,0,0,1-2.479.635,9.871,9.871,0,0,1-3.032-.537,2.227,2.227,0,0,1-1.358-.964c-.276-.431-.172-.11-.36-1.253C106.234,59.264,105.8,59.313,105.905,59.32Z" transform="translate(-3.648 -1.628)" fill-rule="evenodd"/>
    <path id="Trazado_66" data-name="Trazado 66" d="M101.039,44.2a9.557,9.557,0,0,1-.763-9.868A10.3,10.3,0,0,1,93.3,27.347c6.455,3.82,18.568-6.693,26.466-2.32,3.134,1.734,4.438,5.637,3.8,9.057,4.573,2.143,3.153,6.305.808,10.777a8.155,8.155,0,0,0-2.853-.43c-.211-3.3.181-6.612-.078-9.916a27.08,27.08,0,0,1-5.369.952c-4.11.482-8.68.643-12.707-.47a18.466,18.466,0,0,0-2.184,9.585" transform="translate(-3.222 -0.338)" fill-rule="evenodd"/>
    <path id="Trazado_67" data-name="Trazado 67" d="M93.9,26.422c5.332,2.754,13.983-4.082,22.115-3.546,5.65.364,8.724,4.458,8.755,9.549.006,1.684-.429.452,1.113,1.86,2.794,2.815,1.782,6.172.076,9.756-.584,1.139-.763,1.982-1.847,1.844a6.826,6.826,0,0,0-2.651-.406c-1.181-.122-1.073-1.111-1.114-2.141-.071-1.762.115-5.75.056-7.491a25.45,25.45,0,0,1-2.552.4c-9.724,1.156-13.454-.2-13.761-.216-.2-.049-.325-.081-.326-.081a21.063,21.063,0,0,0-1,2.389A16.765,16.765,0,0,0,101.8,43.6c-.043,1,.147.541-.148,1.382l-.455.234h-.009l-.482-.165-.237-.461h0v-.05l-.031-.02a10.975,10.975,0,0,1-2.075-6.969,9.755,9.755,0,0,1,.564-2.648,10.762,10.762,0,0,1-4.878-3.691,11.093,11.093,0,0,1-1.711-3.2,1.718,1.718,0,0,1-.141-.964,1.089,1.089,0,0,1,1.08-.841,1.18,1.18,0,0,1,.621.206Zm7.231,7.548a.915.915,0,0,1,0,.621,8.4,8.4,0,0,0-.67,6.82c.063.193.011.168.084-.307a20.4,20.4,0,0,1,1.371-5.074c.662-1.53.69-1.713,1.2-1.891.1,0-.051-.025.289-.022a23.714,23.714,0,0,0,5.079.716,56.692,56.692,0,0,0,10.9-.922,18.765,18.765,0,0,0,1.85-.482,1.06,1.06,0,0,1,1.14.631c.357,1.08.084,6.208.141,9.291a9.026,9.026,0,0,1,1.262.176c.109-.2.329-.668.434-.878a12.4,12.4,0,0,0,1.025-2.757c.563-2.514-.144-3.634-1.569-4.544-.682-.393-.687-.277-1.019-.651-.566-.9.244-.816-.209-3.95a6.978,6.978,0,0,0-2.891-4.582c-6.535-4.132-17.106,4.133-24.306,2.993a9.429,9.429,0,0,0,4.487,3.984C100.526,33.447,100.843,33.326,101.132,33.97Z" transform="translate(-3.182 -0.298)" fill-rule="evenodd"/>
    <path id="Trazado_68" data-name="Trazado 68" d="M141.97,81.3s-9.426,9.3-29.622,12.01c-8.221,1.1-16.612-1.413-23.983-5.051C84.815,86.5,80.539,84.388,78,81.282c.813-2.473,3.2-4.739,5.163-6.346a39.13,39.13,0,0,1,9.678-5.859,26.969,26.969,0,0,1,7.287-1.919,8.633,8.633,0,0,0,4.528,3.942c5.731,2.548,11.841.589,15.487-4.363C128.615,67.71,138.059,74.371,141.97,81.3Z" transform="translate(-2.664 -1.9)" fill="#372e8b" fill-rule="evenodd"/>
    <path id="Trazado_69" data-name="Trazado 69" d="M137.022,85.848A57.881,57.881,0,0,1,119.2,93.134C108.606,95.55,100,95.718,84.878,87.7a25.7,25.7,0,0,1-7.5-5.45,1.418,1.418,0,0,1-.507-.986,6.681,6.681,0,0,1,.964-2.284A14.441,14.441,0,0,1,79.2,77.137a36.847,36.847,0,0,1,8.025-6.481,31.865,31.865,0,0,1,12.438-4.579,1.21,1.21,0,0,1,1.234.314,6.369,6.369,0,0,0,2.33,2.667c4.48,3.018,10.8,3.044,15.534-2.265h0c.936-1.118.741-1.2,2.287-.952,7.813,1.292,16.829,7.147,21.431,15a.7.7,0,0,1-.075.907l-.009-.009a35.442,35.442,0,0,1-5.37,4.1ZM119.278,69.185a13.468,13.468,0,0,1-11.005,3.994c-4.105-.462-7.612-2.794-8.8-4.881A31.091,31.091,0,0,0,86.9,73.448a31.856,31.856,0,0,0-6.211,5.3,9.924,9.924,0,0,0-1.473,2.281,17.875,17.875,0,0,0,3.312,2.763,72.546,72.546,0,0,0,11.352,5.685c7.742,2.966,13.562,3.372,18.755,2.653,8.961-1.271,18.841-4.276,26.473-9.516a23.679,23.679,0,0,0,1.96-1.486c-4.177-6.524-12.671-12.284-20.512-13.376A15.817,15.817,0,0,1,119.278,69.185Z" transform="translate(-2.623 -1.863)" fill="#372e8b" fill-rule="evenodd"/>
    <path id="Trazado_70" data-name="Trazado 70" d="M125.908,15.209c9.558.761,27.267,3.077,36.368,7.592a29.184,29.184,0,0,1,12.477,11.217,22.784,22.784,0,0,1,2.389,5.974c1.831,7.9-.756,15.331-5.666,21.862a92.594,92.594,0,0,1-9.714,10.406,139.647,139.647,0,0,1-15.77,12.565c-6.529,4.482-6.406,3.822-4.98,3.758a22.2,22.2,0,0,1,8.413,1.2c3.868,1.318,5.155,5,3.661,8.017-3.9,7.881-22.6,6.108-25.842-.476a4.827,4.827,0,0,1-.438-1.264c-13.691,1.222-30.992,4.534-53.78-7.85-5.885-3.234-11.107-6.7-14.954-12.164a36.6,36.6,0,0,1-3.728-6.455,36.02,36.02,0,0,1-1.508-25.534C61.332,17.332,98.036,12.932,125.908,15.209Zm10.521,74.464c.156-.681-.02-.253,3.187-2.325,11.044-7.01,29.2-21.407,34.124-32.824a22.962,22.962,0,0,0,2.064-9.362,21.082,21.082,0,0,0-6.648-15.049c-4.315-4.085-8.5-6.081-14.184-7.825-6.521-1.965-15.825-3.418-22.071-4.184-20.86-2.513-50.643-2.068-67.049,11.1A32.454,32.454,0,0,0,54.24,62.5c2.542,10.173,7.854,16.451,15.651,21.353C86.56,94.214,101.019,96.32,118.978,94.7c8.971-.836,9.046-1.129,9.667-.372a1.024,1.024,0,0,1,.181.735l-.007.155v.022c-.209,4.788,15.887,8.951,21.943,2.953,2.178-2.553,1.325-5.4-1.067-6.6a22.121,22.121,0,0,0-5.829-1.512,27.687,27.687,0,0,0-6.666.263v.012a.683.683,0,0,1-.773-.678Z" transform="translate(-1.685 0)" fill-rule="evenodd"/>
    <path id="Trazado_71" data-name="Trazado 71" d="M150.591,183.688c-3.875-3.05-8.95-4.763-13.682-5.839-5.995-1.367-18.05-.4-18.161-.289-4.644,4.388-8.914,9.071-14.48,12.4-2.225,1.333-7.206,2.154-5.994-2.023a14.218,14.218,0,0,0-5.219,3.55c2.409,5.335,4.467,9.642,6.895,14.951,2.521-1.027,4.239-1.356,6.762-2.369,7.634,5.14,12.794,14.652,15.59,23.244,1.088-1.839,2.191-3.722,3.421-5.471-1.423-4.017-3.189-12.08,3.334-12.429-.337-5,1.219-10.636,7.3-9.964-.222-2.557-.216-5.447,1.253-7.682,1.855-2.823,5.805-1.5,7.644.506C146.819,189.481,150.591,183.688,150.591,183.688Z" transform="translate(-3.214 -5.928)" fill="#372e8b" fill-rule="evenodd"/>
    <path id="Trazado_72" data-name="Trazado 72" d="M147.563,189.754c-1.877,3.092-1.7,3.29-2.459,3.258-.406-.1-.431-.233-.626-.4a6.314,6.314,0,0,0-2.511-1.464,4.054,4.054,0,0,0-2.006-.127l-.022.008h-.027a2.505,2.505,0,0,0-1.043.518l-.014.016h0a7.062,7.062,0,0,0-1.7,4.574c-.13,2.993.306,3.076-.044,3.772a.956.956,0,0,1-.964.428,5.61,5.61,0,0,0-3.18.528,5.447,5.447,0,0,0-2.466,3.391,10.653,10.653,0,0,0-.351,1.627c-.436,3.429.353,3.7-.6,4.391h0c-.951.438-4.969-.368-3.957,6.779h0a25.335,25.335,0,0,0,1.122,4.386c.243.969-.157.635-3.1,5.7-.423.715-.544,1.125-1.287,1.223a1.087,1.087,0,0,1-1.091-.749,57.2,57.2,0,0,0-5.751-12.485,33.97,33.97,0,0,0-8.949-9.872c-.829.26.992-.281-3.308,1.121-1.831.578-2.765.99-3.083,1.087a1.084,1.084,0,0,1-1.217-.608c-4.728-10.38-6.987-14.747-6.991-15.5a1.049,1.049,0,0,1,.309-.661,14.153,14.153,0,0,1,3.944-3.007,12.72,12.72,0,0,1,1.942-.86,1.093,1.093,0,0,1,1.124.684c.15.512.042.539-.072,1.137a1.567,1.567,0,0,0-.034.585v.036a.482.482,0,0,0,.014.063v.018a1.182,1.182,0,0,0,.039.117v.009l.009.01.008.018v.009a.365.365,0,0,1,.025.037v.009h0v.01h0v.01l.026.028h.009v.009h.009v.009l.009,0H99.3l.013.013h.009l.009.01.026.014.009.009c.02.012.01,0,.03.015l.009.009.048.02.013.01.052.019.013.01c.04.016.155.05.193.063h.022a.31.31,0,0,1,.057.015h.022l.04.011h.022l.022.006c2.578.112,4.072-1.026,6.166-2.5,5.672-4.182,11.04-10.117,12.057-10.821.983-.425,12.556-1.008,18.294.207,4.868,1.077,10.662,3.164,14.492,6.353l.01-.009C151.617,183.708,151.27,183.649,147.563,189.754Zm-2.526,1.235h0c.385-.715,4.416-6.979,4.6-7.186-3.523-2.578-8.695-4.222-12.972-5.1-3.022-.744-9.643-.594-12.746-.476-.873.047-3.846.2-4.71.31-6.326,6.093-7.873,7.8-12.582,11.139a11.876,11.876,0,0,1-4.9,2.286c-1.267.225-2.92.182-3.854-.709a2.711,2.711,0,0,1-.856-1.556,11.868,11.868,0,0,0-2.7,1.982c1.48,3.313,5.563,12.005,6.153,13.324.973-.385,4.179-1.349,5.128-1.734,1.318-.482,1.106-.594,2.783.632a36.035,36.035,0,0,1,8.571,9.48,59.313,59.313,0,0,1,5.575,11.319c.065-.1,1.295-2.135,1.949-3.067-1.127-3.512-2.157-8.486.216-11.369a5.353,5.353,0,0,1,3.254-1.816,12.122,12.122,0,0,1,2.12-7.658,6.313,6.313,0,0,1,1.414-1.3,6.687,6.687,0,0,1,3.834-1.08c-.148-3.017.435-7.116,3.038-8.587,1.556-.887,4.122-.843,6.685,1.16Z" transform="translate(-3.173 -5.887)" fill-rule="evenodd"/>
    <path id="Trazado_73" data-name="Trazado 73" d="M129.765,281.727a24.612,24.612,0,0,1-10.5-23.546c-8.184,4.633-16.784,7.015-26.125,4.81,1.445,6.406,2.922,12.815,4.329,19.224,3.643-.128,21.6-.342,32.623-.282" transform="translate(-3.217 -8.886)" fill="#372e8b" fill-rule="evenodd"/>
    <path id="Trazado_74" data-name="Trazado 74" d="M119.407,257.065a1.1,1.1,0,0,1,.9,1.039c-.014.2-.088.788-.1.892a22.875,22.875,0,0,0,.607,8.159,24.85,24.85,0,0,0,4.442,9.311h.009a27.939,27.939,0,0,0,4.914,4.8l.357.148c.646,1.523.705,1.1-13.222,1.377-14.412.42-4.45.036-19.854.462a1.083,1.083,0,0,1-1.1-.852c-4.6-20.671-4.425-19.162-4.311-19.764a1.1,1.1,0,0,1,1.113-.778,30.3,30.3,0,0,0,10.632.6,36.743,36.743,0,0,0,11.287-3.406C118.832,257.3,118.576,257.009,119.407,257.065Zm-22.855,7.593c-.105-.013-1.916-.243-2.023-.3.746,3.276,3.049,13.425,3.764,16.7.836-.242,24.9.03,29.458.1-.114-.064-.958-.735-1.471-1.178a23.264,23.264,0,0,1-2.381-2.4,24.645,24.645,0,0,1-5.958-17.511C111.258,263.543,104.056,265.59,96.551,264.658Z" transform="translate(-3.176 -8.845)" fill-rule="evenodd"/>
    <path id="Trazado_75" data-name="Trazado 75" d="M203.812,177.011a9.011,9.011,0,0,0,1.537.9l.608.311h0a9.837,9.837,0,0,0,3.276,1.213,12.705,12.705,0,0,0,3.343.172,20.777,20.777,0,0,0,3.906-.7,6.869,6.869,0,0,0,1.316-.538l.523-.1.424.236h0l.1.482-.251.469h0a9.1,9.1,0,0,1-1.416,1.016,10.26,10.26,0,0,1-4.024,1.258,14.707,14.707,0,0,1-6.05-.614,11.317,11.317,0,0,1-2.268-1.044h0l-.349-.251a7.654,7.654,0,0,1-1.651-1.927h0l-.129-.515.17-.423h0l.432-.127Z" transform="translate(-7.215 -5.918)" fill-rule="evenodd"/>
    <path id="Trazado_76" data-name="Trazado 76" d="M206.067,178.96c.327.622.2.146.463,1.791a25.8,25.8,0,0,1,.178,5.579,1.314,1.314,0,0,1-.157.748c-.482.692-.919.511-2.12.565a84.516,84.516,0,0,0-10.309,1.172c-1.63.3-.964.3-1.8.193l-.335-.361c0-.014.051-.482.053-.5l.385-.36h0a25.262,25.262,0,0,1,8.79-2.13c3.615-.289,3.325-.111,3.331-.254,0-.193.013-1.015.014-1.542h0a16.339,16.339,0,0,1,.206-3.1c.007-.047.2-1.283.2-1.323h0l.243-.469.417-.2h0Z" transform="translate(-6.824 -5.988)" fill-rule="evenodd"/>
    <path id="Trazado_77" data-name="Trazado 77" d="M239.985,138.3h0a12.543,12.543,0,0,1,1.19.713c4.9,3.577,4.588,9.545-.353,12.992a14.117,14.117,0,0,1-4.818,2.152,35.955,35.955,0,0,1-1.768,11.514,26.908,26.908,0,0,1-4.357,8.307c.01.121.072,5.1.352,9.448a85.958,85.958,0,0,1,10.538,3.69c1.126.531.84.336,1.291.833l-.014.51-.379.348c-.1,0-.627-.01-.523-.01a87.292,87.292,0,0,0-11.755-3.549,1.3,1.3,0,0,1-.549-.144h0c-.524-.336-.519-.7-.578-1.331-.225-2.115-.451-5.12-.547-9.222.016-1.7-.011-1.234.846-2.409l.364-.508a24.6,24.6,0,0,0,2.387-4.343,32.978,32.978,0,0,0,2.505-13.995,1.087,1.087,0,0,1,.766-1.076,12.21,12.21,0,0,0,2.325-.587c3.125-1.29,5.766-3.359,5.588-6.721,0-.031-.013-.149-.015-.156a5.808,5.808,0,0,0-1-2.711h0a7.4,7.4,0,0,0-2.341-2.2,7.731,7.731,0,0,0-3.944-1.183l-.475-.193-.211-.448h0l.18-.462c.538-.26.385-.23.84-.243A9.466,9.466,0,0,1,239.985,138.3Z" transform="translate(-8.128 -4.475)" fill-rule="evenodd"/>
    <path id="Trazado_78" data-name="Trazado 78" d="M194.755,119.267c2.8,1.466,5.483,3.136,8.6,3.876,6.947,1.648,15.009-1.122,20.2-5.858.755,7.739,2.292,16.466,10.653,18.567a28.364,28.364,0,0,0-2.159-14.924c-2.445-5.018-7.734-8.725-13.109-9.966a24.78,24.78,0,0,0-13.84.674c-1.831.693-3.453,1.919-5.354,2.445-.79.219-1.92-.143-1.8-1.162a4.625,4.625,0,0,1,1.586-2.874A22.484,22.484,0,0,1,208.586,106c4.833-.893,12.4.072,16.759,2.505a27.171,27.171,0,0,1,10.166,11.1c1.993.1,3.173.438,4.858-.959,2.018-1.674.992-5.2-6.1-6.07a15.506,15.506,0,0,0,3.764-1.742,7.31,7.31,0,0,0,2.972-2.711c1.27-2.545-.51-5-3.206-5.284-2.833-.3-5.969,1.8-7.882,3.732,1.4-2.187,3.161-4.187,3.946-6.709,1.01-3.23-.381-5.413-3.594-3.794-2.56,1.288-4.2,4.173-5.746,6.462a21.912,21.912,0,0,0,2.139-5.385c.592-2.885.077-8.889-4.476-7.5-3.859,1.181-5.982,5.618-7.213,9.442.317-2.913,1.523-9.822.144-12.657a2.774,2.774,0,0,0-4.47-.939,7.044,7.044,0,0,0-1.229,1.437c-2.362,3.565-2.384,8.044-2.7,12.155-.674-2.891-1.573-6.166-3.816-8.286-3.432-3.235-6.284,1.2-6.508,4.487-.217,3.236,1.037,6.162,2.06,9.148-1.844-2.7-3.189-6.682-6.028-8.564-2.972-1.971-5.343.977-5.319,3.986.029,3.512,2.676,7.053,4.576,9.894-2.252-2.1-5.163-5.069-8.529-4.955-2.337.079-4.783,5.2-.226,10.173,3.124,3.414,7.369,3.469,11.579,3.843" transform="translate(-6.4 -2.556)" fill-rule="evenodd"/>
    <path id="Trazado_79" data-name="Trazado 79" d="M234.584,95.576c1.332,1.994.443,4.752-.694,6.856.03-.012.131-.055.167-.07,7.57-2.955,11.2,4.789,5.924,8.43-.455.345-1.676,1.113-2.183,1.4a10.867,10.867,0,0,1,1.882.818c2.891,1.578,3.872,4.83.721,6.906-1.525.979-2.681.884-4.447.771-.674-.043-.674-.016-1-.171-.669-.441-.128-.327-1.945-3.129a27.492,27.492,0,0,0-7.166-7.323c-5.152-3.327-13.83-4.033-18.433-2.722a22.192,22.192,0,0,0-6.522,2.987,4.276,4.276,0,0,0-1.37,1.293,3.565,3.565,0,0,0-.516,1.349h0a.706.706,0,0,0,.323.036,21.092,21.092,0,0,0,3.822-1.743c8.9-4.454,23.855-2.229,29.719,8.891a23.037,23.037,0,0,1,2.078,6.4,32.008,32.008,0,0,1,.35,8.787c-.078.652-.044.726-.256,1.09a1.08,1.08,0,0,1-1.228.385,13.453,13.453,0,0,1-2.251-.8c-5.616-2.706-7.4-8.045-8.436-14.21-.086-.578-.295-2.039-.353-2.728a25.46,25.46,0,0,1-14.924,5.294c-6.76.042-10.677-3.291-13.434-4.554-.544-.665.27-.219-3.646-.674-4.351-.493-7.478-1.837-9.839-5.572a10.639,10.639,0,0,1-.76-1.5,7.839,7.839,0,0,1-.6-3.33c.1-2.193,1.358-4.721,3.622-4.778a8.419,8.419,0,0,1,4.732,1.533h0c-1.195-2.279-2.126-4.656-1.582-7.187.792-2.921,2.532-4.036,4.193-4.03,2.042.021,3.637,1.663,4.9,3.262-.045-.158-.088-1.184-.1-1.288-.068-5.514,4.041-9.75,7.92-6.531a11.412,11.412,0,0,1,2.814,3.87,16.492,16.492,0,0,1,2.716-7.725c1.317-1.871,3.3-2.821,5.373-1.887,2.948,1.493,2.729,5.332,2.584,8.636a13.719,13.719,0,0,1,.969-1.253c3.5-3.779,8.149-4.356,9.664.11a11.844,11.844,0,0,1,.47,4.9,8.266,8.266,0,0,1,2.876-1.709C232.631,94.061,233.926,94.6,234.584,95.576Zm-21.7,8.973c4.275.066,9.508.985,13.157,3.083a28.463,28.463,0,0,1,8.054,7.515,24.345,24.345,0,0,1,2.09,3.372,8.6,8.6,0,0,0,2.016,0,3.285,3.285,0,0,0,1.794-1.136l.014-.016.018-.033.006-.016.028-.048.006-.015.01-.015v-.015l.01-.016c.02-.064.033-.1.046-.139v-.015l.011-.03v-.016l0-.014v-.032l.006-.015.007-.159v-.118c-.012-.059-.019-.1-.033-.159l-.008-.018v-.018h0v-.018l-.008-.019v-.018l-.032-.076c-.026-.143-.36-.991-2.16-1.784a14.089,14.089,0,0,0-3.622-.916,1.131,1.131,0,0,1-1.033-.647,1.083,1.083,0,0,1,.337-1.324c.338-.213.832-.289,1.915-.763,1.1-.482,3.687-1.943,4.3-2.97a2.468,2.468,0,0,0-1.411-3.894,5.868,5.868,0,0,0-4.4.751,14.278,14.278,0,0,0-3.338,2.51,1.084,1.084,0,0,1-.662.315,1.109,1.109,0,0,1-.715-.179,1.085,1.085,0,0,1-.4-1.326c.832-1.588,4.818-5.992,4.1-8.864l-.025-.02a.5.5,0,0,0-.012-.051l-.008-.016v-.016l-.009-.016v-.016l-.009-.016v-.015c-.137-.265-.155-.289-.16-.3l-.009-.009v-.009l-.009-.007V96.75l-.009-.007v-.007l-.009-.007,0-.006-.009-.006v-.006l-.009,0V96.7h-.017v0H232.7v0l-.017-.009h0l-.035-.015h0a1.02,1.02,0,0,0-.406-.064,5.31,5.31,0,0,0-3.027,1.531c-3.608,3.605-3.352,5.886-5.056,5.4a1.089,1.089,0,0,1-.7-1.156c.158-.717,1.989-3.542,2.267-6.174.171-1.638.042-4.309-1.24-5.361-1.06-.838-2.966.124-4,.945-1.941,1.432-3.324,4.368-4.13,6.648-.418,1.165-.356,1.336-.951,1.652a1.1,1.1,0,0,1-.738.035c-1.691-.685.045-2.517.014-10.3-.006-1.337-.229-3.293-1.445-3.868a1.529,1.529,0,0,0-.9-.119,3.065,3.065,0,0,0-1.792,1.391c-2.282,3.378-2.409,6.986-2.709,11.347-.046.695-.026.952-.449,1.343a1.068,1.068,0,0,1-1.318-.007c-.674-.643-.259-1.236-1.638-4.868-.057-.122-.245-.613-.416-.929-.609-1.293-2.061-3.384-3.5-3.417a2.536,2.536,0,0,0-1.888,1.253c-2.51,3.676-.684,7.8.711,12.019a.993.993,0,0,1-.234,1.192.975.975,0,0,1-1.219.05c-1.273-1.118-3.621-7.982-6.721-8.954a1.8,1.8,0,0,0-1.711.26c-4.528,4.113,2.917,11.947,3.089,13.161a.849.849,0,0,1-1.187.847c-.884-.473-4.311-4.914-8.028-4.937a1.226,1.226,0,0,0-.754.193c-2.441,1.87-1.6,6.711,1.607,9.366,2.621,2.429,6.528,2.635,10,2.942.5.045.307-.011.858.278l.106.326c3.637,1.944,6.676,3.671,10.371,4.027a21.758,21.758,0,0,0,10.938-1.916,24.137,24.137,0,0,0,6.479-4.223.929.929,0,0,1,1.166-.068c.674.569.16.665,1.046,5.546a26.51,26.51,0,0,0,1.949,6.494c1.488,2.908,3.056,4.69,6.172,5.885h0a29.608,29.608,0,0,0-1.075-10.159,17.015,17.015,0,0,0-2.162-4.686c-3.749-5.369-10.415-8.778-18.87-8.161-5.86.449-7.407,2.321-10.333,3.426a3.318,3.318,0,0,1-2.7.118,2.33,2.33,0,0,1-.741-.528,2.06,2.06,0,0,1-.524-1.2,4.824,4.824,0,0,1,.651-2.427,6.853,6.853,0,0,1,2.839-2.7A25.061,25.061,0,0,1,206.4,105.4a20.9,20.9,0,0,1,6.482-.854Z" transform="translate(-6.37 -2.515)" fill-rule="evenodd"/>
    <path id="Trazado_80" data-name="Trazado 80" d="M184.724,186.844c.3.622.193.2.335,1.591a78.957,78.957,0,0,1,.435,8.961c.234,11.728.326,10.823.411,19.093-.1,7.944,0,7.106-.771,7.5h0l-.466-.2c-.284-.643-.206-.277-.32-1.638-.7-8.4-.62-9.539-.784-14.586-.342-14.453-.361-14.184-.2-16.873.079-1.339.249-3.268.262-3.372h0l.221-.47.439-.2h.009Z" transform="translate(-6.506 -6.276)" fill-rule="evenodd"/>
    <path id="Trazado_81" data-name="Trazado 81" d="M249.489,184l.435.214.205.471c.464,4.541.3,22.919.272,23.926a90.1,90.1,0,0,1-1.074,13.342c-.253,1.747-.211,1.445-.512,1.962l-.482.147h-.009c-.876-.523-.509.229-.3-7.062.578-20.908-.2-22.9.665-31.449.132-1.113.04-.771.339-1.366l.447-.185Z" transform="translate(-8.86 -6.179)" fill-rule="evenodd"/>
    <path id="Trazado_82" data-name="Trazado 82" d="M217.275,218c.605,1.156.355.451.6,3.4a5.9,5.9,0,0,1-.226,2.76h0l-.268.535-.37.232H217c-.492-.251-.328-.1-.706-.7h0a6.623,6.623,0,0,1-.541-2.066c-.012-.126-.243-2.863-.188-3.222a2.643,2.643,0,0,1,.222-.62c.193-.4.013-.162.8-.977C216.6,217.35,217.263,217.99,217.275,218Z" transform="translate(-7.684 -7.396)" fill-rule="evenodd"/>
    <path id="Trazado_83" data-name="Trazado 83" d="M130.115,213.6c2.356,2.571.326.314,3.978,5.065,5.627,6.489,5.324,5.8,5.056,6.719h0l-.447.193-.531-.156c.421,0-2.409-.771-6.969-6.931a15.53,15.53,0,0,1-1.684-2.608,11.692,11.692,0,0,1-.564-1.632c.03-.682-.1-.385.257-.908h.009l.44-.02Z" transform="translate(-4.524 -7.249)" fill-rule="evenodd"/>
    <path id="Trazado_84" data-name="Trazado 84" d="M135.081,205.263a18.427,18.427,0,0,1,1.542,2.007c2.824,5.084,3.365,5.608,4.467,7.426,1.965,3.539,1.627,2.706,1.791,3.51l-.223.43h0l-.475.1-.487-.251h0c-.421-.435-1.459-1.492-2.038-2.241a70.085,70.085,0,0,1-4.966-7.986,15.225,15.225,0,0,1-.784-2.378c.029-.664-.069-.429.283-.9h0l.444-.008Z" transform="translate(-4.704 -6.944)" fill-rule="evenodd"/>
    <path id="Trazado_85" data-name="Trazado 85" d="M147.843,208.418l-.5-.226h0a21.86,21.86,0,0,1-2.287-2.328,28.877,28.877,0,0,1-3.415-5.884,6.981,6.981,0,0,1-.771-3.478c0-.278-.033-.112.16-.73l.341-.277h.009l.426.1c.423.461.355.367.459.578.067.129.835,1.515.9,1.753,1.5,3.987,2.474,4.729,4.685,8.533.647,1.082.482.661.663,1.391l-.2.439h0v0Z" transform="translate(-4.958 -6.599)" fill-rule="evenodd"/>
    <path id="Trazado_86" data-name="Trazado 86" d="M157.384,195.8h.009l.33.36c.019,2.346-6.5,14.589-5.736,33.6.062,2.93.455,7.2.591,8.873,1.214,11.64,1.66,10.9,1.4,12.078-.009,0-.414.289-.421.289s-.49-.1-.5-.106l-.3-.43a116.762,116.762,0,0,1-2.663-15.476,94.064,94.064,0,0,1,.256-18.008c.279-2.669,1.06-6.476,1.077-6.581a50.432,50.432,0,0,1,4.068-12.262c1.1-2.3.957-1.972,1.394-2.354Z" transform="translate(-5.284 -6.609)" fill-rule="evenodd"/>
    <path id="Trazado_87" data-name="Trazado 87" d="M127.767,228.817l.344.357c.028,1.665-.289-.493-1.808,7.867-1.309,7.138-4.818,17.559-2.306,28.262a22.288,22.288,0,0,0,4.094,8.733,18.416,18.416,0,0,0,7.838,5.748A19.155,19.155,0,0,0,144.417,281a23.9,23.9,0,0,0,6.575-1.734c6.148-2.5,9.99-8.056,13.172-13.778,3.276-6.011,2.348-4.947,3.117-5.627l.51.018.348.385c-.03.674.046.352-.367,1.288-2.083,4.652-5.058,10.773-8.688,14.466a22.691,22.691,0,0,1-17.71,7.184,21.079,21.079,0,0,1-18.555-14.273,36.54,36.54,0,0,1-1.734-15.151c.891-9.1,1.97-10.939,3.029-15.423.261-1,1.387-6.427,2.776-9.188h0l.371-.353h.5Z" transform="translate(-4.23 -7.815)" fill-rule="evenodd"/>
    <path id="Trazado_88" data-name="Trazado 88" d="M178.307,191.437l.238.446h0l-.162.482c-.51.278-.4.245-.7.289-4.115.587-8.638,3.585-11.933,6.13h0c-5.685,4.38-9.139,9.25-13.3,14.939-.008.007-.423.3-.431.3l-.482-.043-.009,0-.289-.385c.042-.623.016-.482.11-.692a32.61,32.61,0,0,1,6.21-9.367,50.97,50.97,0,0,1,8.857-7.96,25.091,25.091,0,0,1,5.995-3.219c.1-.035,1.71-.585,1.863-.585a16.782,16.782,0,0,1,3.525-.5Z" transform="translate(-5.337 -6.444)" fill-rule="evenodd"/>
    <path id="Trazado_89" data-name="Trazado 89" d="M253.468,193.068c6.421,1.746,13.308,4.487,18.506,8.788,4.342,3.5,7.352,7.186,10.446,14.124,6.113,13.023,8.344,26.317,9.4,40.66.178,3.132.82,6.552,1.365,11.246a36.171,36.171,0,0,1,.187,6.711l-.233.465-.482.174h-.01l-.456-.228-.178-.482c.2-4.568-1.069-9.876-1.628-13.562-1-6.094-1.095-13.805-3.565-24.921a87.057,87.057,0,0,0-4.818-15.654c-1.8-4.2-4.3-9.67-7.4-13.058a32.389,32.389,0,0,0-2.806-2.768c-4.889-4.4-12.113-7.909-18.731-10.213h0l-.385-.336c0-.014-.05-.49-.049-.5l.323-.377Z" transform="translate(-9.037 -6.51)" fill-rule="evenodd"/>
    <path id="Trazado_90" data-name="Trazado 90" d="M264.145,282.707c-.428-.493-.315-.234-1.073-1.961-.482-1.112-.33-.663-1.975-6.327h0a5.343,5.343,0,0,1-.234-2.359l.462-.823.824.462a10.461,10.461,0,0,1,.845,1.48c.057.149,1.6,5.379,1.747,6.064.077.338.236,1.5.248,1.662.108,1.253.128.846-.021,1.584l-.351.318C264.6,282.806,264.158,282.709,264.145,282.707Z" transform="translate(-9.336 -9.363)" fill-rule="evenodd"/>
    <path id="Trazado_91" data-name="Trazado 91" d="M174.449,280.232c-2.077-17.632-5.766-35.97,2.733-52.525,8.56-1.975,60.419-2.2,77.273-.771,5.913,18.032,1.894,36.391-1.6,54.456" transform="translate(-6.089 -7.713)" fill="#372e8b" fill-rule="evenodd"/>
    <path id="Trazado_92" data-name="Trazado 92" d="M253.466,225.731c1.231.079,1.236.086,1.547.258.451.349.434.584.71,1.429,5.4,17.677,1.582,35.072-2.067,53.216-.21,1.02-.1.736-.464,1.284l-.5.107h-.009l-.427-.289c-.15-.721-.17-.174.207-2.211,3.134-17.213,2.639-16.154,2.742-16.154,1.769-12.937,2.006-23.294-1.6-35.45-.012,0-.541-.042-4.055-.256-15.721-.686-31.581-.712-46.481-.441-3.281.061-22.064.5-25.187,1.4a47.766,47.766,0,0,0-4.57,15.947c-1.691,15.406,2.239,33.964,1.622,36.035l-.437.251h0l-.482-.141-.256-.442h0c-2.5-17.927-6.247-36.432,2.226-52.7.518-1.06.564-.951,3.122-1.333C194.652,224.467,240.026,224.594,253.466,225.731Z" transform="translate(-6.048 -7.671)" fill-rule="evenodd"/>
    <path id="Trazado_93" data-name="Trazado 93" d="M121.131,112.557c.109.071.009.074.527-.077,3.726.317,7.78,5.059,6.86,8.617l-.012.058h0c-1.325,5.119-8.344,3.519-11.105-1.039h0a6.906,6.906,0,0,1-1.05-2.891,4.348,4.348,0,0,1,.272-2.171,3.842,3.842,0,0,1,4.508-2.5Zm-.165,1.323a2.432,2.432,0,0,0-1.134.246,2.6,2.6,0,0,0-1.3,2.094.683.683,0,0,1-.014.124c-.249,1.618,1.285,4.441,4.5,5.588a3.721,3.721,0,0,0,1.955.183,2.032,2.032,0,0,0,1.428-1.5h0a2.993,2.993,0,0,0-.111-1.743,8.885,8.885,0,0,0-.867-1.849,6.745,6.745,0,0,0-4.075-3.27Z" transform="translate(-4.062 -3.568)" fill="#010000" fill-rule="evenodd"/>
    <path id="Trazado_94" data-name="Trazado 94" d="M131.705,106.817c1.9.04,3.9,2.294,3.792,4.652-.124,2.859-3.945,4.528-6.4.9a3.449,3.449,0,0,1-.252-3.571,2.909,2.909,0,0,1,.407-.571c.814-.758.566-.356.76-.746A2.371,2.371,0,0,1,131.705,106.817Zm-.674,1.645-.065.142h0a1.652,1.652,0,0,0-.363.687v.022l-.01.021a1.4,1.4,0,0,0-.037.226l0,.02v.383l.012.059v.02a.429.429,0,0,0,.011.053v.007l.007.04v.02c.013.069.017.1.037.177v.006c0,.026.017.1.021.126l.008.021.007.042.009.021v.022l.009.021v.021l.009.022v.021c.419,1.142,1.222,1.623,1.759,1.593a1.124,1.124,0,0,0,.6-.24l.046-.04v-.009a.652.652,0,0,0,.061-.068v-.01l.01-.009.01-.018.01-.01.029-.061.01-.011v-.012l.01-.012v-.023c.009-.022.012-.028.024-.062v-.013l.01-.027v-.016h0V111.6l.006-.014v-.015l.006-.015v-.015l.006-.015v-.033l.006-.015v-.343l-.007-.042v-.021c-.124-1.093-1.173-2.951-2.234-2.611Z" transform="translate(-4.506 -3.362)" fill="#010000" fill-rule="evenodd"/>
    <path id="Trazado_95" data-name="Trazado 95" d="M157.937,111.508a7.385,7.385,0,0,1,1.547.238,4.818,4.818,0,0,1,3.487,2.8c1.044,2.319-.586,4.546-3.773,3.972a7.773,7.773,0,0,1-3.565-1.542C153.294,114.873,154.46,111.49,157.937,111.508Zm.53,1.79h0a4.336,4.336,0,0,0-1.113.368h0a1.953,1.953,0,0,0-.2.1c-.385.217-.371.25-.464.353h0a.413.413,0,0,0-.028.038h0l0,0v.007l-.01.011v.017l-.01.012v.023l0,.006v.3l.008.025v.013l.008.027v.013c.011.037.022.084.031.12l.008.014.013.04.008.014.008.027.009.013v.013l.008.013v.013l.025.04v.013l.05.081.013.013.016.027.013.013.009.013.013.013.009.013.025.028.009.013c.886.941,3.276,1.561,4.031,1.115h0l.037-.021v-.006l.018-.01.009-.01.01,0c.038-.037.024-.022.046-.043h0l.009-.008h0l.009-.009h0v-.038h0v-.006h0V116.1l0-.007v-.02l.01-.014v-.159a1.727,1.727,0,0,0-.15-.83h0a3.661,3.661,0,0,0-1.514-1.831h-.009a3.185,3.185,0,0,0-.955.064Z" transform="translate(-5.453 -3.533)" fill="#010000" fill-rule="evenodd"/>
    <path id="Trazado_96" data-name="Trazado 96" d="M166.431,179.314a10.977,10.977,0,0,1-4.669-3.063c-3.143,4.921-6.112,8.974-9.983,14.409-.867,1.218-2.773,4.186-1.8,5.762,1.616,2.632,4.664-1.418,5.766-2.938,4.219-5.847,6.111-8.369,10.706-14.239" transform="translate(-5.281 -5.896)" fill-rule="evenodd"/>
    <path id="Trazado_97" data-name="Trazado 97" d="M161.9,175.25c.439.128.472.222.766.568a10.482,10.482,0,0,0,3.684,2.711h0l.494.125h0l.242.45c-.091.326-.077.236-.066.391l-.058.058-.018.067h0c-9.99,13.778-10.426,14.838-12.191,16.715a5.557,5.557,0,0,1-3.321,2,2.579,2.579,0,0,1-2.312-1.217,3.72,3.72,0,0,1-.272-3.356c.726-2.364,2.575-4.539,6.658-10.3C161.346,175.055,160.971,175.167,161.9,175.25ZM151,194.2a2.922,2.922,0,0,0-.211,1.4v.018c.012.039.022.066.04.121h0l0,.009h0l.01.017h0v.009h0v.013a1.636,1.636,0,0,0,.134.186c.027.035.076.087.077.088h.01l.009.009.006.008h.018l.014.012h.01l.01.009h0l.01.009h.009l.018.008h.044l.107-.008.013-.006h.017l.014-.006h.035l.013-.006h.013l.039-.015h.013c.04-.013.021-.01.062-.022l.013-.01a1.764,1.764,0,0,0,.262-.126h0c1.476-.875,3.062-3.284,4.1-4.708,2.752-3.815,6.415-8.242,9.255-11.658a11.5,11.5,0,0,1-1.47-.659,10.427,10.427,0,0,1-1.783-1.175c-4.324,7.181-10.117,13.987-10.914,16.483Z" transform="translate(-5.239 -5.859)" fill="#010000" fill-rule="evenodd"/>
    <path id="Trazado_98" data-name="Trazado 98" d="M181.534,120.137h0a30.158,30.158,0,0,1,29.341,30.2,32.225,32.225,0,0,1-.984,7.912v.014a31.055,31.055,0,0,1-33.337,23.124,29.5,29.5,0,0,1-7.545-1.758,31.077,31.077,0,0,1-20.25-28.5,30.271,30.271,0,0,1,2.94-13.562,30.852,30.852,0,0,1,5.335-7.82A30.467,30.467,0,0,1,181.534,120.137Zm-4.8,2.437A28.1,28.1,0,0,0,154.8,138.711a27.762,27.762,0,0,0-2.4,13.994,27.478,27.478,0,0,0,54.846-1.205,29,29,0,0,0-.245-4.867,27.067,27.067,0,0,0-2.879-8.915A28.431,28.431,0,0,0,191.8,125.385a24.993,24.993,0,0,0-15.064-2.812Zm4.8-2.434Z" transform="translate(-5.246 -3.845)" fill="#010000" fill-rule="evenodd"/>
    <ellipse id="Elipse_21" data-name="Elipse 21" cx="5.322" cy="3.992" rx="5.322" ry="3.992" transform="translate(175.806 148.468) rotate(-87.504)"/>
    <path id="Trazado_99" data-name="Trazado 99" d="M186.576,141.494a5.654,5.654,0,0,1,1.968.268,6.094,6.094,0,0,1,3.686,6.269,9.01,9.01,0,0,1-.435,2.538,6.455,6.455,0,0,1-4.23,4.348,4.984,4.984,0,0,1-4.7-1.261,6.827,6.827,0,0,1-1.685-2.569h0C179.478,146.687,182.234,141.307,186.576,141.494Zm.052,2.261c-2.152.385-2.766,3.428-2.234,5.545a2.753,2.753,0,0,0,1.7,2.143h.022l.017.006h.062l.022.006h.249a2.644,2.644,0,0,0,1.774-1.694c1.038-2.3-.216-5.609-1.615-6.023Zm.151-2.235Z" transform="translate(-6.411 -4.628)" fill="#010000" fill-rule="evenodd"/>
    <path id="Trazado_100" data-name="Trazado 100" d="M202.632,141.65l.138.508a50.455,50.455,0,0,1-.5,5.974c-.393,3.117-.379,4.713-1.3,12.422a10.6,10.6,0,0,0-.339,2.595l.007.045v.022a1.224,1.224,0,0,0,.068.265l.009.009v.013l.009.01v.014l.008.013.009.01c.119.2.47.357,1.053.482.337.064.134-.023.715.3l.171.464v0l-.232.442c-.544.207-.439.2-.8.183a2.81,2.81,0,0,1-2.484-1.183h0a3.2,3.2,0,0,1-.385-1.4c-.119-2.62.72-8.251.91-10.672.131-1.2.013-1.205.594-5.7a22.943,22.943,0,0,1,1.18-4.57l.324-.408.458-.109C202.258,141.379,202.619,141.641,202.632,141.65Z" transform="translate(-7.071 -4.624)" fill="#010000" fill-rule="evenodd"/>
    <path id="Trazado_101" data-name="Trazado 101" d="M176.868,127.454a6.1,6.1,0,0,1,3.059.795h0a3.256,3.256,0,0,1,1.579,2.271c.614,3.95-5.959,7.967-8.84,10.428-1.649,1.459-3.109,2.829-5.3,3.129-3.039.172-4.013-2.815-3.53-5.792a7.117,7.117,0,0,1,.811-2.317,16.572,16.572,0,0,1,8.446-7.684c1.392-.562,1.183-.482,1.679-.46l.229-.164a7.573,7.573,0,0,1,1.865-.207Zm-1.6,1.542-.295-.066a23.167,23.167,0,0,0-6.339,5.081,13.922,13.922,0,0,0-2.363,3.608,5.025,5.025,0,0,0,.022,3.876v.013l.013.013.016.028.009.009.016.028.009.009.009.014.016.019.009.014.009.009.013.01v.01l.013.009.034.038h.009l.016.018h.009l.009.01h.009l.009.009h.009l.009.01.026.014.008.009.087.048h.013a.182.182,0,0,0,.04.019h.009a.1.1,0,0,1,.022.01h.035a.1.1,0,0,0,.022.01h.026l.013.006h.04l.182.008h.1a3.874,3.874,0,0,0,1.289-.441,10.517,10.517,0,0,0,1.88-1.365c4.639-3.97,7-5.169,8.768-7.733a4.736,4.736,0,0,0,.385-.706,2.17,2.17,0,0,0,.167-.578l.006-.021v-.063l.006-.123v-.112l-.008-.036v-.017l-.008-.037v-.017c-.013-.064-.023-.105-.029-.139l-.009-.014-.008-.036-.008-.014v-.017l-.009-.014v-.018a.313.313,0,0,1-.016-.032v-.018a1.653,1.653,0,0,0-.584-.674h0a3.687,3.687,0,0,0-.324-.209l-.027-.011-.021-.014A5.7,5.7,0,0,0,175.27,129Z" transform="translate(-5.792 -4.115)" fill="#010000" fill-rule="evenodd"/>
    <path id="Trazado_102" data-name="Trazado 102" d="M163.521,150.7c.515.312.428.23.482.385.232-.02.086-.035.345.038a4.082,4.082,0,0,1,.884.407,4.721,4.721,0,0,1,2.106,3.4,6.566,6.566,0,0,1-.393,3.415h0a4.713,4.713,0,0,1-7.27,2.307c-1.938-1.315-2.426-4.1-1.644-6.3a5.188,5.188,0,0,1,3.276-3.547A4.391,4.391,0,0,1,163.521,150.7Zm-.173,1.329a2.912,2.912,0,0,0-1.232.373h0a4.414,4.414,0,0,0-1.406,1.412h0a4.214,4.214,0,0,0-.513.964,7.781,7.781,0,0,0-.224.753c-.33,1.34.055,3.009,1.314,3.547a2.745,2.745,0,0,0,1.967.193,2.994,2.994,0,0,0,1.693-1.778h0a5.319,5.319,0,0,0,.3-.848,5.518,5.518,0,0,0,.172-1.4,3.758,3.758,0,0,0-.323-1.542,2.628,2.628,0,0,0-1.366-1.365h0l-.328-.32a.264.264,0,0,1-.054.009Z" transform="translate(-5.572 -4.96)" fill="#010000" fill-rule="evenodd"/>
    <path id="Trazado_103" data-name="Trazado 103" d="M25.559,134.558a23.973,23.973,0,0,1,7.873,1.591c3.423,1.235,2.821.963,3.326,1.411l.059.482,0,.009-.319.372-.509.071h0a51.216,51.216,0,0,0-9.766-1.734,5.159,5.159,0,0,0-2.68.367l-.023.008a4.432,4.432,0,0,0-1.5,1.523h0a16.585,16.585,0,0,0-1.694,4.649,42.733,42.733,0,0,0-.927,12.718c.179,2.544.6,5.716,2.562,7.323,2.409,1.98,7.238,1.445,10.35.953,2.658-.379,1.916-.436,2.768-.243l.289.421h0l-.111.5-.43.3a55.51,55.51,0,0,1-6.887,1.266c-3.046.317-6.674-.28-8.5-2.723-3.2-3.845-2.535-15.223-1.425-20.162.669-3,1.6-6.552,4.159-8.245a4.984,4.984,0,0,1,1.471-.655A7.226,7.226,0,0,1,25.559,134.558Z" transform="translate(-0.441 -4.375)" fill="#010000" fill-rule="evenodd"/>
    <path id="Trazado_104" data-name="Trazado 104" d="M26.348,138.2a7.981,7.981,0,0,1,1.747,2.7h0c.822,2.137.923,5.419.93,7.708a38.9,38.9,0,0,1-1.107,8.692v.009c-.309,1.19-.213.78-.318,1.176h0c-.566,1.67-1.114,3.365-2.621,4.432h0l-.507.129-.443-.237h0l-.121-.476.234-.474c.867-.778,1.327-2.7,1.526-3.854h0c.86-4.721,1.527-8.093,1.034-13.143-.177-1.7-.5-3.264-.532-3.372h0a7.987,7.987,0,0,0-.86-2.475h0l-.1-.515.213-.417h0l.462-.113Z" transform="translate(-0.69 -4.499)" fill="#010000" fill-rule="evenodd"/>
    <path id="Trazado_105" data-name="Trazado 105" d="M27.157,141.4c-2.472,3.752-2.831,7.582-3.039,11.574a17.745,17.745,0,0,0,.045,2.52c.073.771.092,3.191.839,3.758.108.085.578-.356.664-.45,1.916-2.065,2.045-10.008,2.051-12.838-.009-.52.023-3.9-1.116-3.436" transform="translate(-0.697 -4.624)" fill-rule="evenodd"/>
    <path id="Trazado_106" data-name="Trazado 106" d="M27.478,140.816l.009,0,.257.406c-.089.674-.023.407-.222.816h0c.86.67,1.015,3.04,1.044,4.133.209,3.341.042,9.9-1.693,12.769-.6.909-1.617,1.791-2.546,1.163-.884-.666-1.109-2.132-1.2-3.315h0a29.94,29.94,0,0,1-.154-3.487c.217-4.973.562-8.366,3.585-12.3v0l.442-.269ZM25.3,150.86a32.159,32.159,0,0,0-.145,3.625c0,.163.146,2.394.2,2.677,1.127-2.942,1.563-11.574,1.407-13.322A28.831,28.831,0,0,0,25.3,150.86Z" transform="translate(-0.656 -4.6)" fill="#010000" fill-rule="evenodd"/>
    <path id="Trazado_107" data-name="Trazado 107" d="M54.975,132.9c.051.012,17.933,4.584,18.482,4.742,4.985,1.359,6.132,1.679,7.359,2.27a6.7,6.7,0,0,1,2.472,1.945c1.338,1.729,1.734,4.359,1.841,6.539a14.63,14.63,0,0,1-.278,3.641,38.743,38.743,0,0,1-1.4,4.423l-.336.385-.5.054c-.007-.008-.378-.322-.385-.328-.107-.929-.158.193.838-3.854a12.588,12.588,0,0,0,.289-2.127c.1-2.224-.412-6.188-1.9-7.612-1.052-1.734-11.015-3.819-21.583-6.552-3.868-1-9.648-2.759-13.633-2.437a3.408,3.408,0,0,0-2.1,1.027,15.2,15.2,0,0,0-1.349,1.526,20.085,20.085,0,0,0-2.467,4.239,30.254,30.254,0,0,0-2.25,9.451,28.519,28.519,0,0,0,.7,9.228,8.961,8.961,0,0,0,1.671,3.531c2.7,3.267,9.72,2.393,13.924,1.978h0l.5.15.256.442v.009l-.141.49-.456.26c-.443-.019-6.06,1.148-10.482.44-5.917-.946-7.205-5.349-8.051-11.148a31.1,31.1,0,0,1,3.59-18.195,15.756,15.756,0,0,1,4.071-4.794,5.857,5.857,0,0,1,1.681-.674C48.049,131.391,51.352,132.115,54.975,132.9Z" transform="translate(-1.125 -4.272)" fill="#010000" fill-rule="evenodd"/>
    <path id="Trazado_108" data-name="Trazado 108" d="M35.1,146.24v-.017l.026.014.031.01v-.017l.057.02v-.022a.24.24,0,0,0,.053.015v-.022h0l.04.011-.008-.023.043.012-.008-.023h.04l-.008-.022H35.4l-.008-.022.013,0h.018l-.013-.023h.026l-.016-.023h.016l-.016-.023h0l-.009-.009h0l.009.009-.009-.009.009.009h0v0l.008.01h.009l.009.01h.009v0l.035.019H35.5a6.059,6.059,0,0,0,.781.207c.223.1.253.16.424.245.469.374-.1-.175,1.012.937-.843.637-.911.758-1.638.932h0a.938.938,0,0,1-.368-.015,3.239,3.239,0,0,1-2.07-1.085v0a1.082,1.082,0,0,1,.055-1.06l1.332-.1h0Z" transform="translate(-1.041 -4.795)" fill="#010000" fill-rule="evenodd"/>
    <path id="Trazado_109" data-name="Trazado 109" d="M37.05,155.76c.289.162.007-.086.872.793a4.129,4.129,0,0,1-1.335.985h0l-.136.061h0a.969.969,0,0,0-.126.048,2.66,2.66,0,0,0-1,.325l-.014.013-.013.009h0l-.022.013-.013.013-.028.016-.013.014-.013.008-.024.021h0l-.037.034-.014.009-.032.03h-.027l-.018.008h-.022l-.374.01c-.241-.011.092.176-1.241-.747v-.009c.035-.8.142-.839.569-1.165a3.847,3.847,0,0,1,1.09-.547A2.237,2.237,0,0,1,37.05,155.76Z" transform="translate(-1.037 -5.139)" fill="#010000" fill-rule="evenodd"/>
    <path id="Trazado_110" data-name="Trazado 110" d="M47.926,135.959l.029.038h.009a10.385,10.385,0,0,1,2.208,3.718c.264.919.214.6.209.7.034.129.12.516.143.62a31.109,31.109,0,0,1,.527,8.172,28.021,28.021,0,0,1-1.9,8.774c-.867,2.086-1.962,4.982-4.213,5.2-.578-.025-.345.077-.973-.289l-.151-.482v-.009l.25-.429.5-.169h.187l.04-.012H44.8s.1-.036.13-.043l.01-.009.022-.008.013-.009h.013a.215.215,0,0,0,.046-.024l.009-.009c.172-.049.533-.4.922-1.1v-.009a17.886,17.886,0,0,0,1.124-2.992,31.112,31.112,0,0,0,1.6-6.455,30.594,30.594,0,0,0,.045-7.566,27.924,27.924,0,0,0-.594-3.262,13.489,13.489,0,0,0-1.271-3.54h0l-.1-.514.227-.416h0l.466-.1Z" transform="translate(-1.416 -4.418)" fill="#010000" fill-rule="evenodd"/>
    <path id="Trazado_111" data-name="Trazado 111" d="M48.426,139.2c-2.777,1.375-3.89,4.5-4.551,7.323-.46,1.943-.9,6.983-.518,8.745.35,1.8,1.7,5.432,3.228,4.163,2.987-2.476,3.091-11.355,2.95-15.241-.053-1.524-.152-3.518-1.3-4.7" transform="translate(-1.394 -4.544)" fill-rule="evenodd"/>
    <path id="Trazado_112" data-name="Trazado 112" d="M48.978,138.873v.009l.024.471a6.112,6.112,0,0,1,1.186,3.031,41.047,41.047,0,0,1,.31,4.186,31.988,31.988,0,0,1-.947,9.516c-.515,1.917-1.82,4.765-3.764,4.68-1.662-.073-2.639-2.288-3.156-3.871-.56-1.948-.7-2.472-.412-6.725.044-1.014.319-2.718.362-3.021h0c.707-3.6,2.078-7.043,5.438-8.544.1-.039-.013-.021.578-.04Zm-4.253,8.666h0a37.01,37.01,0,0,0-.445,4.6,20.659,20.659,0,0,0,.068,2.72,8.939,8.939,0,0,0,1.518,3.671l.013.01h0a2.974,2.974,0,0,0,.385-.406c2.225-2.54,2.65-14.2,2.179-16.5a4.663,4.663,0,0,0-.267-.9,3.017,3.017,0,0,0-.221-.445C46.041,142.05,45.309,144.765,44.726,147.539Z" transform="translate(-1.353 -4.521)" fill="#010000" fill-rule="evenodd"/>
    <path id="Trazado_113" data-name="Trazado 113" d="M47.97,143.952a3.632,3.632,0,0,1-.314,1.709h0c-1.253,3.4-.506,2.416-1.822,5.848h0l-.33.457-.429.154h-.009l-.377-.253a2.195,2.195,0,0,1-.242-1.054,9.041,9.041,0,0,1,0-1.722,23.352,23.352,0,0,1,1.182-4.219h0a2.7,2.7,0,0,1,.835-1.237c.4-.363.134-.23,1.215-.578Z" transform="translate(-1.438 -4.685)" fill="#fff" fill-rule="evenodd"/>
    <path id="Trazado_114" data-name="Trazado 114" d="M27.015,149.578a5.229,5.229,0,0,1-.494,2.078c-.206.473-.009.221-.88,1.023-.694-.888-.6-.692-.7-1.156a7.452,7.452,0,0,1,.03-3.239c.124-1.182.119-1.2.217-1.415a5.942,5.942,0,0,1,.442-.669l.74-.585C27.486,147.02,27.317,146.74,27.015,149.578Z" transform="translate(-0.722 -4.778)" fill="#fff" fill-rule="evenodd"/>
    <path id="Trazado_115" data-name="Trazado 115" d="M87.322,149.446a2.97,2.97,0,0,1,2,.615c1.56,1.14,1.831,3.565,1.57,5.436-.446,3.094-2.456,4.6-4.715,4.5a3.679,3.679,0,0,1-1.146-.281l-.385-.367c0-.007-.06-.482-.059-.482h0l.322-.355c.984-.154,1.017-.006,1.549-.207h0a2.549,2.549,0,0,0,.837-.47h0a4.04,4.04,0,0,0,1.18-1.613c.431-1.041.5-3.575-.3-4.27v-.009l-.013-.01-.015-.031c-.006,0-.133-.115-.137-.117a1.735,1.735,0,0,1-.164-.11h-.009a3.428,3.428,0,0,0-.393-.244h0a2.591,2.591,0,0,0-.54-.246h0c-.24-.1-.728-.241-.832-.271h0l-.459-.282-.177-.408h0l.213-.39.482-.246h.022a5.558,5.558,0,0,1,1.174-.148Z" transform="translate(-2.904 -4.918)" fill-rule="evenodd"/>
    <path id="Trazado_116" data-name="Trazado 116" d="M125.836,192.71h0c.146.834.343.511-2.753,3.164-1.41,1.226-8.352,6.5-12.294,9.017-.018.013-.25.178-.261.184h0l-.5.16-.437-.147h0l-.163-.429.15-.509v0c.1-.114-.017-.018.8-1.052a13.744,13.744,0,0,1,3.172-2.7c5.1-3.629,5.632-4.617,11.319-7.835h0l.541-.1Z" transform="translate(-3.811 -6.488)" fill-rule="evenodd"/>
    <path id="Trazado_117" data-name="Trazado 117" d="M212.6,262.9a9.25,9.25,0,0,1,1.431.994c2.023,2.3,3.5,3.188,5.245,4.944.746.752.415.279.857,1.018l-.042.463h0l-.4.25-.558-.046h0a12.2,12.2,0,0,1-2.632-1.335,31.819,31.819,0,0,1-3.309-3.012,5.318,5.318,0,0,1-1.6-2.409l-.009-.013.081-.937Z" transform="translate(-7.54 -9.056)" fill-rule="evenodd"/>
  </g>
</svg>
